%TF.GenerationSoftware,KiCad,Pcbnew,8.0.0*%
%TF.CreationDate,2024-04-03T18:38:51+02:00*%
%TF.ProjectId,zf-filter,7a662d66-696c-4746-9572-2e6b69636164,1.0*%
%TF.SameCoordinates,Original*%
%TF.FileFunction,Legend,Top*%
%TF.FilePolarity,Positive*%
%FSLAX46Y46*%
G04 Gerber Fmt 4.6, Leading zero omitted, Abs format (unit mm)*
G04 Created by KiCad (PCBNEW 8.0.0) date 2024-04-03 18:38:51*
%MOMM*%
%LPD*%
G01*
G04 APERTURE LIST*
%ADD10C,0.150000*%
%ADD11C,0.250000*%
%ADD12R,2.500000X2.500000*%
%ADD13C,2.500000*%
%ADD14C,3.200000*%
%ADD15C,1.600000*%
%ADD16O,1.600000X1.600000*%
%ADD17C,1.854000*%
G04 APERTURE END LIST*
D10*
X101738095Y-90907200D02*
X101880952Y-90954819D01*
X101880952Y-90954819D02*
X102119047Y-90954819D01*
X102119047Y-90954819D02*
X102214285Y-90907200D01*
X102214285Y-90907200D02*
X102261904Y-90859580D01*
X102261904Y-90859580D02*
X102309523Y-90764342D01*
X102309523Y-90764342D02*
X102309523Y-90669104D01*
X102309523Y-90669104D02*
X102261904Y-90573866D01*
X102261904Y-90573866D02*
X102214285Y-90526247D01*
X102214285Y-90526247D02*
X102119047Y-90478628D01*
X102119047Y-90478628D02*
X101928571Y-90431009D01*
X101928571Y-90431009D02*
X101833333Y-90383390D01*
X101833333Y-90383390D02*
X101785714Y-90335771D01*
X101785714Y-90335771D02*
X101738095Y-90240533D01*
X101738095Y-90240533D02*
X101738095Y-90145295D01*
X101738095Y-90145295D02*
X101785714Y-90050057D01*
X101785714Y-90050057D02*
X101833333Y-90002438D01*
X101833333Y-90002438D02*
X101928571Y-89954819D01*
X101928571Y-89954819D02*
X102166666Y-89954819D01*
X102166666Y-89954819D02*
X102309523Y-90002438D01*
X102690476Y-90050057D02*
X102738095Y-90002438D01*
X102738095Y-90002438D02*
X102833333Y-89954819D01*
X102833333Y-89954819D02*
X103071428Y-89954819D01*
X103071428Y-89954819D02*
X103166666Y-90002438D01*
X103166666Y-90002438D02*
X103214285Y-90050057D01*
X103214285Y-90050057D02*
X103261904Y-90145295D01*
X103261904Y-90145295D02*
X103261904Y-90240533D01*
X103261904Y-90240533D02*
X103214285Y-90383390D01*
X103214285Y-90383390D02*
X102642857Y-90954819D01*
X102642857Y-90954819D02*
X103261904Y-90954819D01*
X166738095Y-90907200D02*
X166880952Y-90954819D01*
X166880952Y-90954819D02*
X167119047Y-90954819D01*
X167119047Y-90954819D02*
X167214285Y-90907200D01*
X167214285Y-90907200D02*
X167261904Y-90859580D01*
X167261904Y-90859580D02*
X167309523Y-90764342D01*
X167309523Y-90764342D02*
X167309523Y-90669104D01*
X167309523Y-90669104D02*
X167261904Y-90573866D01*
X167261904Y-90573866D02*
X167214285Y-90526247D01*
X167214285Y-90526247D02*
X167119047Y-90478628D01*
X167119047Y-90478628D02*
X166928571Y-90431009D01*
X166928571Y-90431009D02*
X166833333Y-90383390D01*
X166833333Y-90383390D02*
X166785714Y-90335771D01*
X166785714Y-90335771D02*
X166738095Y-90240533D01*
X166738095Y-90240533D02*
X166738095Y-90145295D01*
X166738095Y-90145295D02*
X166785714Y-90050057D01*
X166785714Y-90050057D02*
X166833333Y-90002438D01*
X166833333Y-90002438D02*
X166928571Y-89954819D01*
X166928571Y-89954819D02*
X167166666Y-89954819D01*
X167166666Y-89954819D02*
X167309523Y-90002438D01*
X168261904Y-90954819D02*
X167690476Y-90954819D01*
X167976190Y-90954819D02*
X167976190Y-89954819D01*
X167976190Y-89954819D02*
X167880952Y-90097676D01*
X167880952Y-90097676D02*
X167785714Y-90192914D01*
X167785714Y-90192914D02*
X167690476Y-90240533D01*
X106738095Y-90907200D02*
X106880952Y-90954819D01*
X106880952Y-90954819D02*
X107119047Y-90954819D01*
X107119047Y-90954819D02*
X107214285Y-90907200D01*
X107214285Y-90907200D02*
X107261904Y-90859580D01*
X107261904Y-90859580D02*
X107309523Y-90764342D01*
X107309523Y-90764342D02*
X107309523Y-90669104D01*
X107309523Y-90669104D02*
X107261904Y-90573866D01*
X107261904Y-90573866D02*
X107214285Y-90526247D01*
X107214285Y-90526247D02*
X107119047Y-90478628D01*
X107119047Y-90478628D02*
X106928571Y-90431009D01*
X106928571Y-90431009D02*
X106833333Y-90383390D01*
X106833333Y-90383390D02*
X106785714Y-90335771D01*
X106785714Y-90335771D02*
X106738095Y-90240533D01*
X106738095Y-90240533D02*
X106738095Y-90145295D01*
X106738095Y-90145295D02*
X106785714Y-90050057D01*
X106785714Y-90050057D02*
X106833333Y-90002438D01*
X106833333Y-90002438D02*
X106928571Y-89954819D01*
X106928571Y-89954819D02*
X107166666Y-89954819D01*
X107166666Y-89954819D02*
X107309523Y-90002438D01*
X107642857Y-89954819D02*
X108261904Y-89954819D01*
X108261904Y-89954819D02*
X107928571Y-90335771D01*
X107928571Y-90335771D02*
X108071428Y-90335771D01*
X108071428Y-90335771D02*
X108166666Y-90383390D01*
X108166666Y-90383390D02*
X108214285Y-90431009D01*
X108214285Y-90431009D02*
X108261904Y-90526247D01*
X108261904Y-90526247D02*
X108261904Y-90764342D01*
X108261904Y-90764342D02*
X108214285Y-90859580D01*
X108214285Y-90859580D02*
X108166666Y-90907200D01*
X108166666Y-90907200D02*
X108071428Y-90954819D01*
X108071428Y-90954819D02*
X107785714Y-90954819D01*
X107785714Y-90954819D02*
X107690476Y-90907200D01*
X107690476Y-90907200D02*
X107642857Y-90859580D01*
X158059523Y-89954819D02*
X157583333Y-89954819D01*
X157583333Y-89954819D02*
X157535714Y-90431009D01*
X157535714Y-90431009D02*
X157583333Y-90383390D01*
X157583333Y-90383390D02*
X157678571Y-90335771D01*
X157678571Y-90335771D02*
X157916666Y-90335771D01*
X157916666Y-90335771D02*
X158011904Y-90383390D01*
X158011904Y-90383390D02*
X158059523Y-90431009D01*
X158059523Y-90431009D02*
X158107142Y-90526247D01*
X158107142Y-90526247D02*
X158107142Y-90764342D01*
X158107142Y-90764342D02*
X158059523Y-90859580D01*
X158059523Y-90859580D02*
X158011904Y-90907200D01*
X158011904Y-90907200D02*
X157916666Y-90954819D01*
X157916666Y-90954819D02*
X157678571Y-90954819D01*
X157678571Y-90954819D02*
X157583333Y-90907200D01*
X157583333Y-90907200D02*
X157535714Y-90859580D01*
X158392857Y-89954819D02*
X158726190Y-90954819D01*
X158726190Y-90954819D02*
X159059523Y-89954819D01*
X88059523Y-89954819D02*
X87583333Y-89954819D01*
X87583333Y-89954819D02*
X87535714Y-90431009D01*
X87535714Y-90431009D02*
X87583333Y-90383390D01*
X87583333Y-90383390D02*
X87678571Y-90335771D01*
X87678571Y-90335771D02*
X87916666Y-90335771D01*
X87916666Y-90335771D02*
X88011904Y-90383390D01*
X88011904Y-90383390D02*
X88059523Y-90431009D01*
X88059523Y-90431009D02*
X88107142Y-90526247D01*
X88107142Y-90526247D02*
X88107142Y-90764342D01*
X88107142Y-90764342D02*
X88059523Y-90859580D01*
X88059523Y-90859580D02*
X88011904Y-90907200D01*
X88011904Y-90907200D02*
X87916666Y-90954819D01*
X87916666Y-90954819D02*
X87678571Y-90954819D01*
X87678571Y-90954819D02*
X87583333Y-90907200D01*
X87583333Y-90907200D02*
X87535714Y-90859580D01*
X88392857Y-89954819D02*
X88726190Y-90954819D01*
X88726190Y-90954819D02*
X89059523Y-89954819D01*
X96738095Y-90907200D02*
X96880952Y-90954819D01*
X96880952Y-90954819D02*
X97119047Y-90954819D01*
X97119047Y-90954819D02*
X97214285Y-90907200D01*
X97214285Y-90907200D02*
X97261904Y-90859580D01*
X97261904Y-90859580D02*
X97309523Y-90764342D01*
X97309523Y-90764342D02*
X97309523Y-90669104D01*
X97309523Y-90669104D02*
X97261904Y-90573866D01*
X97261904Y-90573866D02*
X97214285Y-90526247D01*
X97214285Y-90526247D02*
X97119047Y-90478628D01*
X97119047Y-90478628D02*
X96928571Y-90431009D01*
X96928571Y-90431009D02*
X96833333Y-90383390D01*
X96833333Y-90383390D02*
X96785714Y-90335771D01*
X96785714Y-90335771D02*
X96738095Y-90240533D01*
X96738095Y-90240533D02*
X96738095Y-90145295D01*
X96738095Y-90145295D02*
X96785714Y-90050057D01*
X96785714Y-90050057D02*
X96833333Y-90002438D01*
X96833333Y-90002438D02*
X96928571Y-89954819D01*
X96928571Y-89954819D02*
X97166666Y-89954819D01*
X97166666Y-89954819D02*
X97309523Y-90002438D01*
X98261904Y-90954819D02*
X97690476Y-90954819D01*
X97976190Y-90954819D02*
X97976190Y-89954819D01*
X97976190Y-89954819D02*
X97880952Y-90097676D01*
X97880952Y-90097676D02*
X97785714Y-90192914D01*
X97785714Y-90192914D02*
X97690476Y-90240533D01*
X176738095Y-90907200D02*
X176880952Y-90954819D01*
X176880952Y-90954819D02*
X177119047Y-90954819D01*
X177119047Y-90954819D02*
X177214285Y-90907200D01*
X177214285Y-90907200D02*
X177261904Y-90859580D01*
X177261904Y-90859580D02*
X177309523Y-90764342D01*
X177309523Y-90764342D02*
X177309523Y-90669104D01*
X177309523Y-90669104D02*
X177261904Y-90573866D01*
X177261904Y-90573866D02*
X177214285Y-90526247D01*
X177214285Y-90526247D02*
X177119047Y-90478628D01*
X177119047Y-90478628D02*
X176928571Y-90431009D01*
X176928571Y-90431009D02*
X176833333Y-90383390D01*
X176833333Y-90383390D02*
X176785714Y-90335771D01*
X176785714Y-90335771D02*
X176738095Y-90240533D01*
X176738095Y-90240533D02*
X176738095Y-90145295D01*
X176738095Y-90145295D02*
X176785714Y-90050057D01*
X176785714Y-90050057D02*
X176833333Y-90002438D01*
X176833333Y-90002438D02*
X176928571Y-89954819D01*
X176928571Y-89954819D02*
X177166666Y-89954819D01*
X177166666Y-89954819D02*
X177309523Y-90002438D01*
X177642857Y-89954819D02*
X178261904Y-89954819D01*
X178261904Y-89954819D02*
X177928571Y-90335771D01*
X177928571Y-90335771D02*
X178071428Y-90335771D01*
X178071428Y-90335771D02*
X178166666Y-90383390D01*
X178166666Y-90383390D02*
X178214285Y-90431009D01*
X178214285Y-90431009D02*
X178261904Y-90526247D01*
X178261904Y-90526247D02*
X178261904Y-90764342D01*
X178261904Y-90764342D02*
X178214285Y-90859580D01*
X178214285Y-90859580D02*
X178166666Y-90907200D01*
X178166666Y-90907200D02*
X178071428Y-90954819D01*
X178071428Y-90954819D02*
X177785714Y-90954819D01*
X177785714Y-90954819D02*
X177690476Y-90907200D01*
X177690476Y-90907200D02*
X177642857Y-90859580D01*
X181738095Y-90907200D02*
X181880952Y-90954819D01*
X181880952Y-90954819D02*
X182119047Y-90954819D01*
X182119047Y-90954819D02*
X182214285Y-90907200D01*
X182214285Y-90907200D02*
X182261904Y-90859580D01*
X182261904Y-90859580D02*
X182309523Y-90764342D01*
X182309523Y-90764342D02*
X182309523Y-90669104D01*
X182309523Y-90669104D02*
X182261904Y-90573866D01*
X182261904Y-90573866D02*
X182214285Y-90526247D01*
X182214285Y-90526247D02*
X182119047Y-90478628D01*
X182119047Y-90478628D02*
X181928571Y-90431009D01*
X181928571Y-90431009D02*
X181833333Y-90383390D01*
X181833333Y-90383390D02*
X181785714Y-90335771D01*
X181785714Y-90335771D02*
X181738095Y-90240533D01*
X181738095Y-90240533D02*
X181738095Y-90145295D01*
X181738095Y-90145295D02*
X181785714Y-90050057D01*
X181785714Y-90050057D02*
X181833333Y-90002438D01*
X181833333Y-90002438D02*
X181928571Y-89954819D01*
X181928571Y-89954819D02*
X182166666Y-89954819D01*
X182166666Y-89954819D02*
X182309523Y-90002438D01*
X183166666Y-90288152D02*
X183166666Y-90954819D01*
X182928571Y-89907200D02*
X182690476Y-90621485D01*
X182690476Y-90621485D02*
X183309523Y-90621485D01*
X171738095Y-90907200D02*
X171880952Y-90954819D01*
X171880952Y-90954819D02*
X172119047Y-90954819D01*
X172119047Y-90954819D02*
X172214285Y-90907200D01*
X172214285Y-90907200D02*
X172261904Y-90859580D01*
X172261904Y-90859580D02*
X172309523Y-90764342D01*
X172309523Y-90764342D02*
X172309523Y-90669104D01*
X172309523Y-90669104D02*
X172261904Y-90573866D01*
X172261904Y-90573866D02*
X172214285Y-90526247D01*
X172214285Y-90526247D02*
X172119047Y-90478628D01*
X172119047Y-90478628D02*
X171928571Y-90431009D01*
X171928571Y-90431009D02*
X171833333Y-90383390D01*
X171833333Y-90383390D02*
X171785714Y-90335771D01*
X171785714Y-90335771D02*
X171738095Y-90240533D01*
X171738095Y-90240533D02*
X171738095Y-90145295D01*
X171738095Y-90145295D02*
X171785714Y-90050057D01*
X171785714Y-90050057D02*
X171833333Y-90002438D01*
X171833333Y-90002438D02*
X171928571Y-89954819D01*
X171928571Y-89954819D02*
X172166666Y-89954819D01*
X172166666Y-89954819D02*
X172309523Y-90002438D01*
X172690476Y-90050057D02*
X172738095Y-90002438D01*
X172738095Y-90002438D02*
X172833333Y-89954819D01*
X172833333Y-89954819D02*
X173071428Y-89954819D01*
X173071428Y-89954819D02*
X173166666Y-90002438D01*
X173166666Y-90002438D02*
X173214285Y-90050057D01*
X173214285Y-90050057D02*
X173261904Y-90145295D01*
X173261904Y-90145295D02*
X173261904Y-90240533D01*
X173261904Y-90240533D02*
X173214285Y-90383390D01*
X173214285Y-90383390D02*
X172642857Y-90954819D01*
X172642857Y-90954819D02*
X173261904Y-90954819D01*
D11*
X208238095Y-85912238D02*
X207571428Y-84959857D01*
X207095238Y-85912238D02*
X207095238Y-83912238D01*
X207095238Y-83912238D02*
X207857143Y-83912238D01*
X207857143Y-83912238D02*
X208047619Y-84007476D01*
X208047619Y-84007476D02*
X208142857Y-84102714D01*
X208142857Y-84102714D02*
X208238095Y-84293190D01*
X208238095Y-84293190D02*
X208238095Y-84578904D01*
X208238095Y-84578904D02*
X208142857Y-84769380D01*
X208142857Y-84769380D02*
X208047619Y-84864619D01*
X208047619Y-84864619D02*
X207857143Y-84959857D01*
X207857143Y-84959857D02*
X207095238Y-84959857D01*
X210142857Y-85912238D02*
X209000000Y-85912238D01*
X209571428Y-85912238D02*
X209571428Y-83912238D01*
X209571428Y-83912238D02*
X209380952Y-84197952D01*
X209380952Y-84197952D02*
X209190476Y-84388428D01*
X209190476Y-84388428D02*
X209000000Y-84483666D01*
X211000000Y-85721761D02*
X211095238Y-85817000D01*
X211095238Y-85817000D02*
X211000000Y-85912238D01*
X211000000Y-85912238D02*
X210904762Y-85817000D01*
X210904762Y-85817000D02*
X211000000Y-85721761D01*
X211000000Y-85721761D02*
X211000000Y-85912238D01*
X212333333Y-83912238D02*
X212523810Y-83912238D01*
X212523810Y-83912238D02*
X212714286Y-84007476D01*
X212714286Y-84007476D02*
X212809524Y-84102714D01*
X212809524Y-84102714D02*
X212904762Y-84293190D01*
X212904762Y-84293190D02*
X213000000Y-84674142D01*
X213000000Y-84674142D02*
X213000000Y-85150333D01*
X213000000Y-85150333D02*
X212904762Y-85531285D01*
X212904762Y-85531285D02*
X212809524Y-85721761D01*
X212809524Y-85721761D02*
X212714286Y-85817000D01*
X212714286Y-85817000D02*
X212523810Y-85912238D01*
X212523810Y-85912238D02*
X212333333Y-85912238D01*
X212333333Y-85912238D02*
X212142857Y-85817000D01*
X212142857Y-85817000D02*
X212047619Y-85721761D01*
X212047619Y-85721761D02*
X211952381Y-85531285D01*
X211952381Y-85531285D02*
X211857143Y-85150333D01*
X211857143Y-85150333D02*
X211857143Y-84674142D01*
X211857143Y-84674142D02*
X211952381Y-84293190D01*
X211952381Y-84293190D02*
X212047619Y-84102714D01*
X212047619Y-84102714D02*
X212142857Y-84007476D01*
X212142857Y-84007476D02*
X212333333Y-83912238D01*
D10*
X92488095Y-90002438D02*
X92392857Y-89954819D01*
X92392857Y-89954819D02*
X92250000Y-89954819D01*
X92250000Y-89954819D02*
X92107143Y-90002438D01*
X92107143Y-90002438D02*
X92011905Y-90097676D01*
X92011905Y-90097676D02*
X91964286Y-90192914D01*
X91964286Y-90192914D02*
X91916667Y-90383390D01*
X91916667Y-90383390D02*
X91916667Y-90526247D01*
X91916667Y-90526247D02*
X91964286Y-90716723D01*
X91964286Y-90716723D02*
X92011905Y-90811961D01*
X92011905Y-90811961D02*
X92107143Y-90907200D01*
X92107143Y-90907200D02*
X92250000Y-90954819D01*
X92250000Y-90954819D02*
X92345238Y-90954819D01*
X92345238Y-90954819D02*
X92488095Y-90907200D01*
X92488095Y-90907200D02*
X92535714Y-90859580D01*
X92535714Y-90859580D02*
X92535714Y-90526247D01*
X92535714Y-90526247D02*
X92345238Y-90526247D01*
X92964286Y-90954819D02*
X92964286Y-89954819D01*
X92964286Y-89954819D02*
X93535714Y-90954819D01*
X93535714Y-90954819D02*
X93535714Y-89954819D01*
X94011905Y-90954819D02*
X94011905Y-89954819D01*
X94011905Y-89954819D02*
X94250000Y-89954819D01*
X94250000Y-89954819D02*
X94392857Y-90002438D01*
X94392857Y-90002438D02*
X94488095Y-90097676D01*
X94488095Y-90097676D02*
X94535714Y-90192914D01*
X94535714Y-90192914D02*
X94583333Y-90383390D01*
X94583333Y-90383390D02*
X94583333Y-90526247D01*
X94583333Y-90526247D02*
X94535714Y-90716723D01*
X94535714Y-90716723D02*
X94488095Y-90811961D01*
X94488095Y-90811961D02*
X94392857Y-90907200D01*
X94392857Y-90907200D02*
X94250000Y-90954819D01*
X94250000Y-90954819D02*
X94011905Y-90954819D01*
X111738095Y-90907200D02*
X111880952Y-90954819D01*
X111880952Y-90954819D02*
X112119047Y-90954819D01*
X112119047Y-90954819D02*
X112214285Y-90907200D01*
X112214285Y-90907200D02*
X112261904Y-90859580D01*
X112261904Y-90859580D02*
X112309523Y-90764342D01*
X112309523Y-90764342D02*
X112309523Y-90669104D01*
X112309523Y-90669104D02*
X112261904Y-90573866D01*
X112261904Y-90573866D02*
X112214285Y-90526247D01*
X112214285Y-90526247D02*
X112119047Y-90478628D01*
X112119047Y-90478628D02*
X111928571Y-90431009D01*
X111928571Y-90431009D02*
X111833333Y-90383390D01*
X111833333Y-90383390D02*
X111785714Y-90335771D01*
X111785714Y-90335771D02*
X111738095Y-90240533D01*
X111738095Y-90240533D02*
X111738095Y-90145295D01*
X111738095Y-90145295D02*
X111785714Y-90050057D01*
X111785714Y-90050057D02*
X111833333Y-90002438D01*
X111833333Y-90002438D02*
X111928571Y-89954819D01*
X111928571Y-89954819D02*
X112166666Y-89954819D01*
X112166666Y-89954819D02*
X112309523Y-90002438D01*
X113166666Y-90288152D02*
X113166666Y-90954819D01*
X112928571Y-89907200D02*
X112690476Y-90621485D01*
X112690476Y-90621485D02*
X113309523Y-90621485D01*
X162488095Y-90002438D02*
X162392857Y-89954819D01*
X162392857Y-89954819D02*
X162250000Y-89954819D01*
X162250000Y-89954819D02*
X162107143Y-90002438D01*
X162107143Y-90002438D02*
X162011905Y-90097676D01*
X162011905Y-90097676D02*
X161964286Y-90192914D01*
X161964286Y-90192914D02*
X161916667Y-90383390D01*
X161916667Y-90383390D02*
X161916667Y-90526247D01*
X161916667Y-90526247D02*
X161964286Y-90716723D01*
X161964286Y-90716723D02*
X162011905Y-90811961D01*
X162011905Y-90811961D02*
X162107143Y-90907200D01*
X162107143Y-90907200D02*
X162250000Y-90954819D01*
X162250000Y-90954819D02*
X162345238Y-90954819D01*
X162345238Y-90954819D02*
X162488095Y-90907200D01*
X162488095Y-90907200D02*
X162535714Y-90859580D01*
X162535714Y-90859580D02*
X162535714Y-90526247D01*
X162535714Y-90526247D02*
X162345238Y-90526247D01*
X162964286Y-90954819D02*
X162964286Y-89954819D01*
X162964286Y-89954819D02*
X163535714Y-90954819D01*
X163535714Y-90954819D02*
X163535714Y-89954819D01*
X164011905Y-90954819D02*
X164011905Y-89954819D01*
X164011905Y-89954819D02*
X164250000Y-89954819D01*
X164250000Y-89954819D02*
X164392857Y-90002438D01*
X164392857Y-90002438D02*
X164488095Y-90097676D01*
X164488095Y-90097676D02*
X164535714Y-90192914D01*
X164535714Y-90192914D02*
X164583333Y-90383390D01*
X164583333Y-90383390D02*
X164583333Y-90526247D01*
X164583333Y-90526247D02*
X164535714Y-90716723D01*
X164535714Y-90716723D02*
X164488095Y-90811961D01*
X164488095Y-90811961D02*
X164392857Y-90907200D01*
X164392857Y-90907200D02*
X164250000Y-90954819D01*
X164250000Y-90954819D02*
X164011905Y-90954819D01*
X135380952Y-124157200D02*
X135523809Y-124204819D01*
X135523809Y-124204819D02*
X135761904Y-124204819D01*
X135761904Y-124204819D02*
X135857142Y-124157200D01*
X135857142Y-124157200D02*
X135904761Y-124109580D01*
X135904761Y-124109580D02*
X135952380Y-124014342D01*
X135952380Y-124014342D02*
X135952380Y-123919104D01*
X135952380Y-123919104D02*
X135904761Y-123823866D01*
X135904761Y-123823866D02*
X135857142Y-123776247D01*
X135857142Y-123776247D02*
X135761904Y-123728628D01*
X135761904Y-123728628D02*
X135571428Y-123681009D01*
X135571428Y-123681009D02*
X135476190Y-123633390D01*
X135476190Y-123633390D02*
X135428571Y-123585771D01*
X135428571Y-123585771D02*
X135380952Y-123490533D01*
X135380952Y-123490533D02*
X135380952Y-123395295D01*
X135380952Y-123395295D02*
X135428571Y-123300057D01*
X135428571Y-123300057D02*
X135476190Y-123252438D01*
X135476190Y-123252438D02*
X135571428Y-123204819D01*
X135571428Y-123204819D02*
X135809523Y-123204819D01*
X135809523Y-123204819D02*
X135952380Y-123252438D01*
X136380952Y-123681009D02*
X136714285Y-123681009D01*
X136857142Y-124204819D02*
X136380952Y-124204819D01*
X136380952Y-124204819D02*
X136380952Y-123204819D01*
X136380952Y-123204819D02*
X136857142Y-123204819D01*
X137285714Y-124204819D02*
X137285714Y-123204819D01*
X137285714Y-123204819D02*
X137857142Y-124204819D01*
X137857142Y-124204819D02*
X137857142Y-123204819D01*
X138190476Y-123204819D02*
X138761904Y-123204819D01*
X138476190Y-124204819D02*
X138476190Y-123204819D01*
X139523809Y-123538152D02*
X139523809Y-124204819D01*
X139285714Y-123157200D02*
X139047619Y-123871485D01*
X139047619Y-123871485D02*
X139666666Y-123871485D01*
X162954819Y-101642857D02*
X162478628Y-101976190D01*
X162954819Y-102214285D02*
X161954819Y-102214285D01*
X161954819Y-102214285D02*
X161954819Y-101833333D01*
X161954819Y-101833333D02*
X162002438Y-101738095D01*
X162002438Y-101738095D02*
X162050057Y-101690476D01*
X162050057Y-101690476D02*
X162145295Y-101642857D01*
X162145295Y-101642857D02*
X162288152Y-101642857D01*
X162288152Y-101642857D02*
X162383390Y-101690476D01*
X162383390Y-101690476D02*
X162431009Y-101738095D01*
X162431009Y-101738095D02*
X162478628Y-101833333D01*
X162478628Y-101833333D02*
X162478628Y-102214285D01*
X161954819Y-100738095D02*
X161954819Y-101214285D01*
X161954819Y-101214285D02*
X162431009Y-101261904D01*
X162431009Y-101261904D02*
X162383390Y-101214285D01*
X162383390Y-101214285D02*
X162335771Y-101119047D01*
X162335771Y-101119047D02*
X162335771Y-100880952D01*
X162335771Y-100880952D02*
X162383390Y-100785714D01*
X162383390Y-100785714D02*
X162431009Y-100738095D01*
X162431009Y-100738095D02*
X162526247Y-100690476D01*
X162526247Y-100690476D02*
X162764342Y-100690476D01*
X162764342Y-100690476D02*
X162859580Y-100738095D01*
X162859580Y-100738095D02*
X162907200Y-100785714D01*
X162907200Y-100785714D02*
X162954819Y-100880952D01*
X162954819Y-100880952D02*
X162954819Y-101119047D01*
X162954819Y-101119047D02*
X162907200Y-101214285D01*
X162907200Y-101214285D02*
X162859580Y-101261904D01*
X162050057Y-100309523D02*
X162002438Y-100261904D01*
X162002438Y-100261904D02*
X161954819Y-100166666D01*
X161954819Y-100166666D02*
X161954819Y-99928571D01*
X161954819Y-99928571D02*
X162002438Y-99833333D01*
X162002438Y-99833333D02*
X162050057Y-99785714D01*
X162050057Y-99785714D02*
X162145295Y-99738095D01*
X162145295Y-99738095D02*
X162240533Y-99738095D01*
X162240533Y-99738095D02*
X162383390Y-99785714D01*
X162383390Y-99785714D02*
X162954819Y-100357142D01*
X162954819Y-100357142D02*
X162954819Y-99738095D01*
X204357142Y-93279580D02*
X204309523Y-93327200D01*
X204309523Y-93327200D02*
X204166666Y-93374819D01*
X204166666Y-93374819D02*
X204071428Y-93374819D01*
X204071428Y-93374819D02*
X203928571Y-93327200D01*
X203928571Y-93327200D02*
X203833333Y-93231961D01*
X203833333Y-93231961D02*
X203785714Y-93136723D01*
X203785714Y-93136723D02*
X203738095Y-92946247D01*
X203738095Y-92946247D02*
X203738095Y-92803390D01*
X203738095Y-92803390D02*
X203785714Y-92612914D01*
X203785714Y-92612914D02*
X203833333Y-92517676D01*
X203833333Y-92517676D02*
X203928571Y-92422438D01*
X203928571Y-92422438D02*
X204071428Y-92374819D01*
X204071428Y-92374819D02*
X204166666Y-92374819D01*
X204166666Y-92374819D02*
X204309523Y-92422438D01*
X204309523Y-92422438D02*
X204357142Y-92470057D01*
X204928571Y-92803390D02*
X204833333Y-92755771D01*
X204833333Y-92755771D02*
X204785714Y-92708152D01*
X204785714Y-92708152D02*
X204738095Y-92612914D01*
X204738095Y-92612914D02*
X204738095Y-92565295D01*
X204738095Y-92565295D02*
X204785714Y-92470057D01*
X204785714Y-92470057D02*
X204833333Y-92422438D01*
X204833333Y-92422438D02*
X204928571Y-92374819D01*
X204928571Y-92374819D02*
X205119047Y-92374819D01*
X205119047Y-92374819D02*
X205214285Y-92422438D01*
X205214285Y-92422438D02*
X205261904Y-92470057D01*
X205261904Y-92470057D02*
X205309523Y-92565295D01*
X205309523Y-92565295D02*
X205309523Y-92612914D01*
X205309523Y-92612914D02*
X205261904Y-92708152D01*
X205261904Y-92708152D02*
X205214285Y-92755771D01*
X205214285Y-92755771D02*
X205119047Y-92803390D01*
X205119047Y-92803390D02*
X204928571Y-92803390D01*
X204928571Y-92803390D02*
X204833333Y-92851009D01*
X204833333Y-92851009D02*
X204785714Y-92898628D01*
X204785714Y-92898628D02*
X204738095Y-92993866D01*
X204738095Y-92993866D02*
X204738095Y-93184342D01*
X204738095Y-93184342D02*
X204785714Y-93279580D01*
X204785714Y-93279580D02*
X204833333Y-93327200D01*
X204833333Y-93327200D02*
X204928571Y-93374819D01*
X204928571Y-93374819D02*
X205119047Y-93374819D01*
X205119047Y-93374819D02*
X205214285Y-93327200D01*
X205214285Y-93327200D02*
X205261904Y-93279580D01*
X205261904Y-93279580D02*
X205309523Y-93184342D01*
X205309523Y-93184342D02*
X205309523Y-92993866D01*
X205309523Y-92993866D02*
X205261904Y-92898628D01*
X205261904Y-92898628D02*
X205214285Y-92851009D01*
X205214285Y-92851009D02*
X205119047Y-92803390D01*
X206261904Y-93374819D02*
X205690476Y-93374819D01*
X205976190Y-93374819D02*
X205976190Y-92374819D01*
X205976190Y-92374819D02*
X205880952Y-92517676D01*
X205880952Y-92517676D02*
X205785714Y-92612914D01*
X205785714Y-92612914D02*
X205690476Y-92660533D01*
X116954819Y-116794285D02*
X115954819Y-116794285D01*
X115954819Y-116794285D02*
X115954819Y-116556190D01*
X115954819Y-116556190D02*
X116002438Y-116413333D01*
X116002438Y-116413333D02*
X116097676Y-116318095D01*
X116097676Y-116318095D02*
X116192914Y-116270476D01*
X116192914Y-116270476D02*
X116383390Y-116222857D01*
X116383390Y-116222857D02*
X116526247Y-116222857D01*
X116526247Y-116222857D02*
X116716723Y-116270476D01*
X116716723Y-116270476D02*
X116811961Y-116318095D01*
X116811961Y-116318095D02*
X116907200Y-116413333D01*
X116907200Y-116413333D02*
X116954819Y-116556190D01*
X116954819Y-116556190D02*
X116954819Y-116794285D01*
X115954819Y-115889523D02*
X115954819Y-115270476D01*
X115954819Y-115270476D02*
X116335771Y-115603809D01*
X116335771Y-115603809D02*
X116335771Y-115460952D01*
X116335771Y-115460952D02*
X116383390Y-115365714D01*
X116383390Y-115365714D02*
X116431009Y-115318095D01*
X116431009Y-115318095D02*
X116526247Y-115270476D01*
X116526247Y-115270476D02*
X116764342Y-115270476D01*
X116764342Y-115270476D02*
X116859580Y-115318095D01*
X116859580Y-115318095D02*
X116907200Y-115365714D01*
X116907200Y-115365714D02*
X116954819Y-115460952D01*
X116954819Y-115460952D02*
X116954819Y-115746666D01*
X116954819Y-115746666D02*
X116907200Y-115841904D01*
X116907200Y-115841904D02*
X116859580Y-115889523D01*
X115954819Y-114651428D02*
X115954819Y-114556190D01*
X115954819Y-114556190D02*
X116002438Y-114460952D01*
X116002438Y-114460952D02*
X116050057Y-114413333D01*
X116050057Y-114413333D02*
X116145295Y-114365714D01*
X116145295Y-114365714D02*
X116335771Y-114318095D01*
X116335771Y-114318095D02*
X116573866Y-114318095D01*
X116573866Y-114318095D02*
X116764342Y-114365714D01*
X116764342Y-114365714D02*
X116859580Y-114413333D01*
X116859580Y-114413333D02*
X116907200Y-114460952D01*
X116907200Y-114460952D02*
X116954819Y-114556190D01*
X116954819Y-114556190D02*
X116954819Y-114651428D01*
X116954819Y-114651428D02*
X116907200Y-114746666D01*
X116907200Y-114746666D02*
X116859580Y-114794285D01*
X116859580Y-114794285D02*
X116764342Y-114841904D01*
X116764342Y-114841904D02*
X116573866Y-114889523D01*
X116573866Y-114889523D02*
X116335771Y-114889523D01*
X116335771Y-114889523D02*
X116145295Y-114841904D01*
X116145295Y-114841904D02*
X116050057Y-114794285D01*
X116050057Y-114794285D02*
X116002438Y-114746666D01*
X116002438Y-114746666D02*
X115954819Y-114651428D01*
X137954819Y-101642857D02*
X137478628Y-101976190D01*
X137954819Y-102214285D02*
X136954819Y-102214285D01*
X136954819Y-102214285D02*
X136954819Y-101833333D01*
X136954819Y-101833333D02*
X137002438Y-101738095D01*
X137002438Y-101738095D02*
X137050057Y-101690476D01*
X137050057Y-101690476D02*
X137145295Y-101642857D01*
X137145295Y-101642857D02*
X137288152Y-101642857D01*
X137288152Y-101642857D02*
X137383390Y-101690476D01*
X137383390Y-101690476D02*
X137431009Y-101738095D01*
X137431009Y-101738095D02*
X137478628Y-101833333D01*
X137478628Y-101833333D02*
X137478628Y-102214285D01*
X137288152Y-100785714D02*
X137954819Y-100785714D01*
X136907200Y-101023809D02*
X137621485Y-101261904D01*
X137621485Y-101261904D02*
X137621485Y-100642857D01*
X137050057Y-100309523D02*
X137002438Y-100261904D01*
X137002438Y-100261904D02*
X136954819Y-100166666D01*
X136954819Y-100166666D02*
X136954819Y-99928571D01*
X136954819Y-99928571D02*
X137002438Y-99833333D01*
X137002438Y-99833333D02*
X137050057Y-99785714D01*
X137050057Y-99785714D02*
X137145295Y-99738095D01*
X137145295Y-99738095D02*
X137240533Y-99738095D01*
X137240533Y-99738095D02*
X137383390Y-99785714D01*
X137383390Y-99785714D02*
X137954819Y-100357142D01*
X137954819Y-100357142D02*
X137954819Y-99738095D01*
X120380952Y-124157200D02*
X120523809Y-124204819D01*
X120523809Y-124204819D02*
X120761904Y-124204819D01*
X120761904Y-124204819D02*
X120857142Y-124157200D01*
X120857142Y-124157200D02*
X120904761Y-124109580D01*
X120904761Y-124109580D02*
X120952380Y-124014342D01*
X120952380Y-124014342D02*
X120952380Y-123919104D01*
X120952380Y-123919104D02*
X120904761Y-123823866D01*
X120904761Y-123823866D02*
X120857142Y-123776247D01*
X120857142Y-123776247D02*
X120761904Y-123728628D01*
X120761904Y-123728628D02*
X120571428Y-123681009D01*
X120571428Y-123681009D02*
X120476190Y-123633390D01*
X120476190Y-123633390D02*
X120428571Y-123585771D01*
X120428571Y-123585771D02*
X120380952Y-123490533D01*
X120380952Y-123490533D02*
X120380952Y-123395295D01*
X120380952Y-123395295D02*
X120428571Y-123300057D01*
X120428571Y-123300057D02*
X120476190Y-123252438D01*
X120476190Y-123252438D02*
X120571428Y-123204819D01*
X120571428Y-123204819D02*
X120809523Y-123204819D01*
X120809523Y-123204819D02*
X120952380Y-123252438D01*
X121380952Y-123681009D02*
X121714285Y-123681009D01*
X121857142Y-124204819D02*
X121380952Y-124204819D01*
X121380952Y-124204819D02*
X121380952Y-123204819D01*
X121380952Y-123204819D02*
X121857142Y-123204819D01*
X122285714Y-124204819D02*
X122285714Y-123204819D01*
X122285714Y-123204819D02*
X122857142Y-124204819D01*
X122857142Y-124204819D02*
X122857142Y-123204819D01*
X123190476Y-123204819D02*
X123761904Y-123204819D01*
X123476190Y-124204819D02*
X123476190Y-123204819D01*
X124000000Y-123204819D02*
X124619047Y-123204819D01*
X124619047Y-123204819D02*
X124285714Y-123585771D01*
X124285714Y-123585771D02*
X124428571Y-123585771D01*
X124428571Y-123585771D02*
X124523809Y-123633390D01*
X124523809Y-123633390D02*
X124571428Y-123681009D01*
X124571428Y-123681009D02*
X124619047Y-123776247D01*
X124619047Y-123776247D02*
X124619047Y-124014342D01*
X124619047Y-124014342D02*
X124571428Y-124109580D01*
X124571428Y-124109580D02*
X124523809Y-124157200D01*
X124523809Y-124157200D02*
X124428571Y-124204819D01*
X124428571Y-124204819D02*
X124142857Y-124204819D01*
X124142857Y-124204819D02*
X124047619Y-124157200D01*
X124047619Y-124157200D02*
X124000000Y-124109580D01*
X189357142Y-93279580D02*
X189309523Y-93327200D01*
X189309523Y-93327200D02*
X189166666Y-93374819D01*
X189166666Y-93374819D02*
X189071428Y-93374819D01*
X189071428Y-93374819D02*
X188928571Y-93327200D01*
X188928571Y-93327200D02*
X188833333Y-93231961D01*
X188833333Y-93231961D02*
X188785714Y-93136723D01*
X188785714Y-93136723D02*
X188738095Y-92946247D01*
X188738095Y-92946247D02*
X188738095Y-92803390D01*
X188738095Y-92803390D02*
X188785714Y-92612914D01*
X188785714Y-92612914D02*
X188833333Y-92517676D01*
X188833333Y-92517676D02*
X188928571Y-92422438D01*
X188928571Y-92422438D02*
X189071428Y-92374819D01*
X189071428Y-92374819D02*
X189166666Y-92374819D01*
X189166666Y-92374819D02*
X189309523Y-92422438D01*
X189309523Y-92422438D02*
X189357142Y-92470057D01*
X189690476Y-92374819D02*
X190357142Y-92374819D01*
X190357142Y-92374819D02*
X189928571Y-93374819D01*
X191261904Y-93374819D02*
X190690476Y-93374819D01*
X190976190Y-93374819D02*
X190976190Y-92374819D01*
X190976190Y-92374819D02*
X190880952Y-92517676D01*
X190880952Y-92517676D02*
X190785714Y-92612914D01*
X190785714Y-92612914D02*
X190690476Y-92660533D01*
X119954819Y-101642857D02*
X119478628Y-101976190D01*
X119954819Y-102214285D02*
X118954819Y-102214285D01*
X118954819Y-102214285D02*
X118954819Y-101833333D01*
X118954819Y-101833333D02*
X119002438Y-101738095D01*
X119002438Y-101738095D02*
X119050057Y-101690476D01*
X119050057Y-101690476D02*
X119145295Y-101642857D01*
X119145295Y-101642857D02*
X119288152Y-101642857D01*
X119288152Y-101642857D02*
X119383390Y-101690476D01*
X119383390Y-101690476D02*
X119431009Y-101738095D01*
X119431009Y-101738095D02*
X119478628Y-101833333D01*
X119478628Y-101833333D02*
X119478628Y-102214285D01*
X118954819Y-101309523D02*
X118954819Y-100690476D01*
X118954819Y-100690476D02*
X119335771Y-101023809D01*
X119335771Y-101023809D02*
X119335771Y-100880952D01*
X119335771Y-100880952D02*
X119383390Y-100785714D01*
X119383390Y-100785714D02*
X119431009Y-100738095D01*
X119431009Y-100738095D02*
X119526247Y-100690476D01*
X119526247Y-100690476D02*
X119764342Y-100690476D01*
X119764342Y-100690476D02*
X119859580Y-100738095D01*
X119859580Y-100738095D02*
X119907200Y-100785714D01*
X119907200Y-100785714D02*
X119954819Y-100880952D01*
X119954819Y-100880952D02*
X119954819Y-101166666D01*
X119954819Y-101166666D02*
X119907200Y-101261904D01*
X119907200Y-101261904D02*
X119859580Y-101309523D01*
X119954819Y-99738095D02*
X119954819Y-100309523D01*
X119954819Y-100023809D02*
X118954819Y-100023809D01*
X118954819Y-100023809D02*
X119097676Y-100119047D01*
X119097676Y-100119047D02*
X119192914Y-100214285D01*
X119192914Y-100214285D02*
X119240533Y-100309523D01*
X159357142Y-93279580D02*
X159309523Y-93327200D01*
X159309523Y-93327200D02*
X159166666Y-93374819D01*
X159166666Y-93374819D02*
X159071428Y-93374819D01*
X159071428Y-93374819D02*
X158928571Y-93327200D01*
X158928571Y-93327200D02*
X158833333Y-93231961D01*
X158833333Y-93231961D02*
X158785714Y-93136723D01*
X158785714Y-93136723D02*
X158738095Y-92946247D01*
X158738095Y-92946247D02*
X158738095Y-92803390D01*
X158738095Y-92803390D02*
X158785714Y-92612914D01*
X158785714Y-92612914D02*
X158833333Y-92517676D01*
X158833333Y-92517676D02*
X158928571Y-92422438D01*
X158928571Y-92422438D02*
X159071428Y-92374819D01*
X159071428Y-92374819D02*
X159166666Y-92374819D01*
X159166666Y-92374819D02*
X159309523Y-92422438D01*
X159309523Y-92422438D02*
X159357142Y-92470057D01*
X160261904Y-92374819D02*
X159785714Y-92374819D01*
X159785714Y-92374819D02*
X159738095Y-92851009D01*
X159738095Y-92851009D02*
X159785714Y-92803390D01*
X159785714Y-92803390D02*
X159880952Y-92755771D01*
X159880952Y-92755771D02*
X160119047Y-92755771D01*
X160119047Y-92755771D02*
X160214285Y-92803390D01*
X160214285Y-92803390D02*
X160261904Y-92851009D01*
X160261904Y-92851009D02*
X160309523Y-92946247D01*
X160309523Y-92946247D02*
X160309523Y-93184342D01*
X160309523Y-93184342D02*
X160261904Y-93279580D01*
X160261904Y-93279580D02*
X160214285Y-93327200D01*
X160214285Y-93327200D02*
X160119047Y-93374819D01*
X160119047Y-93374819D02*
X159880952Y-93374819D01*
X159880952Y-93374819D02*
X159785714Y-93327200D01*
X159785714Y-93327200D02*
X159738095Y-93279580D01*
X161261904Y-93374819D02*
X160690476Y-93374819D01*
X160976190Y-93374819D02*
X160976190Y-92374819D01*
X160976190Y-92374819D02*
X160880952Y-92517676D01*
X160880952Y-92517676D02*
X160785714Y-92612914D01*
X160785714Y-92612914D02*
X160690476Y-92660533D01*
X111109580Y-104212857D02*
X111157200Y-104260476D01*
X111157200Y-104260476D02*
X111204819Y-104403333D01*
X111204819Y-104403333D02*
X111204819Y-104498571D01*
X111204819Y-104498571D02*
X111157200Y-104641428D01*
X111157200Y-104641428D02*
X111061961Y-104736666D01*
X111061961Y-104736666D02*
X110966723Y-104784285D01*
X110966723Y-104784285D02*
X110776247Y-104831904D01*
X110776247Y-104831904D02*
X110633390Y-104831904D01*
X110633390Y-104831904D02*
X110442914Y-104784285D01*
X110442914Y-104784285D02*
X110347676Y-104736666D01*
X110347676Y-104736666D02*
X110252438Y-104641428D01*
X110252438Y-104641428D02*
X110204819Y-104498571D01*
X110204819Y-104498571D02*
X110204819Y-104403333D01*
X110204819Y-104403333D02*
X110252438Y-104260476D01*
X110252438Y-104260476D02*
X110300057Y-104212857D01*
X110300057Y-103831904D02*
X110252438Y-103784285D01*
X110252438Y-103784285D02*
X110204819Y-103689047D01*
X110204819Y-103689047D02*
X110204819Y-103450952D01*
X110204819Y-103450952D02*
X110252438Y-103355714D01*
X110252438Y-103355714D02*
X110300057Y-103308095D01*
X110300057Y-103308095D02*
X110395295Y-103260476D01*
X110395295Y-103260476D02*
X110490533Y-103260476D01*
X110490533Y-103260476D02*
X110633390Y-103308095D01*
X110633390Y-103308095D02*
X111204819Y-103879523D01*
X111204819Y-103879523D02*
X111204819Y-103260476D01*
X110300057Y-102879523D02*
X110252438Y-102831904D01*
X110252438Y-102831904D02*
X110204819Y-102736666D01*
X110204819Y-102736666D02*
X110204819Y-102498571D01*
X110204819Y-102498571D02*
X110252438Y-102403333D01*
X110252438Y-102403333D02*
X110300057Y-102355714D01*
X110300057Y-102355714D02*
X110395295Y-102308095D01*
X110395295Y-102308095D02*
X110490533Y-102308095D01*
X110490533Y-102308095D02*
X110633390Y-102355714D01*
X110633390Y-102355714D02*
X111204819Y-102927142D01*
X111204819Y-102927142D02*
X111204819Y-102308095D01*
X89357142Y-93279580D02*
X89309523Y-93327200D01*
X89309523Y-93327200D02*
X89166666Y-93374819D01*
X89166666Y-93374819D02*
X89071428Y-93374819D01*
X89071428Y-93374819D02*
X88928571Y-93327200D01*
X88928571Y-93327200D02*
X88833333Y-93231961D01*
X88833333Y-93231961D02*
X88785714Y-93136723D01*
X88785714Y-93136723D02*
X88738095Y-92946247D01*
X88738095Y-92946247D02*
X88738095Y-92803390D01*
X88738095Y-92803390D02*
X88785714Y-92612914D01*
X88785714Y-92612914D02*
X88833333Y-92517676D01*
X88833333Y-92517676D02*
X88928571Y-92422438D01*
X88928571Y-92422438D02*
X89071428Y-92374819D01*
X89071428Y-92374819D02*
X89166666Y-92374819D01*
X89166666Y-92374819D02*
X89309523Y-92422438D01*
X89309523Y-92422438D02*
X89357142Y-92470057D01*
X90309523Y-93374819D02*
X89738095Y-93374819D01*
X90023809Y-93374819D02*
X90023809Y-92374819D01*
X90023809Y-92374819D02*
X89928571Y-92517676D01*
X89928571Y-92517676D02*
X89833333Y-92612914D01*
X89833333Y-92612914D02*
X89738095Y-92660533D01*
X91261904Y-93374819D02*
X90690476Y-93374819D01*
X90976190Y-93374819D02*
X90976190Y-92374819D01*
X90976190Y-92374819D02*
X90880952Y-92517676D01*
X90880952Y-92517676D02*
X90785714Y-92612914D01*
X90785714Y-92612914D02*
X90690476Y-92660533D01*
X105380952Y-124157200D02*
X105523809Y-124204819D01*
X105523809Y-124204819D02*
X105761904Y-124204819D01*
X105761904Y-124204819D02*
X105857142Y-124157200D01*
X105857142Y-124157200D02*
X105904761Y-124109580D01*
X105904761Y-124109580D02*
X105952380Y-124014342D01*
X105952380Y-124014342D02*
X105952380Y-123919104D01*
X105952380Y-123919104D02*
X105904761Y-123823866D01*
X105904761Y-123823866D02*
X105857142Y-123776247D01*
X105857142Y-123776247D02*
X105761904Y-123728628D01*
X105761904Y-123728628D02*
X105571428Y-123681009D01*
X105571428Y-123681009D02*
X105476190Y-123633390D01*
X105476190Y-123633390D02*
X105428571Y-123585771D01*
X105428571Y-123585771D02*
X105380952Y-123490533D01*
X105380952Y-123490533D02*
X105380952Y-123395295D01*
X105380952Y-123395295D02*
X105428571Y-123300057D01*
X105428571Y-123300057D02*
X105476190Y-123252438D01*
X105476190Y-123252438D02*
X105571428Y-123204819D01*
X105571428Y-123204819D02*
X105809523Y-123204819D01*
X105809523Y-123204819D02*
X105952380Y-123252438D01*
X106380952Y-123681009D02*
X106714285Y-123681009D01*
X106857142Y-124204819D02*
X106380952Y-124204819D01*
X106380952Y-124204819D02*
X106380952Y-123204819D01*
X106380952Y-123204819D02*
X106857142Y-123204819D01*
X107285714Y-124204819D02*
X107285714Y-123204819D01*
X107285714Y-123204819D02*
X107857142Y-124204819D01*
X107857142Y-124204819D02*
X107857142Y-123204819D01*
X108190476Y-123204819D02*
X108761904Y-123204819D01*
X108476190Y-124204819D02*
X108476190Y-123204819D01*
X109047619Y-123300057D02*
X109095238Y-123252438D01*
X109095238Y-123252438D02*
X109190476Y-123204819D01*
X109190476Y-123204819D02*
X109428571Y-123204819D01*
X109428571Y-123204819D02*
X109523809Y-123252438D01*
X109523809Y-123252438D02*
X109571428Y-123300057D01*
X109571428Y-123300057D02*
X109619047Y-123395295D01*
X109619047Y-123395295D02*
X109619047Y-123490533D01*
X109619047Y-123490533D02*
X109571428Y-123633390D01*
X109571428Y-123633390D02*
X109000000Y-124204819D01*
X109000000Y-124204819D02*
X109619047Y-124204819D01*
X116954819Y-101642857D02*
X116478628Y-101976190D01*
X116954819Y-102214285D02*
X115954819Y-102214285D01*
X115954819Y-102214285D02*
X115954819Y-101833333D01*
X115954819Y-101833333D02*
X116002438Y-101738095D01*
X116002438Y-101738095D02*
X116050057Y-101690476D01*
X116050057Y-101690476D02*
X116145295Y-101642857D01*
X116145295Y-101642857D02*
X116288152Y-101642857D01*
X116288152Y-101642857D02*
X116383390Y-101690476D01*
X116383390Y-101690476D02*
X116431009Y-101738095D01*
X116431009Y-101738095D02*
X116478628Y-101833333D01*
X116478628Y-101833333D02*
X116478628Y-102214285D01*
X115954819Y-101309523D02*
X115954819Y-100690476D01*
X115954819Y-100690476D02*
X116335771Y-101023809D01*
X116335771Y-101023809D02*
X116335771Y-100880952D01*
X116335771Y-100880952D02*
X116383390Y-100785714D01*
X116383390Y-100785714D02*
X116431009Y-100738095D01*
X116431009Y-100738095D02*
X116526247Y-100690476D01*
X116526247Y-100690476D02*
X116764342Y-100690476D01*
X116764342Y-100690476D02*
X116859580Y-100738095D01*
X116859580Y-100738095D02*
X116907200Y-100785714D01*
X116907200Y-100785714D02*
X116954819Y-100880952D01*
X116954819Y-100880952D02*
X116954819Y-101166666D01*
X116954819Y-101166666D02*
X116907200Y-101261904D01*
X116907200Y-101261904D02*
X116859580Y-101309523D01*
X115954819Y-100357142D02*
X115954819Y-99738095D01*
X115954819Y-99738095D02*
X116335771Y-100071428D01*
X116335771Y-100071428D02*
X116335771Y-99928571D01*
X116335771Y-99928571D02*
X116383390Y-99833333D01*
X116383390Y-99833333D02*
X116431009Y-99785714D01*
X116431009Y-99785714D02*
X116526247Y-99738095D01*
X116526247Y-99738095D02*
X116764342Y-99738095D01*
X116764342Y-99738095D02*
X116859580Y-99785714D01*
X116859580Y-99785714D02*
X116907200Y-99833333D01*
X116907200Y-99833333D02*
X116954819Y-99928571D01*
X116954819Y-99928571D02*
X116954819Y-100214285D01*
X116954819Y-100214285D02*
X116907200Y-100309523D01*
X116907200Y-100309523D02*
X116859580Y-100357142D01*
X205380952Y-124157200D02*
X205523809Y-124204819D01*
X205523809Y-124204819D02*
X205761904Y-124204819D01*
X205761904Y-124204819D02*
X205857142Y-124157200D01*
X205857142Y-124157200D02*
X205904761Y-124109580D01*
X205904761Y-124109580D02*
X205952380Y-124014342D01*
X205952380Y-124014342D02*
X205952380Y-123919104D01*
X205952380Y-123919104D02*
X205904761Y-123823866D01*
X205904761Y-123823866D02*
X205857142Y-123776247D01*
X205857142Y-123776247D02*
X205761904Y-123728628D01*
X205761904Y-123728628D02*
X205571428Y-123681009D01*
X205571428Y-123681009D02*
X205476190Y-123633390D01*
X205476190Y-123633390D02*
X205428571Y-123585771D01*
X205428571Y-123585771D02*
X205380952Y-123490533D01*
X205380952Y-123490533D02*
X205380952Y-123395295D01*
X205380952Y-123395295D02*
X205428571Y-123300057D01*
X205428571Y-123300057D02*
X205476190Y-123252438D01*
X205476190Y-123252438D02*
X205571428Y-123204819D01*
X205571428Y-123204819D02*
X205809523Y-123204819D01*
X205809523Y-123204819D02*
X205952380Y-123252438D01*
X206380952Y-123681009D02*
X206714285Y-123681009D01*
X206857142Y-124204819D02*
X206380952Y-124204819D01*
X206380952Y-124204819D02*
X206380952Y-123204819D01*
X206380952Y-123204819D02*
X206857142Y-123204819D01*
X207285714Y-124204819D02*
X207285714Y-123204819D01*
X207285714Y-123204819D02*
X207857142Y-124204819D01*
X207857142Y-124204819D02*
X207857142Y-123204819D01*
X208190476Y-123204819D02*
X208761904Y-123204819D01*
X208476190Y-124204819D02*
X208476190Y-123204819D01*
X209238095Y-123633390D02*
X209142857Y-123585771D01*
X209142857Y-123585771D02*
X209095238Y-123538152D01*
X209095238Y-123538152D02*
X209047619Y-123442914D01*
X209047619Y-123442914D02*
X209047619Y-123395295D01*
X209047619Y-123395295D02*
X209095238Y-123300057D01*
X209095238Y-123300057D02*
X209142857Y-123252438D01*
X209142857Y-123252438D02*
X209238095Y-123204819D01*
X209238095Y-123204819D02*
X209428571Y-123204819D01*
X209428571Y-123204819D02*
X209523809Y-123252438D01*
X209523809Y-123252438D02*
X209571428Y-123300057D01*
X209571428Y-123300057D02*
X209619047Y-123395295D01*
X209619047Y-123395295D02*
X209619047Y-123442914D01*
X209619047Y-123442914D02*
X209571428Y-123538152D01*
X209571428Y-123538152D02*
X209523809Y-123585771D01*
X209523809Y-123585771D02*
X209428571Y-123633390D01*
X209428571Y-123633390D02*
X209238095Y-123633390D01*
X209238095Y-123633390D02*
X209142857Y-123681009D01*
X209142857Y-123681009D02*
X209095238Y-123728628D01*
X209095238Y-123728628D02*
X209047619Y-123823866D01*
X209047619Y-123823866D02*
X209047619Y-124014342D01*
X209047619Y-124014342D02*
X209095238Y-124109580D01*
X209095238Y-124109580D02*
X209142857Y-124157200D01*
X209142857Y-124157200D02*
X209238095Y-124204819D01*
X209238095Y-124204819D02*
X209428571Y-124204819D01*
X209428571Y-124204819D02*
X209523809Y-124157200D01*
X209523809Y-124157200D02*
X209571428Y-124109580D01*
X209571428Y-124109580D02*
X209619047Y-124014342D01*
X209619047Y-124014342D02*
X209619047Y-123823866D01*
X209619047Y-123823866D02*
X209571428Y-123728628D01*
X209571428Y-123728628D02*
X209523809Y-123681009D01*
X209523809Y-123681009D02*
X209428571Y-123633390D01*
X196109580Y-104237857D02*
X196157200Y-104285476D01*
X196157200Y-104285476D02*
X196204819Y-104428333D01*
X196204819Y-104428333D02*
X196204819Y-104523571D01*
X196204819Y-104523571D02*
X196157200Y-104666428D01*
X196157200Y-104666428D02*
X196061961Y-104761666D01*
X196061961Y-104761666D02*
X195966723Y-104809285D01*
X195966723Y-104809285D02*
X195776247Y-104856904D01*
X195776247Y-104856904D02*
X195633390Y-104856904D01*
X195633390Y-104856904D02*
X195442914Y-104809285D01*
X195442914Y-104809285D02*
X195347676Y-104761666D01*
X195347676Y-104761666D02*
X195252438Y-104666428D01*
X195252438Y-104666428D02*
X195204819Y-104523571D01*
X195204819Y-104523571D02*
X195204819Y-104428333D01*
X195204819Y-104428333D02*
X195252438Y-104285476D01*
X195252438Y-104285476D02*
X195300057Y-104237857D01*
X195204819Y-103904523D02*
X195204819Y-103237857D01*
X195204819Y-103237857D02*
X196204819Y-103666428D01*
X195300057Y-102904523D02*
X195252438Y-102856904D01*
X195252438Y-102856904D02*
X195204819Y-102761666D01*
X195204819Y-102761666D02*
X195204819Y-102523571D01*
X195204819Y-102523571D02*
X195252438Y-102428333D01*
X195252438Y-102428333D02*
X195300057Y-102380714D01*
X195300057Y-102380714D02*
X195395295Y-102333095D01*
X195395295Y-102333095D02*
X195490533Y-102333095D01*
X195490533Y-102333095D02*
X195633390Y-102380714D01*
X195633390Y-102380714D02*
X196204819Y-102952142D01*
X196204819Y-102952142D02*
X196204819Y-102333095D01*
X122954819Y-101642857D02*
X122478628Y-101976190D01*
X122954819Y-102214285D02*
X121954819Y-102214285D01*
X121954819Y-102214285D02*
X121954819Y-101833333D01*
X121954819Y-101833333D02*
X122002438Y-101738095D01*
X122002438Y-101738095D02*
X122050057Y-101690476D01*
X122050057Y-101690476D02*
X122145295Y-101642857D01*
X122145295Y-101642857D02*
X122288152Y-101642857D01*
X122288152Y-101642857D02*
X122383390Y-101690476D01*
X122383390Y-101690476D02*
X122431009Y-101738095D01*
X122431009Y-101738095D02*
X122478628Y-101833333D01*
X122478628Y-101833333D02*
X122478628Y-102214285D01*
X121954819Y-101309523D02*
X121954819Y-100690476D01*
X121954819Y-100690476D02*
X122335771Y-101023809D01*
X122335771Y-101023809D02*
X122335771Y-100880952D01*
X122335771Y-100880952D02*
X122383390Y-100785714D01*
X122383390Y-100785714D02*
X122431009Y-100738095D01*
X122431009Y-100738095D02*
X122526247Y-100690476D01*
X122526247Y-100690476D02*
X122764342Y-100690476D01*
X122764342Y-100690476D02*
X122859580Y-100738095D01*
X122859580Y-100738095D02*
X122907200Y-100785714D01*
X122907200Y-100785714D02*
X122954819Y-100880952D01*
X122954819Y-100880952D02*
X122954819Y-101166666D01*
X122954819Y-101166666D02*
X122907200Y-101261904D01*
X122907200Y-101261904D02*
X122859580Y-101309523D01*
X122050057Y-100309523D02*
X122002438Y-100261904D01*
X122002438Y-100261904D02*
X121954819Y-100166666D01*
X121954819Y-100166666D02*
X121954819Y-99928571D01*
X121954819Y-99928571D02*
X122002438Y-99833333D01*
X122002438Y-99833333D02*
X122050057Y-99785714D01*
X122050057Y-99785714D02*
X122145295Y-99738095D01*
X122145295Y-99738095D02*
X122240533Y-99738095D01*
X122240533Y-99738095D02*
X122383390Y-99785714D01*
X122383390Y-99785714D02*
X122954819Y-100357142D01*
X122954819Y-100357142D02*
X122954819Y-99738095D01*
X211109580Y-104242857D02*
X211157200Y-104290476D01*
X211157200Y-104290476D02*
X211204819Y-104433333D01*
X211204819Y-104433333D02*
X211204819Y-104528571D01*
X211204819Y-104528571D02*
X211157200Y-104671428D01*
X211157200Y-104671428D02*
X211061961Y-104766666D01*
X211061961Y-104766666D02*
X210966723Y-104814285D01*
X210966723Y-104814285D02*
X210776247Y-104861904D01*
X210776247Y-104861904D02*
X210633390Y-104861904D01*
X210633390Y-104861904D02*
X210442914Y-104814285D01*
X210442914Y-104814285D02*
X210347676Y-104766666D01*
X210347676Y-104766666D02*
X210252438Y-104671428D01*
X210252438Y-104671428D02*
X210204819Y-104528571D01*
X210204819Y-104528571D02*
X210204819Y-104433333D01*
X210204819Y-104433333D02*
X210252438Y-104290476D01*
X210252438Y-104290476D02*
X210300057Y-104242857D01*
X210633390Y-103671428D02*
X210585771Y-103766666D01*
X210585771Y-103766666D02*
X210538152Y-103814285D01*
X210538152Y-103814285D02*
X210442914Y-103861904D01*
X210442914Y-103861904D02*
X210395295Y-103861904D01*
X210395295Y-103861904D02*
X210300057Y-103814285D01*
X210300057Y-103814285D02*
X210252438Y-103766666D01*
X210252438Y-103766666D02*
X210204819Y-103671428D01*
X210204819Y-103671428D02*
X210204819Y-103480952D01*
X210204819Y-103480952D02*
X210252438Y-103385714D01*
X210252438Y-103385714D02*
X210300057Y-103338095D01*
X210300057Y-103338095D02*
X210395295Y-103290476D01*
X210395295Y-103290476D02*
X210442914Y-103290476D01*
X210442914Y-103290476D02*
X210538152Y-103338095D01*
X210538152Y-103338095D02*
X210585771Y-103385714D01*
X210585771Y-103385714D02*
X210633390Y-103480952D01*
X210633390Y-103480952D02*
X210633390Y-103671428D01*
X210633390Y-103671428D02*
X210681009Y-103766666D01*
X210681009Y-103766666D02*
X210728628Y-103814285D01*
X210728628Y-103814285D02*
X210823866Y-103861904D01*
X210823866Y-103861904D02*
X211014342Y-103861904D01*
X211014342Y-103861904D02*
X211109580Y-103814285D01*
X211109580Y-103814285D02*
X211157200Y-103766666D01*
X211157200Y-103766666D02*
X211204819Y-103671428D01*
X211204819Y-103671428D02*
X211204819Y-103480952D01*
X211204819Y-103480952D02*
X211157200Y-103385714D01*
X211157200Y-103385714D02*
X211109580Y-103338095D01*
X211109580Y-103338095D02*
X211014342Y-103290476D01*
X211014342Y-103290476D02*
X210823866Y-103290476D01*
X210823866Y-103290476D02*
X210728628Y-103338095D01*
X210728628Y-103338095D02*
X210681009Y-103385714D01*
X210681009Y-103385714D02*
X210633390Y-103480952D01*
X210300057Y-102909523D02*
X210252438Y-102861904D01*
X210252438Y-102861904D02*
X210204819Y-102766666D01*
X210204819Y-102766666D02*
X210204819Y-102528571D01*
X210204819Y-102528571D02*
X210252438Y-102433333D01*
X210252438Y-102433333D02*
X210300057Y-102385714D01*
X210300057Y-102385714D02*
X210395295Y-102338095D01*
X210395295Y-102338095D02*
X210490533Y-102338095D01*
X210490533Y-102338095D02*
X210633390Y-102385714D01*
X210633390Y-102385714D02*
X211204819Y-102957142D01*
X211204819Y-102957142D02*
X211204819Y-102338095D01*
X104954819Y-101642857D02*
X104478628Y-101976190D01*
X104954819Y-102214285D02*
X103954819Y-102214285D01*
X103954819Y-102214285D02*
X103954819Y-101833333D01*
X103954819Y-101833333D02*
X104002438Y-101738095D01*
X104002438Y-101738095D02*
X104050057Y-101690476D01*
X104050057Y-101690476D02*
X104145295Y-101642857D01*
X104145295Y-101642857D02*
X104288152Y-101642857D01*
X104288152Y-101642857D02*
X104383390Y-101690476D01*
X104383390Y-101690476D02*
X104431009Y-101738095D01*
X104431009Y-101738095D02*
X104478628Y-101833333D01*
X104478628Y-101833333D02*
X104478628Y-102214285D01*
X104050057Y-101261904D02*
X104002438Y-101214285D01*
X104002438Y-101214285D02*
X103954819Y-101119047D01*
X103954819Y-101119047D02*
X103954819Y-100880952D01*
X103954819Y-100880952D02*
X104002438Y-100785714D01*
X104002438Y-100785714D02*
X104050057Y-100738095D01*
X104050057Y-100738095D02*
X104145295Y-100690476D01*
X104145295Y-100690476D02*
X104240533Y-100690476D01*
X104240533Y-100690476D02*
X104383390Y-100738095D01*
X104383390Y-100738095D02*
X104954819Y-101309523D01*
X104954819Y-101309523D02*
X104954819Y-100690476D01*
X104954819Y-99738095D02*
X104954819Y-100309523D01*
X104954819Y-100023809D02*
X103954819Y-100023809D01*
X103954819Y-100023809D02*
X104097676Y-100119047D01*
X104097676Y-100119047D02*
X104192914Y-100214285D01*
X104192914Y-100214285D02*
X104240533Y-100309523D01*
X207954819Y-101642857D02*
X207478628Y-101976190D01*
X207954819Y-102214285D02*
X206954819Y-102214285D01*
X206954819Y-102214285D02*
X206954819Y-101833333D01*
X206954819Y-101833333D02*
X207002438Y-101738095D01*
X207002438Y-101738095D02*
X207050057Y-101690476D01*
X207050057Y-101690476D02*
X207145295Y-101642857D01*
X207145295Y-101642857D02*
X207288152Y-101642857D01*
X207288152Y-101642857D02*
X207383390Y-101690476D01*
X207383390Y-101690476D02*
X207431009Y-101738095D01*
X207431009Y-101738095D02*
X207478628Y-101833333D01*
X207478628Y-101833333D02*
X207478628Y-102214285D01*
X207383390Y-101071428D02*
X207335771Y-101166666D01*
X207335771Y-101166666D02*
X207288152Y-101214285D01*
X207288152Y-101214285D02*
X207192914Y-101261904D01*
X207192914Y-101261904D02*
X207145295Y-101261904D01*
X207145295Y-101261904D02*
X207050057Y-101214285D01*
X207050057Y-101214285D02*
X207002438Y-101166666D01*
X207002438Y-101166666D02*
X206954819Y-101071428D01*
X206954819Y-101071428D02*
X206954819Y-100880952D01*
X206954819Y-100880952D02*
X207002438Y-100785714D01*
X207002438Y-100785714D02*
X207050057Y-100738095D01*
X207050057Y-100738095D02*
X207145295Y-100690476D01*
X207145295Y-100690476D02*
X207192914Y-100690476D01*
X207192914Y-100690476D02*
X207288152Y-100738095D01*
X207288152Y-100738095D02*
X207335771Y-100785714D01*
X207335771Y-100785714D02*
X207383390Y-100880952D01*
X207383390Y-100880952D02*
X207383390Y-101071428D01*
X207383390Y-101071428D02*
X207431009Y-101166666D01*
X207431009Y-101166666D02*
X207478628Y-101214285D01*
X207478628Y-101214285D02*
X207573866Y-101261904D01*
X207573866Y-101261904D02*
X207764342Y-101261904D01*
X207764342Y-101261904D02*
X207859580Y-101214285D01*
X207859580Y-101214285D02*
X207907200Y-101166666D01*
X207907200Y-101166666D02*
X207954819Y-101071428D01*
X207954819Y-101071428D02*
X207954819Y-100880952D01*
X207954819Y-100880952D02*
X207907200Y-100785714D01*
X207907200Y-100785714D02*
X207859580Y-100738095D01*
X207859580Y-100738095D02*
X207764342Y-100690476D01*
X207764342Y-100690476D02*
X207573866Y-100690476D01*
X207573866Y-100690476D02*
X207478628Y-100738095D01*
X207478628Y-100738095D02*
X207431009Y-100785714D01*
X207431009Y-100785714D02*
X207383390Y-100880952D01*
X207050057Y-100309523D02*
X207002438Y-100261904D01*
X207002438Y-100261904D02*
X206954819Y-100166666D01*
X206954819Y-100166666D02*
X206954819Y-99928571D01*
X206954819Y-99928571D02*
X207002438Y-99833333D01*
X207002438Y-99833333D02*
X207050057Y-99785714D01*
X207050057Y-99785714D02*
X207145295Y-99738095D01*
X207145295Y-99738095D02*
X207240533Y-99738095D01*
X207240533Y-99738095D02*
X207383390Y-99785714D01*
X207383390Y-99785714D02*
X207954819Y-100357142D01*
X207954819Y-100357142D02*
X207954819Y-99738095D01*
X131954819Y-116794285D02*
X130954819Y-116794285D01*
X130954819Y-116794285D02*
X130954819Y-116556190D01*
X130954819Y-116556190D02*
X131002438Y-116413333D01*
X131002438Y-116413333D02*
X131097676Y-116318095D01*
X131097676Y-116318095D02*
X131192914Y-116270476D01*
X131192914Y-116270476D02*
X131383390Y-116222857D01*
X131383390Y-116222857D02*
X131526247Y-116222857D01*
X131526247Y-116222857D02*
X131716723Y-116270476D01*
X131716723Y-116270476D02*
X131811961Y-116318095D01*
X131811961Y-116318095D02*
X131907200Y-116413333D01*
X131907200Y-116413333D02*
X131954819Y-116556190D01*
X131954819Y-116556190D02*
X131954819Y-116794285D01*
X131288152Y-115365714D02*
X131954819Y-115365714D01*
X130907200Y-115603809D02*
X131621485Y-115841904D01*
X131621485Y-115841904D02*
X131621485Y-115222857D01*
X130954819Y-114651428D02*
X130954819Y-114556190D01*
X130954819Y-114556190D02*
X131002438Y-114460952D01*
X131002438Y-114460952D02*
X131050057Y-114413333D01*
X131050057Y-114413333D02*
X131145295Y-114365714D01*
X131145295Y-114365714D02*
X131335771Y-114318095D01*
X131335771Y-114318095D02*
X131573866Y-114318095D01*
X131573866Y-114318095D02*
X131764342Y-114365714D01*
X131764342Y-114365714D02*
X131859580Y-114413333D01*
X131859580Y-114413333D02*
X131907200Y-114460952D01*
X131907200Y-114460952D02*
X131954819Y-114556190D01*
X131954819Y-114556190D02*
X131954819Y-114651428D01*
X131954819Y-114651428D02*
X131907200Y-114746666D01*
X131907200Y-114746666D02*
X131859580Y-114794285D01*
X131859580Y-114794285D02*
X131764342Y-114841904D01*
X131764342Y-114841904D02*
X131573866Y-114889523D01*
X131573866Y-114889523D02*
X131335771Y-114889523D01*
X131335771Y-114889523D02*
X131145295Y-114841904D01*
X131145295Y-114841904D02*
X131050057Y-114794285D01*
X131050057Y-114794285D02*
X131002438Y-114746666D01*
X131002438Y-114746666D02*
X130954819Y-114651428D01*
X177954819Y-101642857D02*
X177478628Y-101976190D01*
X177954819Y-102214285D02*
X176954819Y-102214285D01*
X176954819Y-102214285D02*
X176954819Y-101833333D01*
X176954819Y-101833333D02*
X177002438Y-101738095D01*
X177002438Y-101738095D02*
X177050057Y-101690476D01*
X177050057Y-101690476D02*
X177145295Y-101642857D01*
X177145295Y-101642857D02*
X177288152Y-101642857D01*
X177288152Y-101642857D02*
X177383390Y-101690476D01*
X177383390Y-101690476D02*
X177431009Y-101738095D01*
X177431009Y-101738095D02*
X177478628Y-101833333D01*
X177478628Y-101833333D02*
X177478628Y-102214285D01*
X176954819Y-100785714D02*
X176954819Y-100976190D01*
X176954819Y-100976190D02*
X177002438Y-101071428D01*
X177002438Y-101071428D02*
X177050057Y-101119047D01*
X177050057Y-101119047D02*
X177192914Y-101214285D01*
X177192914Y-101214285D02*
X177383390Y-101261904D01*
X177383390Y-101261904D02*
X177764342Y-101261904D01*
X177764342Y-101261904D02*
X177859580Y-101214285D01*
X177859580Y-101214285D02*
X177907200Y-101166666D01*
X177907200Y-101166666D02*
X177954819Y-101071428D01*
X177954819Y-101071428D02*
X177954819Y-100880952D01*
X177954819Y-100880952D02*
X177907200Y-100785714D01*
X177907200Y-100785714D02*
X177859580Y-100738095D01*
X177859580Y-100738095D02*
X177764342Y-100690476D01*
X177764342Y-100690476D02*
X177526247Y-100690476D01*
X177526247Y-100690476D02*
X177431009Y-100738095D01*
X177431009Y-100738095D02*
X177383390Y-100785714D01*
X177383390Y-100785714D02*
X177335771Y-100880952D01*
X177335771Y-100880952D02*
X177335771Y-101071428D01*
X177335771Y-101071428D02*
X177383390Y-101166666D01*
X177383390Y-101166666D02*
X177431009Y-101214285D01*
X177431009Y-101214285D02*
X177526247Y-101261904D01*
X177050057Y-100309523D02*
X177002438Y-100261904D01*
X177002438Y-100261904D02*
X176954819Y-100166666D01*
X176954819Y-100166666D02*
X176954819Y-99928571D01*
X176954819Y-99928571D02*
X177002438Y-99833333D01*
X177002438Y-99833333D02*
X177050057Y-99785714D01*
X177050057Y-99785714D02*
X177145295Y-99738095D01*
X177145295Y-99738095D02*
X177240533Y-99738095D01*
X177240533Y-99738095D02*
X177383390Y-99785714D01*
X177383390Y-99785714D02*
X177954819Y-100357142D01*
X177954819Y-100357142D02*
X177954819Y-99738095D01*
X90380952Y-124157200D02*
X90523809Y-124204819D01*
X90523809Y-124204819D02*
X90761904Y-124204819D01*
X90761904Y-124204819D02*
X90857142Y-124157200D01*
X90857142Y-124157200D02*
X90904761Y-124109580D01*
X90904761Y-124109580D02*
X90952380Y-124014342D01*
X90952380Y-124014342D02*
X90952380Y-123919104D01*
X90952380Y-123919104D02*
X90904761Y-123823866D01*
X90904761Y-123823866D02*
X90857142Y-123776247D01*
X90857142Y-123776247D02*
X90761904Y-123728628D01*
X90761904Y-123728628D02*
X90571428Y-123681009D01*
X90571428Y-123681009D02*
X90476190Y-123633390D01*
X90476190Y-123633390D02*
X90428571Y-123585771D01*
X90428571Y-123585771D02*
X90380952Y-123490533D01*
X90380952Y-123490533D02*
X90380952Y-123395295D01*
X90380952Y-123395295D02*
X90428571Y-123300057D01*
X90428571Y-123300057D02*
X90476190Y-123252438D01*
X90476190Y-123252438D02*
X90571428Y-123204819D01*
X90571428Y-123204819D02*
X90809523Y-123204819D01*
X90809523Y-123204819D02*
X90952380Y-123252438D01*
X91380952Y-123681009D02*
X91714285Y-123681009D01*
X91857142Y-124204819D02*
X91380952Y-124204819D01*
X91380952Y-124204819D02*
X91380952Y-123204819D01*
X91380952Y-123204819D02*
X91857142Y-123204819D01*
X92285714Y-124204819D02*
X92285714Y-123204819D01*
X92285714Y-123204819D02*
X92857142Y-124204819D01*
X92857142Y-124204819D02*
X92857142Y-123204819D01*
X93190476Y-123204819D02*
X93761904Y-123204819D01*
X93476190Y-124204819D02*
X93476190Y-123204819D01*
X94619047Y-124204819D02*
X94047619Y-124204819D01*
X94333333Y-124204819D02*
X94333333Y-123204819D01*
X94333333Y-123204819D02*
X94238095Y-123347676D01*
X94238095Y-123347676D02*
X94142857Y-123442914D01*
X94142857Y-123442914D02*
X94047619Y-123490533D01*
X141109580Y-104242857D02*
X141157200Y-104290476D01*
X141157200Y-104290476D02*
X141204819Y-104433333D01*
X141204819Y-104433333D02*
X141204819Y-104528571D01*
X141204819Y-104528571D02*
X141157200Y-104671428D01*
X141157200Y-104671428D02*
X141061961Y-104766666D01*
X141061961Y-104766666D02*
X140966723Y-104814285D01*
X140966723Y-104814285D02*
X140776247Y-104861904D01*
X140776247Y-104861904D02*
X140633390Y-104861904D01*
X140633390Y-104861904D02*
X140442914Y-104814285D01*
X140442914Y-104814285D02*
X140347676Y-104766666D01*
X140347676Y-104766666D02*
X140252438Y-104671428D01*
X140252438Y-104671428D02*
X140204819Y-104528571D01*
X140204819Y-104528571D02*
X140204819Y-104433333D01*
X140204819Y-104433333D02*
X140252438Y-104290476D01*
X140252438Y-104290476D02*
X140300057Y-104242857D01*
X140538152Y-103385714D02*
X141204819Y-103385714D01*
X140157200Y-103623809D02*
X140871485Y-103861904D01*
X140871485Y-103861904D02*
X140871485Y-103242857D01*
X140300057Y-102909523D02*
X140252438Y-102861904D01*
X140252438Y-102861904D02*
X140204819Y-102766666D01*
X140204819Y-102766666D02*
X140204819Y-102528571D01*
X140204819Y-102528571D02*
X140252438Y-102433333D01*
X140252438Y-102433333D02*
X140300057Y-102385714D01*
X140300057Y-102385714D02*
X140395295Y-102338095D01*
X140395295Y-102338095D02*
X140490533Y-102338095D01*
X140490533Y-102338095D02*
X140633390Y-102385714D01*
X140633390Y-102385714D02*
X141204819Y-102957142D01*
X141204819Y-102957142D02*
X141204819Y-102338095D01*
X175380952Y-124157200D02*
X175523809Y-124204819D01*
X175523809Y-124204819D02*
X175761904Y-124204819D01*
X175761904Y-124204819D02*
X175857142Y-124157200D01*
X175857142Y-124157200D02*
X175904761Y-124109580D01*
X175904761Y-124109580D02*
X175952380Y-124014342D01*
X175952380Y-124014342D02*
X175952380Y-123919104D01*
X175952380Y-123919104D02*
X175904761Y-123823866D01*
X175904761Y-123823866D02*
X175857142Y-123776247D01*
X175857142Y-123776247D02*
X175761904Y-123728628D01*
X175761904Y-123728628D02*
X175571428Y-123681009D01*
X175571428Y-123681009D02*
X175476190Y-123633390D01*
X175476190Y-123633390D02*
X175428571Y-123585771D01*
X175428571Y-123585771D02*
X175380952Y-123490533D01*
X175380952Y-123490533D02*
X175380952Y-123395295D01*
X175380952Y-123395295D02*
X175428571Y-123300057D01*
X175428571Y-123300057D02*
X175476190Y-123252438D01*
X175476190Y-123252438D02*
X175571428Y-123204819D01*
X175571428Y-123204819D02*
X175809523Y-123204819D01*
X175809523Y-123204819D02*
X175952380Y-123252438D01*
X176380952Y-123681009D02*
X176714285Y-123681009D01*
X176857142Y-124204819D02*
X176380952Y-124204819D01*
X176380952Y-124204819D02*
X176380952Y-123204819D01*
X176380952Y-123204819D02*
X176857142Y-123204819D01*
X177285714Y-124204819D02*
X177285714Y-123204819D01*
X177285714Y-123204819D02*
X177857142Y-124204819D01*
X177857142Y-124204819D02*
X177857142Y-123204819D01*
X178190476Y-123204819D02*
X178761904Y-123204819D01*
X178476190Y-124204819D02*
X178476190Y-123204819D01*
X179523809Y-123204819D02*
X179333333Y-123204819D01*
X179333333Y-123204819D02*
X179238095Y-123252438D01*
X179238095Y-123252438D02*
X179190476Y-123300057D01*
X179190476Y-123300057D02*
X179095238Y-123442914D01*
X179095238Y-123442914D02*
X179047619Y-123633390D01*
X179047619Y-123633390D02*
X179047619Y-124014342D01*
X179047619Y-124014342D02*
X179095238Y-124109580D01*
X179095238Y-124109580D02*
X179142857Y-124157200D01*
X179142857Y-124157200D02*
X179238095Y-124204819D01*
X179238095Y-124204819D02*
X179428571Y-124204819D01*
X179428571Y-124204819D02*
X179523809Y-124157200D01*
X179523809Y-124157200D02*
X179571428Y-124109580D01*
X179571428Y-124109580D02*
X179619047Y-124014342D01*
X179619047Y-124014342D02*
X179619047Y-123776247D01*
X179619047Y-123776247D02*
X179571428Y-123681009D01*
X179571428Y-123681009D02*
X179523809Y-123633390D01*
X179523809Y-123633390D02*
X179428571Y-123585771D01*
X179428571Y-123585771D02*
X179238095Y-123585771D01*
X179238095Y-123585771D02*
X179142857Y-123633390D01*
X179142857Y-123633390D02*
X179095238Y-123681009D01*
X179095238Y-123681009D02*
X179047619Y-123776247D01*
X101954819Y-101642857D02*
X101478628Y-101976190D01*
X101954819Y-102214285D02*
X100954819Y-102214285D01*
X100954819Y-102214285D02*
X100954819Y-101833333D01*
X100954819Y-101833333D02*
X101002438Y-101738095D01*
X101002438Y-101738095D02*
X101050057Y-101690476D01*
X101050057Y-101690476D02*
X101145295Y-101642857D01*
X101145295Y-101642857D02*
X101288152Y-101642857D01*
X101288152Y-101642857D02*
X101383390Y-101690476D01*
X101383390Y-101690476D02*
X101431009Y-101738095D01*
X101431009Y-101738095D02*
X101478628Y-101833333D01*
X101478628Y-101833333D02*
X101478628Y-102214285D01*
X101050057Y-101261904D02*
X101002438Y-101214285D01*
X101002438Y-101214285D02*
X100954819Y-101119047D01*
X100954819Y-101119047D02*
X100954819Y-100880952D01*
X100954819Y-100880952D02*
X101002438Y-100785714D01*
X101002438Y-100785714D02*
X101050057Y-100738095D01*
X101050057Y-100738095D02*
X101145295Y-100690476D01*
X101145295Y-100690476D02*
X101240533Y-100690476D01*
X101240533Y-100690476D02*
X101383390Y-100738095D01*
X101383390Y-100738095D02*
X101954819Y-101309523D01*
X101954819Y-101309523D02*
X101954819Y-100690476D01*
X100954819Y-100357142D02*
X100954819Y-99738095D01*
X100954819Y-99738095D02*
X101335771Y-100071428D01*
X101335771Y-100071428D02*
X101335771Y-99928571D01*
X101335771Y-99928571D02*
X101383390Y-99833333D01*
X101383390Y-99833333D02*
X101431009Y-99785714D01*
X101431009Y-99785714D02*
X101526247Y-99738095D01*
X101526247Y-99738095D02*
X101764342Y-99738095D01*
X101764342Y-99738095D02*
X101859580Y-99785714D01*
X101859580Y-99785714D02*
X101907200Y-99833333D01*
X101907200Y-99833333D02*
X101954819Y-99928571D01*
X101954819Y-99928571D02*
X101954819Y-100214285D01*
X101954819Y-100214285D02*
X101907200Y-100309523D01*
X101907200Y-100309523D02*
X101859580Y-100357142D01*
X159416666Y-88204819D02*
X159416666Y-88919104D01*
X159416666Y-88919104D02*
X159369047Y-89061961D01*
X159369047Y-89061961D02*
X159273809Y-89157200D01*
X159273809Y-89157200D02*
X159130952Y-89204819D01*
X159130952Y-89204819D02*
X159035714Y-89204819D01*
X159892857Y-89204819D02*
X159892857Y-88204819D01*
X159892857Y-88204819D02*
X160273809Y-88204819D01*
X160273809Y-88204819D02*
X160369047Y-88252438D01*
X160369047Y-88252438D02*
X160416666Y-88300057D01*
X160416666Y-88300057D02*
X160464285Y-88395295D01*
X160464285Y-88395295D02*
X160464285Y-88538152D01*
X160464285Y-88538152D02*
X160416666Y-88633390D01*
X160416666Y-88633390D02*
X160369047Y-88681009D01*
X160369047Y-88681009D02*
X160273809Y-88728628D01*
X160273809Y-88728628D02*
X159892857Y-88728628D01*
X160845238Y-88300057D02*
X160892857Y-88252438D01*
X160892857Y-88252438D02*
X160988095Y-88204819D01*
X160988095Y-88204819D02*
X161226190Y-88204819D01*
X161226190Y-88204819D02*
X161321428Y-88252438D01*
X161321428Y-88252438D02*
X161369047Y-88300057D01*
X161369047Y-88300057D02*
X161416666Y-88395295D01*
X161416666Y-88395295D02*
X161416666Y-88490533D01*
X161416666Y-88490533D02*
X161369047Y-88633390D01*
X161369047Y-88633390D02*
X160797619Y-89204819D01*
X160797619Y-89204819D02*
X161416666Y-89204819D01*
X134954819Y-101642857D02*
X134478628Y-101976190D01*
X134954819Y-102214285D02*
X133954819Y-102214285D01*
X133954819Y-102214285D02*
X133954819Y-101833333D01*
X133954819Y-101833333D02*
X134002438Y-101738095D01*
X134002438Y-101738095D02*
X134050057Y-101690476D01*
X134050057Y-101690476D02*
X134145295Y-101642857D01*
X134145295Y-101642857D02*
X134288152Y-101642857D01*
X134288152Y-101642857D02*
X134383390Y-101690476D01*
X134383390Y-101690476D02*
X134431009Y-101738095D01*
X134431009Y-101738095D02*
X134478628Y-101833333D01*
X134478628Y-101833333D02*
X134478628Y-102214285D01*
X134288152Y-100785714D02*
X134954819Y-100785714D01*
X133907200Y-101023809D02*
X134621485Y-101261904D01*
X134621485Y-101261904D02*
X134621485Y-100642857D01*
X134954819Y-99738095D02*
X134954819Y-100309523D01*
X134954819Y-100023809D02*
X133954819Y-100023809D01*
X133954819Y-100023809D02*
X134097676Y-100119047D01*
X134097676Y-100119047D02*
X134192914Y-100214285D01*
X134192914Y-100214285D02*
X134240533Y-100309523D01*
X166109580Y-104212857D02*
X166157200Y-104260476D01*
X166157200Y-104260476D02*
X166204819Y-104403333D01*
X166204819Y-104403333D02*
X166204819Y-104498571D01*
X166204819Y-104498571D02*
X166157200Y-104641428D01*
X166157200Y-104641428D02*
X166061961Y-104736666D01*
X166061961Y-104736666D02*
X165966723Y-104784285D01*
X165966723Y-104784285D02*
X165776247Y-104831904D01*
X165776247Y-104831904D02*
X165633390Y-104831904D01*
X165633390Y-104831904D02*
X165442914Y-104784285D01*
X165442914Y-104784285D02*
X165347676Y-104736666D01*
X165347676Y-104736666D02*
X165252438Y-104641428D01*
X165252438Y-104641428D02*
X165204819Y-104498571D01*
X165204819Y-104498571D02*
X165204819Y-104403333D01*
X165204819Y-104403333D02*
X165252438Y-104260476D01*
X165252438Y-104260476D02*
X165300057Y-104212857D01*
X165204819Y-103308095D02*
X165204819Y-103784285D01*
X165204819Y-103784285D02*
X165681009Y-103831904D01*
X165681009Y-103831904D02*
X165633390Y-103784285D01*
X165633390Y-103784285D02*
X165585771Y-103689047D01*
X165585771Y-103689047D02*
X165585771Y-103450952D01*
X165585771Y-103450952D02*
X165633390Y-103355714D01*
X165633390Y-103355714D02*
X165681009Y-103308095D01*
X165681009Y-103308095D02*
X165776247Y-103260476D01*
X165776247Y-103260476D02*
X166014342Y-103260476D01*
X166014342Y-103260476D02*
X166109580Y-103308095D01*
X166109580Y-103308095D02*
X166157200Y-103355714D01*
X166157200Y-103355714D02*
X166204819Y-103450952D01*
X166204819Y-103450952D02*
X166204819Y-103689047D01*
X166204819Y-103689047D02*
X166157200Y-103784285D01*
X166157200Y-103784285D02*
X166109580Y-103831904D01*
X165300057Y-102879523D02*
X165252438Y-102831904D01*
X165252438Y-102831904D02*
X165204819Y-102736666D01*
X165204819Y-102736666D02*
X165204819Y-102498571D01*
X165204819Y-102498571D02*
X165252438Y-102403333D01*
X165252438Y-102403333D02*
X165300057Y-102355714D01*
X165300057Y-102355714D02*
X165395295Y-102308095D01*
X165395295Y-102308095D02*
X165490533Y-102308095D01*
X165490533Y-102308095D02*
X165633390Y-102355714D01*
X165633390Y-102355714D02*
X166204819Y-102927142D01*
X166204819Y-102927142D02*
X166204819Y-102308095D01*
X92954819Y-101642857D02*
X92478628Y-101976190D01*
X92954819Y-102214285D02*
X91954819Y-102214285D01*
X91954819Y-102214285D02*
X91954819Y-101833333D01*
X91954819Y-101833333D02*
X92002438Y-101738095D01*
X92002438Y-101738095D02*
X92050057Y-101690476D01*
X92050057Y-101690476D02*
X92145295Y-101642857D01*
X92145295Y-101642857D02*
X92288152Y-101642857D01*
X92288152Y-101642857D02*
X92383390Y-101690476D01*
X92383390Y-101690476D02*
X92431009Y-101738095D01*
X92431009Y-101738095D02*
X92478628Y-101833333D01*
X92478628Y-101833333D02*
X92478628Y-102214285D01*
X92954819Y-100690476D02*
X92954819Y-101261904D01*
X92954819Y-100976190D02*
X91954819Y-100976190D01*
X91954819Y-100976190D02*
X92097676Y-101071428D01*
X92097676Y-101071428D02*
X92192914Y-101166666D01*
X92192914Y-101166666D02*
X92240533Y-101261904D01*
X92050057Y-100309523D02*
X92002438Y-100261904D01*
X92002438Y-100261904D02*
X91954819Y-100166666D01*
X91954819Y-100166666D02*
X91954819Y-99928571D01*
X91954819Y-99928571D02*
X92002438Y-99833333D01*
X92002438Y-99833333D02*
X92050057Y-99785714D01*
X92050057Y-99785714D02*
X92145295Y-99738095D01*
X92145295Y-99738095D02*
X92240533Y-99738095D01*
X92240533Y-99738095D02*
X92383390Y-99785714D01*
X92383390Y-99785714D02*
X92954819Y-100357142D01*
X92954819Y-100357142D02*
X92954819Y-99738095D01*
X89954819Y-101642857D02*
X89478628Y-101976190D01*
X89954819Y-102214285D02*
X88954819Y-102214285D01*
X88954819Y-102214285D02*
X88954819Y-101833333D01*
X88954819Y-101833333D02*
X89002438Y-101738095D01*
X89002438Y-101738095D02*
X89050057Y-101690476D01*
X89050057Y-101690476D02*
X89145295Y-101642857D01*
X89145295Y-101642857D02*
X89288152Y-101642857D01*
X89288152Y-101642857D02*
X89383390Y-101690476D01*
X89383390Y-101690476D02*
X89431009Y-101738095D01*
X89431009Y-101738095D02*
X89478628Y-101833333D01*
X89478628Y-101833333D02*
X89478628Y-102214285D01*
X89954819Y-100690476D02*
X89954819Y-101261904D01*
X89954819Y-100976190D02*
X88954819Y-100976190D01*
X88954819Y-100976190D02*
X89097676Y-101071428D01*
X89097676Y-101071428D02*
X89192914Y-101166666D01*
X89192914Y-101166666D02*
X89240533Y-101261904D01*
X89954819Y-99738095D02*
X89954819Y-100309523D01*
X89954819Y-100023809D02*
X88954819Y-100023809D01*
X88954819Y-100023809D02*
X89097676Y-100119047D01*
X89097676Y-100119047D02*
X89192914Y-100214285D01*
X89192914Y-100214285D02*
X89240533Y-100309523D01*
X107954819Y-101642857D02*
X107478628Y-101976190D01*
X107954819Y-102214285D02*
X106954819Y-102214285D01*
X106954819Y-102214285D02*
X106954819Y-101833333D01*
X106954819Y-101833333D02*
X107002438Y-101738095D01*
X107002438Y-101738095D02*
X107050057Y-101690476D01*
X107050057Y-101690476D02*
X107145295Y-101642857D01*
X107145295Y-101642857D02*
X107288152Y-101642857D01*
X107288152Y-101642857D02*
X107383390Y-101690476D01*
X107383390Y-101690476D02*
X107431009Y-101738095D01*
X107431009Y-101738095D02*
X107478628Y-101833333D01*
X107478628Y-101833333D02*
X107478628Y-102214285D01*
X107050057Y-101261904D02*
X107002438Y-101214285D01*
X107002438Y-101214285D02*
X106954819Y-101119047D01*
X106954819Y-101119047D02*
X106954819Y-100880952D01*
X106954819Y-100880952D02*
X107002438Y-100785714D01*
X107002438Y-100785714D02*
X107050057Y-100738095D01*
X107050057Y-100738095D02*
X107145295Y-100690476D01*
X107145295Y-100690476D02*
X107240533Y-100690476D01*
X107240533Y-100690476D02*
X107383390Y-100738095D01*
X107383390Y-100738095D02*
X107954819Y-101309523D01*
X107954819Y-101309523D02*
X107954819Y-100690476D01*
X107050057Y-100309523D02*
X107002438Y-100261904D01*
X107002438Y-100261904D02*
X106954819Y-100166666D01*
X106954819Y-100166666D02*
X106954819Y-99928571D01*
X106954819Y-99928571D02*
X107002438Y-99833333D01*
X107002438Y-99833333D02*
X107050057Y-99785714D01*
X107050057Y-99785714D02*
X107145295Y-99738095D01*
X107145295Y-99738095D02*
X107240533Y-99738095D01*
X107240533Y-99738095D02*
X107383390Y-99785714D01*
X107383390Y-99785714D02*
X107954819Y-100357142D01*
X107954819Y-100357142D02*
X107954819Y-99738095D01*
X108690476Y-88204819D02*
X108690476Y-88919104D01*
X108690476Y-88919104D02*
X108642857Y-89061961D01*
X108642857Y-89061961D02*
X108547619Y-89157200D01*
X108547619Y-89157200D02*
X108404762Y-89204819D01*
X108404762Y-89204819D02*
X108309524Y-89204819D01*
X109166667Y-89204819D02*
X109166667Y-88204819D01*
X109166667Y-88204819D02*
X109547619Y-88204819D01*
X109547619Y-88204819D02*
X109642857Y-88252438D01*
X109642857Y-88252438D02*
X109690476Y-88300057D01*
X109690476Y-88300057D02*
X109738095Y-88395295D01*
X109738095Y-88395295D02*
X109738095Y-88538152D01*
X109738095Y-88538152D02*
X109690476Y-88633390D01*
X109690476Y-88633390D02*
X109642857Y-88681009D01*
X109642857Y-88681009D02*
X109547619Y-88728628D01*
X109547619Y-88728628D02*
X109166667Y-88728628D01*
X110119048Y-88300057D02*
X110166667Y-88252438D01*
X110166667Y-88252438D02*
X110261905Y-88204819D01*
X110261905Y-88204819D02*
X110500000Y-88204819D01*
X110500000Y-88204819D02*
X110595238Y-88252438D01*
X110595238Y-88252438D02*
X110642857Y-88300057D01*
X110642857Y-88300057D02*
X110690476Y-88395295D01*
X110690476Y-88395295D02*
X110690476Y-88490533D01*
X110690476Y-88490533D02*
X110642857Y-88633390D01*
X110642857Y-88633390D02*
X110071429Y-89204819D01*
X110071429Y-89204819D02*
X110690476Y-89204819D01*
X111309524Y-88204819D02*
X111404762Y-88204819D01*
X111404762Y-88204819D02*
X111500000Y-88252438D01*
X111500000Y-88252438D02*
X111547619Y-88300057D01*
X111547619Y-88300057D02*
X111595238Y-88395295D01*
X111595238Y-88395295D02*
X111642857Y-88585771D01*
X111642857Y-88585771D02*
X111642857Y-88823866D01*
X111642857Y-88823866D02*
X111595238Y-89014342D01*
X111595238Y-89014342D02*
X111547619Y-89109580D01*
X111547619Y-89109580D02*
X111500000Y-89157200D01*
X111500000Y-89157200D02*
X111404762Y-89204819D01*
X111404762Y-89204819D02*
X111309524Y-89204819D01*
X111309524Y-89204819D02*
X111214286Y-89157200D01*
X111214286Y-89157200D02*
X111166667Y-89109580D01*
X111166667Y-89109580D02*
X111119048Y-89014342D01*
X111119048Y-89014342D02*
X111071429Y-88823866D01*
X111071429Y-88823866D02*
X111071429Y-88585771D01*
X111071429Y-88585771D02*
X111119048Y-88395295D01*
X111119048Y-88395295D02*
X111166667Y-88300057D01*
X111166667Y-88300057D02*
X111214286Y-88252438D01*
X111214286Y-88252438D02*
X111309524Y-88204819D01*
X96109580Y-104212857D02*
X96157200Y-104260476D01*
X96157200Y-104260476D02*
X96204819Y-104403333D01*
X96204819Y-104403333D02*
X96204819Y-104498571D01*
X96204819Y-104498571D02*
X96157200Y-104641428D01*
X96157200Y-104641428D02*
X96061961Y-104736666D01*
X96061961Y-104736666D02*
X95966723Y-104784285D01*
X95966723Y-104784285D02*
X95776247Y-104831904D01*
X95776247Y-104831904D02*
X95633390Y-104831904D01*
X95633390Y-104831904D02*
X95442914Y-104784285D01*
X95442914Y-104784285D02*
X95347676Y-104736666D01*
X95347676Y-104736666D02*
X95252438Y-104641428D01*
X95252438Y-104641428D02*
X95204819Y-104498571D01*
X95204819Y-104498571D02*
X95204819Y-104403333D01*
X95204819Y-104403333D02*
X95252438Y-104260476D01*
X95252438Y-104260476D02*
X95300057Y-104212857D01*
X96204819Y-103260476D02*
X96204819Y-103831904D01*
X96204819Y-103546190D02*
X95204819Y-103546190D01*
X95204819Y-103546190D02*
X95347676Y-103641428D01*
X95347676Y-103641428D02*
X95442914Y-103736666D01*
X95442914Y-103736666D02*
X95490533Y-103831904D01*
X95300057Y-102879523D02*
X95252438Y-102831904D01*
X95252438Y-102831904D02*
X95204819Y-102736666D01*
X95204819Y-102736666D02*
X95204819Y-102498571D01*
X95204819Y-102498571D02*
X95252438Y-102403333D01*
X95252438Y-102403333D02*
X95300057Y-102355714D01*
X95300057Y-102355714D02*
X95395295Y-102308095D01*
X95395295Y-102308095D02*
X95490533Y-102308095D01*
X95490533Y-102308095D02*
X95633390Y-102355714D01*
X95633390Y-102355714D02*
X96204819Y-102927142D01*
X96204819Y-102927142D02*
X96204819Y-102308095D01*
X192954819Y-101642857D02*
X192478628Y-101976190D01*
X192954819Y-102214285D02*
X191954819Y-102214285D01*
X191954819Y-102214285D02*
X191954819Y-101833333D01*
X191954819Y-101833333D02*
X192002438Y-101738095D01*
X192002438Y-101738095D02*
X192050057Y-101690476D01*
X192050057Y-101690476D02*
X192145295Y-101642857D01*
X192145295Y-101642857D02*
X192288152Y-101642857D01*
X192288152Y-101642857D02*
X192383390Y-101690476D01*
X192383390Y-101690476D02*
X192431009Y-101738095D01*
X192431009Y-101738095D02*
X192478628Y-101833333D01*
X192478628Y-101833333D02*
X192478628Y-102214285D01*
X191954819Y-101309523D02*
X191954819Y-100642857D01*
X191954819Y-100642857D02*
X192954819Y-101071428D01*
X192050057Y-100309523D02*
X192002438Y-100261904D01*
X192002438Y-100261904D02*
X191954819Y-100166666D01*
X191954819Y-100166666D02*
X191954819Y-99928571D01*
X191954819Y-99928571D02*
X192002438Y-99833333D01*
X192002438Y-99833333D02*
X192050057Y-99785714D01*
X192050057Y-99785714D02*
X192145295Y-99738095D01*
X192145295Y-99738095D02*
X192240533Y-99738095D01*
X192240533Y-99738095D02*
X192383390Y-99785714D01*
X192383390Y-99785714D02*
X192954819Y-100357142D01*
X192954819Y-100357142D02*
X192954819Y-99738095D01*
X156954819Y-101642857D02*
X156478628Y-101976190D01*
X156954819Y-102214285D02*
X155954819Y-102214285D01*
X155954819Y-102214285D02*
X155954819Y-101833333D01*
X155954819Y-101833333D02*
X156002438Y-101738095D01*
X156002438Y-101738095D02*
X156050057Y-101690476D01*
X156050057Y-101690476D02*
X156145295Y-101642857D01*
X156145295Y-101642857D02*
X156288152Y-101642857D01*
X156288152Y-101642857D02*
X156383390Y-101690476D01*
X156383390Y-101690476D02*
X156431009Y-101738095D01*
X156431009Y-101738095D02*
X156478628Y-101833333D01*
X156478628Y-101833333D02*
X156478628Y-102214285D01*
X155954819Y-100738095D02*
X155954819Y-101214285D01*
X155954819Y-101214285D02*
X156431009Y-101261904D01*
X156431009Y-101261904D02*
X156383390Y-101214285D01*
X156383390Y-101214285D02*
X156335771Y-101119047D01*
X156335771Y-101119047D02*
X156335771Y-100880952D01*
X156335771Y-100880952D02*
X156383390Y-100785714D01*
X156383390Y-100785714D02*
X156431009Y-100738095D01*
X156431009Y-100738095D02*
X156526247Y-100690476D01*
X156526247Y-100690476D02*
X156764342Y-100690476D01*
X156764342Y-100690476D02*
X156859580Y-100738095D01*
X156859580Y-100738095D02*
X156907200Y-100785714D01*
X156907200Y-100785714D02*
X156954819Y-100880952D01*
X156954819Y-100880952D02*
X156954819Y-101119047D01*
X156954819Y-101119047D02*
X156907200Y-101214285D01*
X156907200Y-101214285D02*
X156859580Y-101261904D01*
X155954819Y-100357142D02*
X155954819Y-99738095D01*
X155954819Y-99738095D02*
X156335771Y-100071428D01*
X156335771Y-100071428D02*
X156335771Y-99928571D01*
X156335771Y-99928571D02*
X156383390Y-99833333D01*
X156383390Y-99833333D02*
X156431009Y-99785714D01*
X156431009Y-99785714D02*
X156526247Y-99738095D01*
X156526247Y-99738095D02*
X156764342Y-99738095D01*
X156764342Y-99738095D02*
X156859580Y-99785714D01*
X156859580Y-99785714D02*
X156907200Y-99833333D01*
X156907200Y-99833333D02*
X156954819Y-99928571D01*
X156954819Y-99928571D02*
X156954819Y-100214285D01*
X156954819Y-100214285D02*
X156907200Y-100309523D01*
X156907200Y-100309523D02*
X156859580Y-100357142D01*
X204954819Y-101642857D02*
X204478628Y-101976190D01*
X204954819Y-102214285D02*
X203954819Y-102214285D01*
X203954819Y-102214285D02*
X203954819Y-101833333D01*
X203954819Y-101833333D02*
X204002438Y-101738095D01*
X204002438Y-101738095D02*
X204050057Y-101690476D01*
X204050057Y-101690476D02*
X204145295Y-101642857D01*
X204145295Y-101642857D02*
X204288152Y-101642857D01*
X204288152Y-101642857D02*
X204383390Y-101690476D01*
X204383390Y-101690476D02*
X204431009Y-101738095D01*
X204431009Y-101738095D02*
X204478628Y-101833333D01*
X204478628Y-101833333D02*
X204478628Y-102214285D01*
X204383390Y-101071428D02*
X204335771Y-101166666D01*
X204335771Y-101166666D02*
X204288152Y-101214285D01*
X204288152Y-101214285D02*
X204192914Y-101261904D01*
X204192914Y-101261904D02*
X204145295Y-101261904D01*
X204145295Y-101261904D02*
X204050057Y-101214285D01*
X204050057Y-101214285D02*
X204002438Y-101166666D01*
X204002438Y-101166666D02*
X203954819Y-101071428D01*
X203954819Y-101071428D02*
X203954819Y-100880952D01*
X203954819Y-100880952D02*
X204002438Y-100785714D01*
X204002438Y-100785714D02*
X204050057Y-100738095D01*
X204050057Y-100738095D02*
X204145295Y-100690476D01*
X204145295Y-100690476D02*
X204192914Y-100690476D01*
X204192914Y-100690476D02*
X204288152Y-100738095D01*
X204288152Y-100738095D02*
X204335771Y-100785714D01*
X204335771Y-100785714D02*
X204383390Y-100880952D01*
X204383390Y-100880952D02*
X204383390Y-101071428D01*
X204383390Y-101071428D02*
X204431009Y-101166666D01*
X204431009Y-101166666D02*
X204478628Y-101214285D01*
X204478628Y-101214285D02*
X204573866Y-101261904D01*
X204573866Y-101261904D02*
X204764342Y-101261904D01*
X204764342Y-101261904D02*
X204859580Y-101214285D01*
X204859580Y-101214285D02*
X204907200Y-101166666D01*
X204907200Y-101166666D02*
X204954819Y-101071428D01*
X204954819Y-101071428D02*
X204954819Y-100880952D01*
X204954819Y-100880952D02*
X204907200Y-100785714D01*
X204907200Y-100785714D02*
X204859580Y-100738095D01*
X204859580Y-100738095D02*
X204764342Y-100690476D01*
X204764342Y-100690476D02*
X204573866Y-100690476D01*
X204573866Y-100690476D02*
X204478628Y-100738095D01*
X204478628Y-100738095D02*
X204431009Y-100785714D01*
X204431009Y-100785714D02*
X204383390Y-100880952D01*
X204954819Y-99738095D02*
X204954819Y-100309523D01*
X204954819Y-100023809D02*
X203954819Y-100023809D01*
X203954819Y-100023809D02*
X204097676Y-100119047D01*
X204097676Y-100119047D02*
X204192914Y-100214285D01*
X204192914Y-100214285D02*
X204240533Y-100309523D01*
X160380952Y-124157200D02*
X160523809Y-124204819D01*
X160523809Y-124204819D02*
X160761904Y-124204819D01*
X160761904Y-124204819D02*
X160857142Y-124157200D01*
X160857142Y-124157200D02*
X160904761Y-124109580D01*
X160904761Y-124109580D02*
X160952380Y-124014342D01*
X160952380Y-124014342D02*
X160952380Y-123919104D01*
X160952380Y-123919104D02*
X160904761Y-123823866D01*
X160904761Y-123823866D02*
X160857142Y-123776247D01*
X160857142Y-123776247D02*
X160761904Y-123728628D01*
X160761904Y-123728628D02*
X160571428Y-123681009D01*
X160571428Y-123681009D02*
X160476190Y-123633390D01*
X160476190Y-123633390D02*
X160428571Y-123585771D01*
X160428571Y-123585771D02*
X160380952Y-123490533D01*
X160380952Y-123490533D02*
X160380952Y-123395295D01*
X160380952Y-123395295D02*
X160428571Y-123300057D01*
X160428571Y-123300057D02*
X160476190Y-123252438D01*
X160476190Y-123252438D02*
X160571428Y-123204819D01*
X160571428Y-123204819D02*
X160809523Y-123204819D01*
X160809523Y-123204819D02*
X160952380Y-123252438D01*
X161380952Y-123681009D02*
X161714285Y-123681009D01*
X161857142Y-124204819D02*
X161380952Y-124204819D01*
X161380952Y-124204819D02*
X161380952Y-123204819D01*
X161380952Y-123204819D02*
X161857142Y-123204819D01*
X162285714Y-124204819D02*
X162285714Y-123204819D01*
X162285714Y-123204819D02*
X162857142Y-124204819D01*
X162857142Y-124204819D02*
X162857142Y-123204819D01*
X163190476Y-123204819D02*
X163761904Y-123204819D01*
X163476190Y-124204819D02*
X163476190Y-123204819D01*
X164571428Y-123204819D02*
X164095238Y-123204819D01*
X164095238Y-123204819D02*
X164047619Y-123681009D01*
X164047619Y-123681009D02*
X164095238Y-123633390D01*
X164095238Y-123633390D02*
X164190476Y-123585771D01*
X164190476Y-123585771D02*
X164428571Y-123585771D01*
X164428571Y-123585771D02*
X164523809Y-123633390D01*
X164523809Y-123633390D02*
X164571428Y-123681009D01*
X164571428Y-123681009D02*
X164619047Y-123776247D01*
X164619047Y-123776247D02*
X164619047Y-124014342D01*
X164619047Y-124014342D02*
X164571428Y-124109580D01*
X164571428Y-124109580D02*
X164523809Y-124157200D01*
X164523809Y-124157200D02*
X164428571Y-124204819D01*
X164428571Y-124204819D02*
X164190476Y-124204819D01*
X164190476Y-124204819D02*
X164095238Y-124157200D01*
X164095238Y-124157200D02*
X164047619Y-124109580D01*
X174357142Y-93279580D02*
X174309523Y-93327200D01*
X174309523Y-93327200D02*
X174166666Y-93374819D01*
X174166666Y-93374819D02*
X174071428Y-93374819D01*
X174071428Y-93374819D02*
X173928571Y-93327200D01*
X173928571Y-93327200D02*
X173833333Y-93231961D01*
X173833333Y-93231961D02*
X173785714Y-93136723D01*
X173785714Y-93136723D02*
X173738095Y-92946247D01*
X173738095Y-92946247D02*
X173738095Y-92803390D01*
X173738095Y-92803390D02*
X173785714Y-92612914D01*
X173785714Y-92612914D02*
X173833333Y-92517676D01*
X173833333Y-92517676D02*
X173928571Y-92422438D01*
X173928571Y-92422438D02*
X174071428Y-92374819D01*
X174071428Y-92374819D02*
X174166666Y-92374819D01*
X174166666Y-92374819D02*
X174309523Y-92422438D01*
X174309523Y-92422438D02*
X174357142Y-92470057D01*
X175214285Y-92374819D02*
X175023809Y-92374819D01*
X175023809Y-92374819D02*
X174928571Y-92422438D01*
X174928571Y-92422438D02*
X174880952Y-92470057D01*
X174880952Y-92470057D02*
X174785714Y-92612914D01*
X174785714Y-92612914D02*
X174738095Y-92803390D01*
X174738095Y-92803390D02*
X174738095Y-93184342D01*
X174738095Y-93184342D02*
X174785714Y-93279580D01*
X174785714Y-93279580D02*
X174833333Y-93327200D01*
X174833333Y-93327200D02*
X174928571Y-93374819D01*
X174928571Y-93374819D02*
X175119047Y-93374819D01*
X175119047Y-93374819D02*
X175214285Y-93327200D01*
X175214285Y-93327200D02*
X175261904Y-93279580D01*
X175261904Y-93279580D02*
X175309523Y-93184342D01*
X175309523Y-93184342D02*
X175309523Y-92946247D01*
X175309523Y-92946247D02*
X175261904Y-92851009D01*
X175261904Y-92851009D02*
X175214285Y-92803390D01*
X175214285Y-92803390D02*
X175119047Y-92755771D01*
X175119047Y-92755771D02*
X174928571Y-92755771D01*
X174928571Y-92755771D02*
X174833333Y-92803390D01*
X174833333Y-92803390D02*
X174785714Y-92851009D01*
X174785714Y-92851009D02*
X174738095Y-92946247D01*
X176261904Y-93374819D02*
X175690476Y-93374819D01*
X175976190Y-93374819D02*
X175976190Y-92374819D01*
X175976190Y-92374819D02*
X175880952Y-92517676D01*
X175880952Y-92517676D02*
X175785714Y-92612914D01*
X175785714Y-92612914D02*
X175690476Y-92660533D01*
X101954819Y-116794285D02*
X100954819Y-116794285D01*
X100954819Y-116794285D02*
X100954819Y-116556190D01*
X100954819Y-116556190D02*
X101002438Y-116413333D01*
X101002438Y-116413333D02*
X101097676Y-116318095D01*
X101097676Y-116318095D02*
X101192914Y-116270476D01*
X101192914Y-116270476D02*
X101383390Y-116222857D01*
X101383390Y-116222857D02*
X101526247Y-116222857D01*
X101526247Y-116222857D02*
X101716723Y-116270476D01*
X101716723Y-116270476D02*
X101811961Y-116318095D01*
X101811961Y-116318095D02*
X101907200Y-116413333D01*
X101907200Y-116413333D02*
X101954819Y-116556190D01*
X101954819Y-116556190D02*
X101954819Y-116794285D01*
X101050057Y-115841904D02*
X101002438Y-115794285D01*
X101002438Y-115794285D02*
X100954819Y-115699047D01*
X100954819Y-115699047D02*
X100954819Y-115460952D01*
X100954819Y-115460952D02*
X101002438Y-115365714D01*
X101002438Y-115365714D02*
X101050057Y-115318095D01*
X101050057Y-115318095D02*
X101145295Y-115270476D01*
X101145295Y-115270476D02*
X101240533Y-115270476D01*
X101240533Y-115270476D02*
X101383390Y-115318095D01*
X101383390Y-115318095D02*
X101954819Y-115889523D01*
X101954819Y-115889523D02*
X101954819Y-115270476D01*
X100954819Y-114651428D02*
X100954819Y-114556190D01*
X100954819Y-114556190D02*
X101002438Y-114460952D01*
X101002438Y-114460952D02*
X101050057Y-114413333D01*
X101050057Y-114413333D02*
X101145295Y-114365714D01*
X101145295Y-114365714D02*
X101335771Y-114318095D01*
X101335771Y-114318095D02*
X101573866Y-114318095D01*
X101573866Y-114318095D02*
X101764342Y-114365714D01*
X101764342Y-114365714D02*
X101859580Y-114413333D01*
X101859580Y-114413333D02*
X101907200Y-114460952D01*
X101907200Y-114460952D02*
X101954819Y-114556190D01*
X101954819Y-114556190D02*
X101954819Y-114651428D01*
X101954819Y-114651428D02*
X101907200Y-114746666D01*
X101907200Y-114746666D02*
X101859580Y-114794285D01*
X101859580Y-114794285D02*
X101764342Y-114841904D01*
X101764342Y-114841904D02*
X101573866Y-114889523D01*
X101573866Y-114889523D02*
X101335771Y-114889523D01*
X101335771Y-114889523D02*
X101145295Y-114841904D01*
X101145295Y-114841904D02*
X101050057Y-114794285D01*
X101050057Y-114794285D02*
X101002438Y-114746666D01*
X101002438Y-114746666D02*
X100954819Y-114651428D01*
X178690476Y-88204819D02*
X178690476Y-88919104D01*
X178690476Y-88919104D02*
X178642857Y-89061961D01*
X178642857Y-89061961D02*
X178547619Y-89157200D01*
X178547619Y-89157200D02*
X178404762Y-89204819D01*
X178404762Y-89204819D02*
X178309524Y-89204819D01*
X179166667Y-89204819D02*
X179166667Y-88204819D01*
X179166667Y-88204819D02*
X179547619Y-88204819D01*
X179547619Y-88204819D02*
X179642857Y-88252438D01*
X179642857Y-88252438D02*
X179690476Y-88300057D01*
X179690476Y-88300057D02*
X179738095Y-88395295D01*
X179738095Y-88395295D02*
X179738095Y-88538152D01*
X179738095Y-88538152D02*
X179690476Y-88633390D01*
X179690476Y-88633390D02*
X179642857Y-88681009D01*
X179642857Y-88681009D02*
X179547619Y-88728628D01*
X179547619Y-88728628D02*
X179166667Y-88728628D01*
X180595238Y-88538152D02*
X180595238Y-89204819D01*
X180357143Y-88157200D02*
X180119048Y-88871485D01*
X180119048Y-88871485D02*
X180738095Y-88871485D01*
X181309524Y-88204819D02*
X181404762Y-88204819D01*
X181404762Y-88204819D02*
X181500000Y-88252438D01*
X181500000Y-88252438D02*
X181547619Y-88300057D01*
X181547619Y-88300057D02*
X181595238Y-88395295D01*
X181595238Y-88395295D02*
X181642857Y-88585771D01*
X181642857Y-88585771D02*
X181642857Y-88823866D01*
X181642857Y-88823866D02*
X181595238Y-89014342D01*
X181595238Y-89014342D02*
X181547619Y-89109580D01*
X181547619Y-89109580D02*
X181500000Y-89157200D01*
X181500000Y-89157200D02*
X181404762Y-89204819D01*
X181404762Y-89204819D02*
X181309524Y-89204819D01*
X181309524Y-89204819D02*
X181214286Y-89157200D01*
X181214286Y-89157200D02*
X181166667Y-89109580D01*
X181166667Y-89109580D02*
X181119048Y-89014342D01*
X181119048Y-89014342D02*
X181071429Y-88823866D01*
X181071429Y-88823866D02*
X181071429Y-88585771D01*
X181071429Y-88585771D02*
X181119048Y-88395295D01*
X181119048Y-88395295D02*
X181166667Y-88300057D01*
X181166667Y-88300057D02*
X181214286Y-88252438D01*
X181214286Y-88252438D02*
X181309524Y-88204819D01*
X134357142Y-93279580D02*
X134309523Y-93327200D01*
X134309523Y-93327200D02*
X134166666Y-93374819D01*
X134166666Y-93374819D02*
X134071428Y-93374819D01*
X134071428Y-93374819D02*
X133928571Y-93327200D01*
X133928571Y-93327200D02*
X133833333Y-93231961D01*
X133833333Y-93231961D02*
X133785714Y-93136723D01*
X133785714Y-93136723D02*
X133738095Y-92946247D01*
X133738095Y-92946247D02*
X133738095Y-92803390D01*
X133738095Y-92803390D02*
X133785714Y-92612914D01*
X133785714Y-92612914D02*
X133833333Y-92517676D01*
X133833333Y-92517676D02*
X133928571Y-92422438D01*
X133928571Y-92422438D02*
X134071428Y-92374819D01*
X134071428Y-92374819D02*
X134166666Y-92374819D01*
X134166666Y-92374819D02*
X134309523Y-92422438D01*
X134309523Y-92422438D02*
X134357142Y-92470057D01*
X135214285Y-92708152D02*
X135214285Y-93374819D01*
X134976190Y-92327200D02*
X134738095Y-93041485D01*
X134738095Y-93041485D02*
X135357142Y-93041485D01*
X136261904Y-93374819D02*
X135690476Y-93374819D01*
X135976190Y-93374819D02*
X135976190Y-92374819D01*
X135976190Y-92374819D02*
X135880952Y-92517676D01*
X135880952Y-92517676D02*
X135785714Y-92612914D01*
X135785714Y-92612914D02*
X135690476Y-92660533D01*
X171954819Y-101642857D02*
X171478628Y-101976190D01*
X171954819Y-102214285D02*
X170954819Y-102214285D01*
X170954819Y-102214285D02*
X170954819Y-101833333D01*
X170954819Y-101833333D02*
X171002438Y-101738095D01*
X171002438Y-101738095D02*
X171050057Y-101690476D01*
X171050057Y-101690476D02*
X171145295Y-101642857D01*
X171145295Y-101642857D02*
X171288152Y-101642857D01*
X171288152Y-101642857D02*
X171383390Y-101690476D01*
X171383390Y-101690476D02*
X171431009Y-101738095D01*
X171431009Y-101738095D02*
X171478628Y-101833333D01*
X171478628Y-101833333D02*
X171478628Y-102214285D01*
X170954819Y-100785714D02*
X170954819Y-100976190D01*
X170954819Y-100976190D02*
X171002438Y-101071428D01*
X171002438Y-101071428D02*
X171050057Y-101119047D01*
X171050057Y-101119047D02*
X171192914Y-101214285D01*
X171192914Y-101214285D02*
X171383390Y-101261904D01*
X171383390Y-101261904D02*
X171764342Y-101261904D01*
X171764342Y-101261904D02*
X171859580Y-101214285D01*
X171859580Y-101214285D02*
X171907200Y-101166666D01*
X171907200Y-101166666D02*
X171954819Y-101071428D01*
X171954819Y-101071428D02*
X171954819Y-100880952D01*
X171954819Y-100880952D02*
X171907200Y-100785714D01*
X171907200Y-100785714D02*
X171859580Y-100738095D01*
X171859580Y-100738095D02*
X171764342Y-100690476D01*
X171764342Y-100690476D02*
X171526247Y-100690476D01*
X171526247Y-100690476D02*
X171431009Y-100738095D01*
X171431009Y-100738095D02*
X171383390Y-100785714D01*
X171383390Y-100785714D02*
X171335771Y-100880952D01*
X171335771Y-100880952D02*
X171335771Y-101071428D01*
X171335771Y-101071428D02*
X171383390Y-101166666D01*
X171383390Y-101166666D02*
X171431009Y-101214285D01*
X171431009Y-101214285D02*
X171526247Y-101261904D01*
X170954819Y-100357142D02*
X170954819Y-99738095D01*
X170954819Y-99738095D02*
X171335771Y-100071428D01*
X171335771Y-100071428D02*
X171335771Y-99928571D01*
X171335771Y-99928571D02*
X171383390Y-99833333D01*
X171383390Y-99833333D02*
X171431009Y-99785714D01*
X171431009Y-99785714D02*
X171526247Y-99738095D01*
X171526247Y-99738095D02*
X171764342Y-99738095D01*
X171764342Y-99738095D02*
X171859580Y-99785714D01*
X171859580Y-99785714D02*
X171907200Y-99833333D01*
X171907200Y-99833333D02*
X171954819Y-99928571D01*
X171954819Y-99928571D02*
X171954819Y-100214285D01*
X171954819Y-100214285D02*
X171907200Y-100309523D01*
X171907200Y-100309523D02*
X171859580Y-100357142D01*
X174954819Y-101642857D02*
X174478628Y-101976190D01*
X174954819Y-102214285D02*
X173954819Y-102214285D01*
X173954819Y-102214285D02*
X173954819Y-101833333D01*
X173954819Y-101833333D02*
X174002438Y-101738095D01*
X174002438Y-101738095D02*
X174050057Y-101690476D01*
X174050057Y-101690476D02*
X174145295Y-101642857D01*
X174145295Y-101642857D02*
X174288152Y-101642857D01*
X174288152Y-101642857D02*
X174383390Y-101690476D01*
X174383390Y-101690476D02*
X174431009Y-101738095D01*
X174431009Y-101738095D02*
X174478628Y-101833333D01*
X174478628Y-101833333D02*
X174478628Y-102214285D01*
X173954819Y-100785714D02*
X173954819Y-100976190D01*
X173954819Y-100976190D02*
X174002438Y-101071428D01*
X174002438Y-101071428D02*
X174050057Y-101119047D01*
X174050057Y-101119047D02*
X174192914Y-101214285D01*
X174192914Y-101214285D02*
X174383390Y-101261904D01*
X174383390Y-101261904D02*
X174764342Y-101261904D01*
X174764342Y-101261904D02*
X174859580Y-101214285D01*
X174859580Y-101214285D02*
X174907200Y-101166666D01*
X174907200Y-101166666D02*
X174954819Y-101071428D01*
X174954819Y-101071428D02*
X174954819Y-100880952D01*
X174954819Y-100880952D02*
X174907200Y-100785714D01*
X174907200Y-100785714D02*
X174859580Y-100738095D01*
X174859580Y-100738095D02*
X174764342Y-100690476D01*
X174764342Y-100690476D02*
X174526247Y-100690476D01*
X174526247Y-100690476D02*
X174431009Y-100738095D01*
X174431009Y-100738095D02*
X174383390Y-100785714D01*
X174383390Y-100785714D02*
X174335771Y-100880952D01*
X174335771Y-100880952D02*
X174335771Y-101071428D01*
X174335771Y-101071428D02*
X174383390Y-101166666D01*
X174383390Y-101166666D02*
X174431009Y-101214285D01*
X174431009Y-101214285D02*
X174526247Y-101261904D01*
X174954819Y-99738095D02*
X174954819Y-100309523D01*
X174954819Y-100023809D02*
X173954819Y-100023809D01*
X173954819Y-100023809D02*
X174097676Y-100119047D01*
X174097676Y-100119047D02*
X174192914Y-100214285D01*
X174192914Y-100214285D02*
X174240533Y-100309523D01*
X119357142Y-93279580D02*
X119309523Y-93327200D01*
X119309523Y-93327200D02*
X119166666Y-93374819D01*
X119166666Y-93374819D02*
X119071428Y-93374819D01*
X119071428Y-93374819D02*
X118928571Y-93327200D01*
X118928571Y-93327200D02*
X118833333Y-93231961D01*
X118833333Y-93231961D02*
X118785714Y-93136723D01*
X118785714Y-93136723D02*
X118738095Y-92946247D01*
X118738095Y-92946247D02*
X118738095Y-92803390D01*
X118738095Y-92803390D02*
X118785714Y-92612914D01*
X118785714Y-92612914D02*
X118833333Y-92517676D01*
X118833333Y-92517676D02*
X118928571Y-92422438D01*
X118928571Y-92422438D02*
X119071428Y-92374819D01*
X119071428Y-92374819D02*
X119166666Y-92374819D01*
X119166666Y-92374819D02*
X119309523Y-92422438D01*
X119309523Y-92422438D02*
X119357142Y-92470057D01*
X119690476Y-92374819D02*
X120309523Y-92374819D01*
X120309523Y-92374819D02*
X119976190Y-92755771D01*
X119976190Y-92755771D02*
X120119047Y-92755771D01*
X120119047Y-92755771D02*
X120214285Y-92803390D01*
X120214285Y-92803390D02*
X120261904Y-92851009D01*
X120261904Y-92851009D02*
X120309523Y-92946247D01*
X120309523Y-92946247D02*
X120309523Y-93184342D01*
X120309523Y-93184342D02*
X120261904Y-93279580D01*
X120261904Y-93279580D02*
X120214285Y-93327200D01*
X120214285Y-93327200D02*
X120119047Y-93374819D01*
X120119047Y-93374819D02*
X119833333Y-93374819D01*
X119833333Y-93374819D02*
X119738095Y-93327200D01*
X119738095Y-93327200D02*
X119690476Y-93279580D01*
X121261904Y-93374819D02*
X120690476Y-93374819D01*
X120976190Y-93374819D02*
X120976190Y-92374819D01*
X120976190Y-92374819D02*
X120880952Y-92517676D01*
X120880952Y-92517676D02*
X120785714Y-92612914D01*
X120785714Y-92612914D02*
X120690476Y-92660533D01*
X190380952Y-124157200D02*
X190523809Y-124204819D01*
X190523809Y-124204819D02*
X190761904Y-124204819D01*
X190761904Y-124204819D02*
X190857142Y-124157200D01*
X190857142Y-124157200D02*
X190904761Y-124109580D01*
X190904761Y-124109580D02*
X190952380Y-124014342D01*
X190952380Y-124014342D02*
X190952380Y-123919104D01*
X190952380Y-123919104D02*
X190904761Y-123823866D01*
X190904761Y-123823866D02*
X190857142Y-123776247D01*
X190857142Y-123776247D02*
X190761904Y-123728628D01*
X190761904Y-123728628D02*
X190571428Y-123681009D01*
X190571428Y-123681009D02*
X190476190Y-123633390D01*
X190476190Y-123633390D02*
X190428571Y-123585771D01*
X190428571Y-123585771D02*
X190380952Y-123490533D01*
X190380952Y-123490533D02*
X190380952Y-123395295D01*
X190380952Y-123395295D02*
X190428571Y-123300057D01*
X190428571Y-123300057D02*
X190476190Y-123252438D01*
X190476190Y-123252438D02*
X190571428Y-123204819D01*
X190571428Y-123204819D02*
X190809523Y-123204819D01*
X190809523Y-123204819D02*
X190952380Y-123252438D01*
X191380952Y-123681009D02*
X191714285Y-123681009D01*
X191857142Y-124204819D02*
X191380952Y-124204819D01*
X191380952Y-124204819D02*
X191380952Y-123204819D01*
X191380952Y-123204819D02*
X191857142Y-123204819D01*
X192285714Y-124204819D02*
X192285714Y-123204819D01*
X192285714Y-123204819D02*
X192857142Y-124204819D01*
X192857142Y-124204819D02*
X192857142Y-123204819D01*
X193190476Y-123204819D02*
X193761904Y-123204819D01*
X193476190Y-124204819D02*
X193476190Y-123204819D01*
X194000000Y-123204819D02*
X194666666Y-123204819D01*
X194666666Y-123204819D02*
X194238095Y-124204819D01*
X131954819Y-101642857D02*
X131478628Y-101976190D01*
X131954819Y-102214285D02*
X130954819Y-102214285D01*
X130954819Y-102214285D02*
X130954819Y-101833333D01*
X130954819Y-101833333D02*
X131002438Y-101738095D01*
X131002438Y-101738095D02*
X131050057Y-101690476D01*
X131050057Y-101690476D02*
X131145295Y-101642857D01*
X131145295Y-101642857D02*
X131288152Y-101642857D01*
X131288152Y-101642857D02*
X131383390Y-101690476D01*
X131383390Y-101690476D02*
X131431009Y-101738095D01*
X131431009Y-101738095D02*
X131478628Y-101833333D01*
X131478628Y-101833333D02*
X131478628Y-102214285D01*
X131288152Y-100785714D02*
X131954819Y-100785714D01*
X130907200Y-101023809D02*
X131621485Y-101261904D01*
X131621485Y-101261904D02*
X131621485Y-100642857D01*
X130954819Y-100357142D02*
X130954819Y-99738095D01*
X130954819Y-99738095D02*
X131335771Y-100071428D01*
X131335771Y-100071428D02*
X131335771Y-99928571D01*
X131335771Y-99928571D02*
X131383390Y-99833333D01*
X131383390Y-99833333D02*
X131431009Y-99785714D01*
X131431009Y-99785714D02*
X131526247Y-99738095D01*
X131526247Y-99738095D02*
X131764342Y-99738095D01*
X131764342Y-99738095D02*
X131859580Y-99785714D01*
X131859580Y-99785714D02*
X131907200Y-99833333D01*
X131907200Y-99833333D02*
X131954819Y-99928571D01*
X131954819Y-99928571D02*
X131954819Y-100214285D01*
X131954819Y-100214285D02*
X131907200Y-100309523D01*
X131907200Y-100309523D02*
X131859580Y-100357142D01*
X98690476Y-88204819D02*
X98690476Y-88919104D01*
X98690476Y-88919104D02*
X98642857Y-89061961D01*
X98642857Y-89061961D02*
X98547619Y-89157200D01*
X98547619Y-89157200D02*
X98404762Y-89204819D01*
X98404762Y-89204819D02*
X98309524Y-89204819D01*
X99166667Y-89204819D02*
X99166667Y-88204819D01*
X99166667Y-88204819D02*
X99547619Y-88204819D01*
X99547619Y-88204819D02*
X99642857Y-88252438D01*
X99642857Y-88252438D02*
X99690476Y-88300057D01*
X99690476Y-88300057D02*
X99738095Y-88395295D01*
X99738095Y-88395295D02*
X99738095Y-88538152D01*
X99738095Y-88538152D02*
X99690476Y-88633390D01*
X99690476Y-88633390D02*
X99642857Y-88681009D01*
X99642857Y-88681009D02*
X99547619Y-88728628D01*
X99547619Y-88728628D02*
X99166667Y-88728628D01*
X100690476Y-89204819D02*
X100119048Y-89204819D01*
X100404762Y-89204819D02*
X100404762Y-88204819D01*
X100404762Y-88204819D02*
X100309524Y-88347676D01*
X100309524Y-88347676D02*
X100214286Y-88442914D01*
X100214286Y-88442914D02*
X100119048Y-88490533D01*
X101309524Y-88204819D02*
X101404762Y-88204819D01*
X101404762Y-88204819D02*
X101500000Y-88252438D01*
X101500000Y-88252438D02*
X101547619Y-88300057D01*
X101547619Y-88300057D02*
X101595238Y-88395295D01*
X101595238Y-88395295D02*
X101642857Y-88585771D01*
X101642857Y-88585771D02*
X101642857Y-88823866D01*
X101642857Y-88823866D02*
X101595238Y-89014342D01*
X101595238Y-89014342D02*
X101547619Y-89109580D01*
X101547619Y-89109580D02*
X101500000Y-89157200D01*
X101500000Y-89157200D02*
X101404762Y-89204819D01*
X101404762Y-89204819D02*
X101309524Y-89204819D01*
X101309524Y-89204819D02*
X101214286Y-89157200D01*
X101214286Y-89157200D02*
X101166667Y-89109580D01*
X101166667Y-89109580D02*
X101119048Y-89014342D01*
X101119048Y-89014342D02*
X101071429Y-88823866D01*
X101071429Y-88823866D02*
X101071429Y-88585771D01*
X101071429Y-88585771D02*
X101119048Y-88395295D01*
X101119048Y-88395295D02*
X101166667Y-88300057D01*
X101166667Y-88300057D02*
X101214286Y-88252438D01*
X101214286Y-88252438D02*
X101309524Y-88204819D01*
X89416666Y-88204819D02*
X89416666Y-88919104D01*
X89416666Y-88919104D02*
X89369047Y-89061961D01*
X89369047Y-89061961D02*
X89273809Y-89157200D01*
X89273809Y-89157200D02*
X89130952Y-89204819D01*
X89130952Y-89204819D02*
X89035714Y-89204819D01*
X89892857Y-89204819D02*
X89892857Y-88204819D01*
X89892857Y-88204819D02*
X90273809Y-88204819D01*
X90273809Y-88204819D02*
X90369047Y-88252438D01*
X90369047Y-88252438D02*
X90416666Y-88300057D01*
X90416666Y-88300057D02*
X90464285Y-88395295D01*
X90464285Y-88395295D02*
X90464285Y-88538152D01*
X90464285Y-88538152D02*
X90416666Y-88633390D01*
X90416666Y-88633390D02*
X90369047Y-88681009D01*
X90369047Y-88681009D02*
X90273809Y-88728628D01*
X90273809Y-88728628D02*
X89892857Y-88728628D01*
X91416666Y-89204819D02*
X90845238Y-89204819D01*
X91130952Y-89204819D02*
X91130952Y-88204819D01*
X91130952Y-88204819D02*
X91035714Y-88347676D01*
X91035714Y-88347676D02*
X90940476Y-88442914D01*
X90940476Y-88442914D02*
X90845238Y-88490533D01*
X186954819Y-116794285D02*
X185954819Y-116794285D01*
X185954819Y-116794285D02*
X185954819Y-116556190D01*
X185954819Y-116556190D02*
X186002438Y-116413333D01*
X186002438Y-116413333D02*
X186097676Y-116318095D01*
X186097676Y-116318095D02*
X186192914Y-116270476D01*
X186192914Y-116270476D02*
X186383390Y-116222857D01*
X186383390Y-116222857D02*
X186526247Y-116222857D01*
X186526247Y-116222857D02*
X186716723Y-116270476D01*
X186716723Y-116270476D02*
X186811961Y-116318095D01*
X186811961Y-116318095D02*
X186907200Y-116413333D01*
X186907200Y-116413333D02*
X186954819Y-116556190D01*
X186954819Y-116556190D02*
X186954819Y-116794285D01*
X185954819Y-115889523D02*
X185954819Y-115222857D01*
X185954819Y-115222857D02*
X186954819Y-115651428D01*
X185954819Y-114651428D02*
X185954819Y-114556190D01*
X185954819Y-114556190D02*
X186002438Y-114460952D01*
X186002438Y-114460952D02*
X186050057Y-114413333D01*
X186050057Y-114413333D02*
X186145295Y-114365714D01*
X186145295Y-114365714D02*
X186335771Y-114318095D01*
X186335771Y-114318095D02*
X186573866Y-114318095D01*
X186573866Y-114318095D02*
X186764342Y-114365714D01*
X186764342Y-114365714D02*
X186859580Y-114413333D01*
X186859580Y-114413333D02*
X186907200Y-114460952D01*
X186907200Y-114460952D02*
X186954819Y-114556190D01*
X186954819Y-114556190D02*
X186954819Y-114651428D01*
X186954819Y-114651428D02*
X186907200Y-114746666D01*
X186907200Y-114746666D02*
X186859580Y-114794285D01*
X186859580Y-114794285D02*
X186764342Y-114841904D01*
X186764342Y-114841904D02*
X186573866Y-114889523D01*
X186573866Y-114889523D02*
X186335771Y-114889523D01*
X186335771Y-114889523D02*
X186145295Y-114841904D01*
X186145295Y-114841904D02*
X186050057Y-114794285D01*
X186050057Y-114794285D02*
X186002438Y-114746666D01*
X186002438Y-114746666D02*
X185954819Y-114651428D01*
X201954819Y-116794285D02*
X200954819Y-116794285D01*
X200954819Y-116794285D02*
X200954819Y-116556190D01*
X200954819Y-116556190D02*
X201002438Y-116413333D01*
X201002438Y-116413333D02*
X201097676Y-116318095D01*
X201097676Y-116318095D02*
X201192914Y-116270476D01*
X201192914Y-116270476D02*
X201383390Y-116222857D01*
X201383390Y-116222857D02*
X201526247Y-116222857D01*
X201526247Y-116222857D02*
X201716723Y-116270476D01*
X201716723Y-116270476D02*
X201811961Y-116318095D01*
X201811961Y-116318095D02*
X201907200Y-116413333D01*
X201907200Y-116413333D02*
X201954819Y-116556190D01*
X201954819Y-116556190D02*
X201954819Y-116794285D01*
X201383390Y-115651428D02*
X201335771Y-115746666D01*
X201335771Y-115746666D02*
X201288152Y-115794285D01*
X201288152Y-115794285D02*
X201192914Y-115841904D01*
X201192914Y-115841904D02*
X201145295Y-115841904D01*
X201145295Y-115841904D02*
X201050057Y-115794285D01*
X201050057Y-115794285D02*
X201002438Y-115746666D01*
X201002438Y-115746666D02*
X200954819Y-115651428D01*
X200954819Y-115651428D02*
X200954819Y-115460952D01*
X200954819Y-115460952D02*
X201002438Y-115365714D01*
X201002438Y-115365714D02*
X201050057Y-115318095D01*
X201050057Y-115318095D02*
X201145295Y-115270476D01*
X201145295Y-115270476D02*
X201192914Y-115270476D01*
X201192914Y-115270476D02*
X201288152Y-115318095D01*
X201288152Y-115318095D02*
X201335771Y-115365714D01*
X201335771Y-115365714D02*
X201383390Y-115460952D01*
X201383390Y-115460952D02*
X201383390Y-115651428D01*
X201383390Y-115651428D02*
X201431009Y-115746666D01*
X201431009Y-115746666D02*
X201478628Y-115794285D01*
X201478628Y-115794285D02*
X201573866Y-115841904D01*
X201573866Y-115841904D02*
X201764342Y-115841904D01*
X201764342Y-115841904D02*
X201859580Y-115794285D01*
X201859580Y-115794285D02*
X201907200Y-115746666D01*
X201907200Y-115746666D02*
X201954819Y-115651428D01*
X201954819Y-115651428D02*
X201954819Y-115460952D01*
X201954819Y-115460952D02*
X201907200Y-115365714D01*
X201907200Y-115365714D02*
X201859580Y-115318095D01*
X201859580Y-115318095D02*
X201764342Y-115270476D01*
X201764342Y-115270476D02*
X201573866Y-115270476D01*
X201573866Y-115270476D02*
X201478628Y-115318095D01*
X201478628Y-115318095D02*
X201431009Y-115365714D01*
X201431009Y-115365714D02*
X201383390Y-115460952D01*
X200954819Y-114651428D02*
X200954819Y-114556190D01*
X200954819Y-114556190D02*
X201002438Y-114460952D01*
X201002438Y-114460952D02*
X201050057Y-114413333D01*
X201050057Y-114413333D02*
X201145295Y-114365714D01*
X201145295Y-114365714D02*
X201335771Y-114318095D01*
X201335771Y-114318095D02*
X201573866Y-114318095D01*
X201573866Y-114318095D02*
X201764342Y-114365714D01*
X201764342Y-114365714D02*
X201859580Y-114413333D01*
X201859580Y-114413333D02*
X201907200Y-114460952D01*
X201907200Y-114460952D02*
X201954819Y-114556190D01*
X201954819Y-114556190D02*
X201954819Y-114651428D01*
X201954819Y-114651428D02*
X201907200Y-114746666D01*
X201907200Y-114746666D02*
X201859580Y-114794285D01*
X201859580Y-114794285D02*
X201764342Y-114841904D01*
X201764342Y-114841904D02*
X201573866Y-114889523D01*
X201573866Y-114889523D02*
X201335771Y-114889523D01*
X201335771Y-114889523D02*
X201145295Y-114841904D01*
X201145295Y-114841904D02*
X201050057Y-114794285D01*
X201050057Y-114794285D02*
X201002438Y-114746666D01*
X201002438Y-114746666D02*
X200954819Y-114651428D01*
X159954819Y-101642857D02*
X159478628Y-101976190D01*
X159954819Y-102214285D02*
X158954819Y-102214285D01*
X158954819Y-102214285D02*
X158954819Y-101833333D01*
X158954819Y-101833333D02*
X159002438Y-101738095D01*
X159002438Y-101738095D02*
X159050057Y-101690476D01*
X159050057Y-101690476D02*
X159145295Y-101642857D01*
X159145295Y-101642857D02*
X159288152Y-101642857D01*
X159288152Y-101642857D02*
X159383390Y-101690476D01*
X159383390Y-101690476D02*
X159431009Y-101738095D01*
X159431009Y-101738095D02*
X159478628Y-101833333D01*
X159478628Y-101833333D02*
X159478628Y-102214285D01*
X158954819Y-100738095D02*
X158954819Y-101214285D01*
X158954819Y-101214285D02*
X159431009Y-101261904D01*
X159431009Y-101261904D02*
X159383390Y-101214285D01*
X159383390Y-101214285D02*
X159335771Y-101119047D01*
X159335771Y-101119047D02*
X159335771Y-100880952D01*
X159335771Y-100880952D02*
X159383390Y-100785714D01*
X159383390Y-100785714D02*
X159431009Y-100738095D01*
X159431009Y-100738095D02*
X159526247Y-100690476D01*
X159526247Y-100690476D02*
X159764342Y-100690476D01*
X159764342Y-100690476D02*
X159859580Y-100738095D01*
X159859580Y-100738095D02*
X159907200Y-100785714D01*
X159907200Y-100785714D02*
X159954819Y-100880952D01*
X159954819Y-100880952D02*
X159954819Y-101119047D01*
X159954819Y-101119047D02*
X159907200Y-101214285D01*
X159907200Y-101214285D02*
X159859580Y-101261904D01*
X159954819Y-99738095D02*
X159954819Y-100309523D01*
X159954819Y-100023809D02*
X158954819Y-100023809D01*
X158954819Y-100023809D02*
X159097676Y-100119047D01*
X159097676Y-100119047D02*
X159192914Y-100214285D01*
X159192914Y-100214285D02*
X159240533Y-100309523D01*
X181109580Y-104212857D02*
X181157200Y-104260476D01*
X181157200Y-104260476D02*
X181204819Y-104403333D01*
X181204819Y-104403333D02*
X181204819Y-104498571D01*
X181204819Y-104498571D02*
X181157200Y-104641428D01*
X181157200Y-104641428D02*
X181061961Y-104736666D01*
X181061961Y-104736666D02*
X180966723Y-104784285D01*
X180966723Y-104784285D02*
X180776247Y-104831904D01*
X180776247Y-104831904D02*
X180633390Y-104831904D01*
X180633390Y-104831904D02*
X180442914Y-104784285D01*
X180442914Y-104784285D02*
X180347676Y-104736666D01*
X180347676Y-104736666D02*
X180252438Y-104641428D01*
X180252438Y-104641428D02*
X180204819Y-104498571D01*
X180204819Y-104498571D02*
X180204819Y-104403333D01*
X180204819Y-104403333D02*
X180252438Y-104260476D01*
X180252438Y-104260476D02*
X180300057Y-104212857D01*
X180204819Y-103355714D02*
X180204819Y-103546190D01*
X180204819Y-103546190D02*
X180252438Y-103641428D01*
X180252438Y-103641428D02*
X180300057Y-103689047D01*
X180300057Y-103689047D02*
X180442914Y-103784285D01*
X180442914Y-103784285D02*
X180633390Y-103831904D01*
X180633390Y-103831904D02*
X181014342Y-103831904D01*
X181014342Y-103831904D02*
X181109580Y-103784285D01*
X181109580Y-103784285D02*
X181157200Y-103736666D01*
X181157200Y-103736666D02*
X181204819Y-103641428D01*
X181204819Y-103641428D02*
X181204819Y-103450952D01*
X181204819Y-103450952D02*
X181157200Y-103355714D01*
X181157200Y-103355714D02*
X181109580Y-103308095D01*
X181109580Y-103308095D02*
X181014342Y-103260476D01*
X181014342Y-103260476D02*
X180776247Y-103260476D01*
X180776247Y-103260476D02*
X180681009Y-103308095D01*
X180681009Y-103308095D02*
X180633390Y-103355714D01*
X180633390Y-103355714D02*
X180585771Y-103450952D01*
X180585771Y-103450952D02*
X180585771Y-103641428D01*
X180585771Y-103641428D02*
X180633390Y-103736666D01*
X180633390Y-103736666D02*
X180681009Y-103784285D01*
X180681009Y-103784285D02*
X180776247Y-103831904D01*
X180300057Y-102879523D02*
X180252438Y-102831904D01*
X180252438Y-102831904D02*
X180204819Y-102736666D01*
X180204819Y-102736666D02*
X180204819Y-102498571D01*
X180204819Y-102498571D02*
X180252438Y-102403333D01*
X180252438Y-102403333D02*
X180300057Y-102355714D01*
X180300057Y-102355714D02*
X180395295Y-102308095D01*
X180395295Y-102308095D02*
X180490533Y-102308095D01*
X180490533Y-102308095D02*
X180633390Y-102355714D01*
X180633390Y-102355714D02*
X181204819Y-102927142D01*
X181204819Y-102927142D02*
X181204819Y-102308095D01*
X171954819Y-116794285D02*
X170954819Y-116794285D01*
X170954819Y-116794285D02*
X170954819Y-116556190D01*
X170954819Y-116556190D02*
X171002438Y-116413333D01*
X171002438Y-116413333D02*
X171097676Y-116318095D01*
X171097676Y-116318095D02*
X171192914Y-116270476D01*
X171192914Y-116270476D02*
X171383390Y-116222857D01*
X171383390Y-116222857D02*
X171526247Y-116222857D01*
X171526247Y-116222857D02*
X171716723Y-116270476D01*
X171716723Y-116270476D02*
X171811961Y-116318095D01*
X171811961Y-116318095D02*
X171907200Y-116413333D01*
X171907200Y-116413333D02*
X171954819Y-116556190D01*
X171954819Y-116556190D02*
X171954819Y-116794285D01*
X170954819Y-115365714D02*
X170954819Y-115556190D01*
X170954819Y-115556190D02*
X171002438Y-115651428D01*
X171002438Y-115651428D02*
X171050057Y-115699047D01*
X171050057Y-115699047D02*
X171192914Y-115794285D01*
X171192914Y-115794285D02*
X171383390Y-115841904D01*
X171383390Y-115841904D02*
X171764342Y-115841904D01*
X171764342Y-115841904D02*
X171859580Y-115794285D01*
X171859580Y-115794285D02*
X171907200Y-115746666D01*
X171907200Y-115746666D02*
X171954819Y-115651428D01*
X171954819Y-115651428D02*
X171954819Y-115460952D01*
X171954819Y-115460952D02*
X171907200Y-115365714D01*
X171907200Y-115365714D02*
X171859580Y-115318095D01*
X171859580Y-115318095D02*
X171764342Y-115270476D01*
X171764342Y-115270476D02*
X171526247Y-115270476D01*
X171526247Y-115270476D02*
X171431009Y-115318095D01*
X171431009Y-115318095D02*
X171383390Y-115365714D01*
X171383390Y-115365714D02*
X171335771Y-115460952D01*
X171335771Y-115460952D02*
X171335771Y-115651428D01*
X171335771Y-115651428D02*
X171383390Y-115746666D01*
X171383390Y-115746666D02*
X171431009Y-115794285D01*
X171431009Y-115794285D02*
X171526247Y-115841904D01*
X170954819Y-114651428D02*
X170954819Y-114556190D01*
X170954819Y-114556190D02*
X171002438Y-114460952D01*
X171002438Y-114460952D02*
X171050057Y-114413333D01*
X171050057Y-114413333D02*
X171145295Y-114365714D01*
X171145295Y-114365714D02*
X171335771Y-114318095D01*
X171335771Y-114318095D02*
X171573866Y-114318095D01*
X171573866Y-114318095D02*
X171764342Y-114365714D01*
X171764342Y-114365714D02*
X171859580Y-114413333D01*
X171859580Y-114413333D02*
X171907200Y-114460952D01*
X171907200Y-114460952D02*
X171954819Y-114556190D01*
X171954819Y-114556190D02*
X171954819Y-114651428D01*
X171954819Y-114651428D02*
X171907200Y-114746666D01*
X171907200Y-114746666D02*
X171859580Y-114794285D01*
X171859580Y-114794285D02*
X171764342Y-114841904D01*
X171764342Y-114841904D02*
X171573866Y-114889523D01*
X171573866Y-114889523D02*
X171335771Y-114889523D01*
X171335771Y-114889523D02*
X171145295Y-114841904D01*
X171145295Y-114841904D02*
X171050057Y-114794285D01*
X171050057Y-114794285D02*
X171002438Y-114746666D01*
X171002438Y-114746666D02*
X170954819Y-114651428D01*
X201954819Y-101642857D02*
X201478628Y-101976190D01*
X201954819Y-102214285D02*
X200954819Y-102214285D01*
X200954819Y-102214285D02*
X200954819Y-101833333D01*
X200954819Y-101833333D02*
X201002438Y-101738095D01*
X201002438Y-101738095D02*
X201050057Y-101690476D01*
X201050057Y-101690476D02*
X201145295Y-101642857D01*
X201145295Y-101642857D02*
X201288152Y-101642857D01*
X201288152Y-101642857D02*
X201383390Y-101690476D01*
X201383390Y-101690476D02*
X201431009Y-101738095D01*
X201431009Y-101738095D02*
X201478628Y-101833333D01*
X201478628Y-101833333D02*
X201478628Y-102214285D01*
X201383390Y-101071428D02*
X201335771Y-101166666D01*
X201335771Y-101166666D02*
X201288152Y-101214285D01*
X201288152Y-101214285D02*
X201192914Y-101261904D01*
X201192914Y-101261904D02*
X201145295Y-101261904D01*
X201145295Y-101261904D02*
X201050057Y-101214285D01*
X201050057Y-101214285D02*
X201002438Y-101166666D01*
X201002438Y-101166666D02*
X200954819Y-101071428D01*
X200954819Y-101071428D02*
X200954819Y-100880952D01*
X200954819Y-100880952D02*
X201002438Y-100785714D01*
X201002438Y-100785714D02*
X201050057Y-100738095D01*
X201050057Y-100738095D02*
X201145295Y-100690476D01*
X201145295Y-100690476D02*
X201192914Y-100690476D01*
X201192914Y-100690476D02*
X201288152Y-100738095D01*
X201288152Y-100738095D02*
X201335771Y-100785714D01*
X201335771Y-100785714D02*
X201383390Y-100880952D01*
X201383390Y-100880952D02*
X201383390Y-101071428D01*
X201383390Y-101071428D02*
X201431009Y-101166666D01*
X201431009Y-101166666D02*
X201478628Y-101214285D01*
X201478628Y-101214285D02*
X201573866Y-101261904D01*
X201573866Y-101261904D02*
X201764342Y-101261904D01*
X201764342Y-101261904D02*
X201859580Y-101214285D01*
X201859580Y-101214285D02*
X201907200Y-101166666D01*
X201907200Y-101166666D02*
X201954819Y-101071428D01*
X201954819Y-101071428D02*
X201954819Y-100880952D01*
X201954819Y-100880952D02*
X201907200Y-100785714D01*
X201907200Y-100785714D02*
X201859580Y-100738095D01*
X201859580Y-100738095D02*
X201764342Y-100690476D01*
X201764342Y-100690476D02*
X201573866Y-100690476D01*
X201573866Y-100690476D02*
X201478628Y-100738095D01*
X201478628Y-100738095D02*
X201431009Y-100785714D01*
X201431009Y-100785714D02*
X201383390Y-100880952D01*
X200954819Y-100357142D02*
X200954819Y-99738095D01*
X200954819Y-99738095D02*
X201335771Y-100071428D01*
X201335771Y-100071428D02*
X201335771Y-99928571D01*
X201335771Y-99928571D02*
X201383390Y-99833333D01*
X201383390Y-99833333D02*
X201431009Y-99785714D01*
X201431009Y-99785714D02*
X201526247Y-99738095D01*
X201526247Y-99738095D02*
X201764342Y-99738095D01*
X201764342Y-99738095D02*
X201859580Y-99785714D01*
X201859580Y-99785714D02*
X201907200Y-99833333D01*
X201907200Y-99833333D02*
X201954819Y-99928571D01*
X201954819Y-99928571D02*
X201954819Y-100214285D01*
X201954819Y-100214285D02*
X201907200Y-100309523D01*
X201907200Y-100309523D02*
X201859580Y-100357142D01*
X189954819Y-101642857D02*
X189478628Y-101976190D01*
X189954819Y-102214285D02*
X188954819Y-102214285D01*
X188954819Y-102214285D02*
X188954819Y-101833333D01*
X188954819Y-101833333D02*
X189002438Y-101738095D01*
X189002438Y-101738095D02*
X189050057Y-101690476D01*
X189050057Y-101690476D02*
X189145295Y-101642857D01*
X189145295Y-101642857D02*
X189288152Y-101642857D01*
X189288152Y-101642857D02*
X189383390Y-101690476D01*
X189383390Y-101690476D02*
X189431009Y-101738095D01*
X189431009Y-101738095D02*
X189478628Y-101833333D01*
X189478628Y-101833333D02*
X189478628Y-102214285D01*
X188954819Y-101309523D02*
X188954819Y-100642857D01*
X188954819Y-100642857D02*
X189954819Y-101071428D01*
X189954819Y-99738095D02*
X189954819Y-100309523D01*
X189954819Y-100023809D02*
X188954819Y-100023809D01*
X188954819Y-100023809D02*
X189097676Y-100119047D01*
X189097676Y-100119047D02*
X189192914Y-100214285D01*
X189192914Y-100214285D02*
X189240533Y-100309523D01*
X186954819Y-101642857D02*
X186478628Y-101976190D01*
X186954819Y-102214285D02*
X185954819Y-102214285D01*
X185954819Y-102214285D02*
X185954819Y-101833333D01*
X185954819Y-101833333D02*
X186002438Y-101738095D01*
X186002438Y-101738095D02*
X186050057Y-101690476D01*
X186050057Y-101690476D02*
X186145295Y-101642857D01*
X186145295Y-101642857D02*
X186288152Y-101642857D01*
X186288152Y-101642857D02*
X186383390Y-101690476D01*
X186383390Y-101690476D02*
X186431009Y-101738095D01*
X186431009Y-101738095D02*
X186478628Y-101833333D01*
X186478628Y-101833333D02*
X186478628Y-102214285D01*
X185954819Y-101309523D02*
X185954819Y-100642857D01*
X185954819Y-100642857D02*
X186954819Y-101071428D01*
X185954819Y-100357142D02*
X185954819Y-99738095D01*
X185954819Y-99738095D02*
X186335771Y-100071428D01*
X186335771Y-100071428D02*
X186335771Y-99928571D01*
X186335771Y-99928571D02*
X186383390Y-99833333D01*
X186383390Y-99833333D02*
X186431009Y-99785714D01*
X186431009Y-99785714D02*
X186526247Y-99738095D01*
X186526247Y-99738095D02*
X186764342Y-99738095D01*
X186764342Y-99738095D02*
X186859580Y-99785714D01*
X186859580Y-99785714D02*
X186907200Y-99833333D01*
X186907200Y-99833333D02*
X186954819Y-99928571D01*
X186954819Y-99928571D02*
X186954819Y-100214285D01*
X186954819Y-100214285D02*
X186907200Y-100309523D01*
X186907200Y-100309523D02*
X186859580Y-100357142D01*
X168690476Y-88204819D02*
X168690476Y-88919104D01*
X168690476Y-88919104D02*
X168642857Y-89061961D01*
X168642857Y-89061961D02*
X168547619Y-89157200D01*
X168547619Y-89157200D02*
X168404762Y-89204819D01*
X168404762Y-89204819D02*
X168309524Y-89204819D01*
X169166667Y-89204819D02*
X169166667Y-88204819D01*
X169166667Y-88204819D02*
X169547619Y-88204819D01*
X169547619Y-88204819D02*
X169642857Y-88252438D01*
X169642857Y-88252438D02*
X169690476Y-88300057D01*
X169690476Y-88300057D02*
X169738095Y-88395295D01*
X169738095Y-88395295D02*
X169738095Y-88538152D01*
X169738095Y-88538152D02*
X169690476Y-88633390D01*
X169690476Y-88633390D02*
X169642857Y-88681009D01*
X169642857Y-88681009D02*
X169547619Y-88728628D01*
X169547619Y-88728628D02*
X169166667Y-88728628D01*
X170071429Y-88204819D02*
X170690476Y-88204819D01*
X170690476Y-88204819D02*
X170357143Y-88585771D01*
X170357143Y-88585771D02*
X170500000Y-88585771D01*
X170500000Y-88585771D02*
X170595238Y-88633390D01*
X170595238Y-88633390D02*
X170642857Y-88681009D01*
X170642857Y-88681009D02*
X170690476Y-88776247D01*
X170690476Y-88776247D02*
X170690476Y-89014342D01*
X170690476Y-89014342D02*
X170642857Y-89109580D01*
X170642857Y-89109580D02*
X170595238Y-89157200D01*
X170595238Y-89157200D02*
X170500000Y-89204819D01*
X170500000Y-89204819D02*
X170214286Y-89204819D01*
X170214286Y-89204819D02*
X170119048Y-89157200D01*
X170119048Y-89157200D02*
X170071429Y-89109580D01*
X171309524Y-88204819D02*
X171404762Y-88204819D01*
X171404762Y-88204819D02*
X171500000Y-88252438D01*
X171500000Y-88252438D02*
X171547619Y-88300057D01*
X171547619Y-88300057D02*
X171595238Y-88395295D01*
X171595238Y-88395295D02*
X171642857Y-88585771D01*
X171642857Y-88585771D02*
X171642857Y-88823866D01*
X171642857Y-88823866D02*
X171595238Y-89014342D01*
X171595238Y-89014342D02*
X171547619Y-89109580D01*
X171547619Y-89109580D02*
X171500000Y-89157200D01*
X171500000Y-89157200D02*
X171404762Y-89204819D01*
X171404762Y-89204819D02*
X171309524Y-89204819D01*
X171309524Y-89204819D02*
X171214286Y-89157200D01*
X171214286Y-89157200D02*
X171166667Y-89109580D01*
X171166667Y-89109580D02*
X171119048Y-89014342D01*
X171119048Y-89014342D02*
X171071429Y-88823866D01*
X171071429Y-88823866D02*
X171071429Y-88585771D01*
X171071429Y-88585771D02*
X171119048Y-88395295D01*
X171119048Y-88395295D02*
X171166667Y-88300057D01*
X171166667Y-88300057D02*
X171214286Y-88252438D01*
X171214286Y-88252438D02*
X171309524Y-88204819D01*
X126109580Y-104237857D02*
X126157200Y-104285476D01*
X126157200Y-104285476D02*
X126204819Y-104428333D01*
X126204819Y-104428333D02*
X126204819Y-104523571D01*
X126204819Y-104523571D02*
X126157200Y-104666428D01*
X126157200Y-104666428D02*
X126061961Y-104761666D01*
X126061961Y-104761666D02*
X125966723Y-104809285D01*
X125966723Y-104809285D02*
X125776247Y-104856904D01*
X125776247Y-104856904D02*
X125633390Y-104856904D01*
X125633390Y-104856904D02*
X125442914Y-104809285D01*
X125442914Y-104809285D02*
X125347676Y-104761666D01*
X125347676Y-104761666D02*
X125252438Y-104666428D01*
X125252438Y-104666428D02*
X125204819Y-104523571D01*
X125204819Y-104523571D02*
X125204819Y-104428333D01*
X125204819Y-104428333D02*
X125252438Y-104285476D01*
X125252438Y-104285476D02*
X125300057Y-104237857D01*
X125204819Y-103904523D02*
X125204819Y-103285476D01*
X125204819Y-103285476D02*
X125585771Y-103618809D01*
X125585771Y-103618809D02*
X125585771Y-103475952D01*
X125585771Y-103475952D02*
X125633390Y-103380714D01*
X125633390Y-103380714D02*
X125681009Y-103333095D01*
X125681009Y-103333095D02*
X125776247Y-103285476D01*
X125776247Y-103285476D02*
X126014342Y-103285476D01*
X126014342Y-103285476D02*
X126109580Y-103333095D01*
X126109580Y-103333095D02*
X126157200Y-103380714D01*
X126157200Y-103380714D02*
X126204819Y-103475952D01*
X126204819Y-103475952D02*
X126204819Y-103761666D01*
X126204819Y-103761666D02*
X126157200Y-103856904D01*
X126157200Y-103856904D02*
X126109580Y-103904523D01*
X125300057Y-102904523D02*
X125252438Y-102856904D01*
X125252438Y-102856904D02*
X125204819Y-102761666D01*
X125204819Y-102761666D02*
X125204819Y-102523571D01*
X125204819Y-102523571D02*
X125252438Y-102428333D01*
X125252438Y-102428333D02*
X125300057Y-102380714D01*
X125300057Y-102380714D02*
X125395295Y-102333095D01*
X125395295Y-102333095D02*
X125490533Y-102333095D01*
X125490533Y-102333095D02*
X125633390Y-102380714D01*
X125633390Y-102380714D02*
X126204819Y-102952142D01*
X126204819Y-102952142D02*
X126204819Y-102333095D01*
X86954819Y-101642857D02*
X86478628Y-101976190D01*
X86954819Y-102214285D02*
X85954819Y-102214285D01*
X85954819Y-102214285D02*
X85954819Y-101833333D01*
X85954819Y-101833333D02*
X86002438Y-101738095D01*
X86002438Y-101738095D02*
X86050057Y-101690476D01*
X86050057Y-101690476D02*
X86145295Y-101642857D01*
X86145295Y-101642857D02*
X86288152Y-101642857D01*
X86288152Y-101642857D02*
X86383390Y-101690476D01*
X86383390Y-101690476D02*
X86431009Y-101738095D01*
X86431009Y-101738095D02*
X86478628Y-101833333D01*
X86478628Y-101833333D02*
X86478628Y-102214285D01*
X86954819Y-100690476D02*
X86954819Y-101261904D01*
X86954819Y-100976190D02*
X85954819Y-100976190D01*
X85954819Y-100976190D02*
X86097676Y-101071428D01*
X86097676Y-101071428D02*
X86192914Y-101166666D01*
X86192914Y-101166666D02*
X86240533Y-101261904D01*
X85954819Y-100357142D02*
X85954819Y-99738095D01*
X85954819Y-99738095D02*
X86335771Y-100071428D01*
X86335771Y-100071428D02*
X86335771Y-99928571D01*
X86335771Y-99928571D02*
X86383390Y-99833333D01*
X86383390Y-99833333D02*
X86431009Y-99785714D01*
X86431009Y-99785714D02*
X86526247Y-99738095D01*
X86526247Y-99738095D02*
X86764342Y-99738095D01*
X86764342Y-99738095D02*
X86859580Y-99785714D01*
X86859580Y-99785714D02*
X86907200Y-99833333D01*
X86907200Y-99833333D02*
X86954819Y-99928571D01*
X86954819Y-99928571D02*
X86954819Y-100214285D01*
X86954819Y-100214285D02*
X86907200Y-100309523D01*
X86907200Y-100309523D02*
X86859580Y-100357142D01*
X86954819Y-116794285D02*
X85954819Y-116794285D01*
X85954819Y-116794285D02*
X85954819Y-116556190D01*
X85954819Y-116556190D02*
X86002438Y-116413333D01*
X86002438Y-116413333D02*
X86097676Y-116318095D01*
X86097676Y-116318095D02*
X86192914Y-116270476D01*
X86192914Y-116270476D02*
X86383390Y-116222857D01*
X86383390Y-116222857D02*
X86526247Y-116222857D01*
X86526247Y-116222857D02*
X86716723Y-116270476D01*
X86716723Y-116270476D02*
X86811961Y-116318095D01*
X86811961Y-116318095D02*
X86907200Y-116413333D01*
X86907200Y-116413333D02*
X86954819Y-116556190D01*
X86954819Y-116556190D02*
X86954819Y-116794285D01*
X86954819Y-115270476D02*
X86954819Y-115841904D01*
X86954819Y-115556190D02*
X85954819Y-115556190D01*
X85954819Y-115556190D02*
X86097676Y-115651428D01*
X86097676Y-115651428D02*
X86192914Y-115746666D01*
X86192914Y-115746666D02*
X86240533Y-115841904D01*
X85954819Y-114651428D02*
X85954819Y-114556190D01*
X85954819Y-114556190D02*
X86002438Y-114460952D01*
X86002438Y-114460952D02*
X86050057Y-114413333D01*
X86050057Y-114413333D02*
X86145295Y-114365714D01*
X86145295Y-114365714D02*
X86335771Y-114318095D01*
X86335771Y-114318095D02*
X86573866Y-114318095D01*
X86573866Y-114318095D02*
X86764342Y-114365714D01*
X86764342Y-114365714D02*
X86859580Y-114413333D01*
X86859580Y-114413333D02*
X86907200Y-114460952D01*
X86907200Y-114460952D02*
X86954819Y-114556190D01*
X86954819Y-114556190D02*
X86954819Y-114651428D01*
X86954819Y-114651428D02*
X86907200Y-114746666D01*
X86907200Y-114746666D02*
X86859580Y-114794285D01*
X86859580Y-114794285D02*
X86764342Y-114841904D01*
X86764342Y-114841904D02*
X86573866Y-114889523D01*
X86573866Y-114889523D02*
X86335771Y-114889523D01*
X86335771Y-114889523D02*
X86145295Y-114841904D01*
X86145295Y-114841904D02*
X86050057Y-114794285D01*
X86050057Y-114794285D02*
X86002438Y-114746666D01*
X86002438Y-114746666D02*
X85954819Y-114651428D01*
X156954819Y-116794285D02*
X155954819Y-116794285D01*
X155954819Y-116794285D02*
X155954819Y-116556190D01*
X155954819Y-116556190D02*
X156002438Y-116413333D01*
X156002438Y-116413333D02*
X156097676Y-116318095D01*
X156097676Y-116318095D02*
X156192914Y-116270476D01*
X156192914Y-116270476D02*
X156383390Y-116222857D01*
X156383390Y-116222857D02*
X156526247Y-116222857D01*
X156526247Y-116222857D02*
X156716723Y-116270476D01*
X156716723Y-116270476D02*
X156811961Y-116318095D01*
X156811961Y-116318095D02*
X156907200Y-116413333D01*
X156907200Y-116413333D02*
X156954819Y-116556190D01*
X156954819Y-116556190D02*
X156954819Y-116794285D01*
X155954819Y-115318095D02*
X155954819Y-115794285D01*
X155954819Y-115794285D02*
X156431009Y-115841904D01*
X156431009Y-115841904D02*
X156383390Y-115794285D01*
X156383390Y-115794285D02*
X156335771Y-115699047D01*
X156335771Y-115699047D02*
X156335771Y-115460952D01*
X156335771Y-115460952D02*
X156383390Y-115365714D01*
X156383390Y-115365714D02*
X156431009Y-115318095D01*
X156431009Y-115318095D02*
X156526247Y-115270476D01*
X156526247Y-115270476D02*
X156764342Y-115270476D01*
X156764342Y-115270476D02*
X156859580Y-115318095D01*
X156859580Y-115318095D02*
X156907200Y-115365714D01*
X156907200Y-115365714D02*
X156954819Y-115460952D01*
X156954819Y-115460952D02*
X156954819Y-115699047D01*
X156954819Y-115699047D02*
X156907200Y-115794285D01*
X156907200Y-115794285D02*
X156859580Y-115841904D01*
X155954819Y-114651428D02*
X155954819Y-114556190D01*
X155954819Y-114556190D02*
X156002438Y-114460952D01*
X156002438Y-114460952D02*
X156050057Y-114413333D01*
X156050057Y-114413333D02*
X156145295Y-114365714D01*
X156145295Y-114365714D02*
X156335771Y-114318095D01*
X156335771Y-114318095D02*
X156573866Y-114318095D01*
X156573866Y-114318095D02*
X156764342Y-114365714D01*
X156764342Y-114365714D02*
X156859580Y-114413333D01*
X156859580Y-114413333D02*
X156907200Y-114460952D01*
X156907200Y-114460952D02*
X156954819Y-114556190D01*
X156954819Y-114556190D02*
X156954819Y-114651428D01*
X156954819Y-114651428D02*
X156907200Y-114746666D01*
X156907200Y-114746666D02*
X156859580Y-114794285D01*
X156859580Y-114794285D02*
X156764342Y-114841904D01*
X156764342Y-114841904D02*
X156573866Y-114889523D01*
X156573866Y-114889523D02*
X156335771Y-114889523D01*
X156335771Y-114889523D02*
X156145295Y-114841904D01*
X156145295Y-114841904D02*
X156050057Y-114794285D01*
X156050057Y-114794285D02*
X156002438Y-114746666D01*
X156002438Y-114746666D02*
X155954819Y-114651428D01*
X104357142Y-93279580D02*
X104309523Y-93327200D01*
X104309523Y-93327200D02*
X104166666Y-93374819D01*
X104166666Y-93374819D02*
X104071428Y-93374819D01*
X104071428Y-93374819D02*
X103928571Y-93327200D01*
X103928571Y-93327200D02*
X103833333Y-93231961D01*
X103833333Y-93231961D02*
X103785714Y-93136723D01*
X103785714Y-93136723D02*
X103738095Y-92946247D01*
X103738095Y-92946247D02*
X103738095Y-92803390D01*
X103738095Y-92803390D02*
X103785714Y-92612914D01*
X103785714Y-92612914D02*
X103833333Y-92517676D01*
X103833333Y-92517676D02*
X103928571Y-92422438D01*
X103928571Y-92422438D02*
X104071428Y-92374819D01*
X104071428Y-92374819D02*
X104166666Y-92374819D01*
X104166666Y-92374819D02*
X104309523Y-92422438D01*
X104309523Y-92422438D02*
X104357142Y-92470057D01*
X104738095Y-92470057D02*
X104785714Y-92422438D01*
X104785714Y-92422438D02*
X104880952Y-92374819D01*
X104880952Y-92374819D02*
X105119047Y-92374819D01*
X105119047Y-92374819D02*
X105214285Y-92422438D01*
X105214285Y-92422438D02*
X105261904Y-92470057D01*
X105261904Y-92470057D02*
X105309523Y-92565295D01*
X105309523Y-92565295D02*
X105309523Y-92660533D01*
X105309523Y-92660533D02*
X105261904Y-92803390D01*
X105261904Y-92803390D02*
X104690476Y-93374819D01*
X104690476Y-93374819D02*
X105309523Y-93374819D01*
X106261904Y-93374819D02*
X105690476Y-93374819D01*
X105976190Y-93374819D02*
X105976190Y-92374819D01*
X105976190Y-92374819D02*
X105880952Y-92517676D01*
X105880952Y-92517676D02*
X105785714Y-92612914D01*
X105785714Y-92612914D02*
X105690476Y-92660533D01*
%LPC*%
D12*
X132500000Y-129500000D03*
D13*
X137500000Y-129500000D03*
X142500000Y-129500000D03*
D14*
X80000000Y-85000000D03*
D15*
X162500000Y-95920000D03*
D16*
X162500000Y-106080000D03*
D15*
X207500000Y-92920000D03*
X202500000Y-92920000D03*
D17*
X116500000Y-122080000D03*
X116500000Y-109080000D03*
D14*
X220000000Y-85000000D03*
D15*
X137500000Y-95920000D03*
D16*
X137500000Y-106080000D03*
D12*
X117500000Y-129500000D03*
D13*
X122500000Y-129500000D03*
X127500000Y-129500000D03*
D15*
X192500000Y-92920000D03*
X187500000Y-92920000D03*
X119500000Y-106080000D03*
D16*
X119500000Y-95920000D03*
D15*
X162500000Y-92920000D03*
X157500000Y-92920000D03*
X110750000Y-106070000D03*
X110750000Y-101070000D03*
D14*
X150000000Y-130000000D03*
D15*
X92500000Y-92920000D03*
X87500000Y-92920000D03*
D12*
X102500000Y-129500000D03*
D13*
X107500000Y-129500000D03*
X112500000Y-129500000D03*
D15*
X116500000Y-106080000D03*
D16*
X116500000Y-95920000D03*
D12*
X202500000Y-129500000D03*
D13*
X207500000Y-129500000D03*
X212500000Y-129500000D03*
D15*
X195750000Y-106095000D03*
X195750000Y-101095000D03*
X122500000Y-95920000D03*
D16*
X122500000Y-106080000D03*
D15*
X210750000Y-106100000D03*
X210750000Y-101100000D03*
X104500000Y-106080000D03*
D16*
X104500000Y-95920000D03*
D15*
X207500000Y-95920000D03*
D16*
X207500000Y-106080000D03*
D17*
X131500000Y-122080000D03*
X131500000Y-109080000D03*
D15*
X177500000Y-95920000D03*
D16*
X177500000Y-106080000D03*
D12*
X87500000Y-129500000D03*
D13*
X92500000Y-129500000D03*
X97500000Y-129500000D03*
D14*
X150000000Y-85000000D03*
D15*
X140750000Y-106100000D03*
X140750000Y-101100000D03*
D12*
X172500000Y-129500000D03*
D13*
X177500000Y-129500000D03*
X182500000Y-129500000D03*
D15*
X101500000Y-106080000D03*
D16*
X101500000Y-95920000D03*
D12*
X162500000Y-85500000D03*
D13*
X157500000Y-85500000D03*
D15*
X134500000Y-106080000D03*
D16*
X134500000Y-95920000D03*
D15*
X165750000Y-106070000D03*
X165750000Y-101070000D03*
X92500000Y-95920000D03*
D16*
X92500000Y-106080000D03*
D14*
X220000000Y-130000000D03*
D15*
X89500000Y-106080000D03*
D16*
X89500000Y-95920000D03*
D15*
X107500000Y-95920000D03*
D16*
X107500000Y-106080000D03*
D12*
X112500000Y-85500000D03*
D13*
X107500000Y-85500000D03*
D15*
X95750000Y-106070000D03*
X95750000Y-101070000D03*
X192500000Y-95920000D03*
D16*
X192500000Y-106080000D03*
D14*
X80000000Y-130000000D03*
D15*
X156500000Y-95920000D03*
D16*
X156500000Y-106080000D03*
D15*
X204500000Y-106080000D03*
D16*
X204500000Y-95920000D03*
D12*
X157500000Y-129500000D03*
D13*
X162500000Y-129500000D03*
X167500000Y-129500000D03*
D15*
X177500000Y-92920000D03*
X172500000Y-92920000D03*
D17*
X101500000Y-122080000D03*
X101500000Y-109080000D03*
D12*
X182500000Y-85500000D03*
D13*
X177500000Y-85500000D03*
D15*
X137500000Y-92920000D03*
X132500000Y-92920000D03*
X171500000Y-106080000D03*
D16*
X171500000Y-95920000D03*
D15*
X174500000Y-106080000D03*
D16*
X174500000Y-95920000D03*
D15*
X122500000Y-92920000D03*
X117500000Y-92920000D03*
D12*
X187500000Y-129500000D03*
D13*
X192500000Y-129500000D03*
X197500000Y-129500000D03*
D15*
X131500000Y-106080000D03*
D16*
X131500000Y-95920000D03*
D12*
X102500000Y-85500000D03*
D13*
X97500000Y-85500000D03*
D12*
X92500000Y-85500000D03*
D13*
X87500000Y-85500000D03*
D17*
X186500000Y-122080000D03*
X186500000Y-109080000D03*
X201500000Y-122080000D03*
X201500000Y-109080000D03*
D15*
X159500000Y-106080000D03*
D16*
X159500000Y-95920000D03*
D15*
X180750000Y-106070000D03*
X180750000Y-101070000D03*
D17*
X171500000Y-122080000D03*
X171500000Y-109080000D03*
D15*
X201500000Y-106080000D03*
D16*
X201500000Y-95920000D03*
D15*
X189500000Y-106080000D03*
D16*
X189500000Y-95920000D03*
D15*
X186500000Y-106080000D03*
D16*
X186500000Y-95920000D03*
D12*
X172500000Y-85500000D03*
D13*
X167500000Y-85500000D03*
D15*
X125750000Y-106095000D03*
X125750000Y-101095000D03*
X86500000Y-95920000D03*
D16*
X86500000Y-106080000D03*
D17*
X86500000Y-122080000D03*
X86500000Y-109080000D03*
X156500000Y-122080000D03*
X156500000Y-109080000D03*
D15*
X107500000Y-92920000D03*
X102500000Y-92920000D03*
%LPD*%
M02*
