M48
; DRILL file {KiCad 8.0.0} date 2024-04-03T18:38:56+0200
; FORMAT={-:-/ absolute / metric / decimal}
; #@! TF.CreationDate,2024-04-03T18:38:56+02:00
; #@! TF.GenerationSoftware,Kicad,Pcbnew,8.0.0
; #@! TF.FileFunction,Plated,1,2,PTH
FMAT,2
METRIC
; #@! TA.AperFunction,Plated,PTH,ViaDrill
T1C0.300
; #@! TA.AperFunction,Plated,PTH,ComponentDrill
T2C0.800
; #@! TA.AperFunction,Plated,PTH,ComponentDrill
T3C1.100
; #@! TA.AperFunction,Plated,PTH,ComponentDrill
T4C1.300
%
G90
G05
T1
X90.0Y-110.0
X90.0Y-112.5
X90.0Y-115.0
X90.0Y-117.5
X90.0Y-120.0
X90.0Y-122.5
X92.5Y-110.0
X92.5Y-112.5
X92.5Y-115.0
X92.5Y-117.5
X92.5Y-120.0
X92.5Y-122.5
X95.0Y-110.0
X95.0Y-112.5
X95.0Y-115.0
X95.0Y-117.5
X95.0Y-120.0
X95.0Y-122.5
X105.0Y-110.0
X105.0Y-112.5
X105.0Y-115.0
X105.0Y-117.5
X105.0Y-120.0
X105.0Y-122.5
X107.5Y-110.0
X107.5Y-112.5
X107.5Y-115.0
X107.5Y-117.5
X107.5Y-120.0
X107.5Y-122.5
X110.0Y-92.5
X110.0Y-95.0
X110.0Y-97.5
X110.0Y-110.0
X110.0Y-112.5
X110.0Y-115.0
X110.0Y-117.5
X110.0Y-120.0
X110.0Y-122.5
X112.5Y-92.5
X112.5Y-95.0
X112.5Y-97.5
X117.5Y-82.5
X117.5Y-87.5
X120.0Y-82.5
X120.0Y-87.5
X120.0Y-110.0
X120.0Y-112.5
X120.0Y-115.0
X120.0Y-117.5
X120.0Y-120.0
X120.0Y-122.5
X122.5Y-82.5
X122.5Y-87.5
X122.5Y-110.0
X122.5Y-112.5
X122.5Y-115.0
X122.5Y-117.5
X122.5Y-120.0
X122.5Y-122.5
X125.0Y-82.5
X125.0Y-87.5
X125.0Y-90.0
X125.0Y-92.5
X125.0Y-95.0
X125.0Y-97.5
X125.0Y-110.0
X125.0Y-112.5
X125.0Y-115.0
X125.0Y-117.5
X125.0Y-120.0
X125.0Y-122.5
X127.5Y-82.5
X127.5Y-87.5
X127.5Y-90.0
X127.5Y-92.5
X127.5Y-95.0
X127.5Y-97.5
X130.0Y-82.5
X130.0Y-87.5
X130.0Y-90.0
X132.5Y-82.5
X132.5Y-87.5
X135.0Y-82.5
X135.0Y-87.5
X135.0Y-110.0
X135.0Y-112.5
X135.0Y-115.0
X135.0Y-117.5
X135.0Y-120.0
X135.0Y-122.5
X137.5Y-82.5
X137.5Y-110.0
X137.5Y-112.5
X137.5Y-115.0
X137.5Y-117.5
X137.5Y-120.0
X137.5Y-122.5
X140.0Y-82.5
X140.0Y-85.0
X140.0Y-87.5
X140.0Y-90.0
X140.0Y-92.5
X140.0Y-95.0
X140.0Y-97.5
X140.0Y-110.0
X140.0Y-112.5
X140.0Y-115.0
X140.0Y-117.5
X140.0Y-120.0
X140.0Y-122.5
X142.5Y-82.5
X142.5Y-85.0
X142.5Y-87.5
X142.5Y-90.0
X142.5Y-92.5
X142.5Y-95.0
X142.5Y-97.5
X160.0Y-110.0
X160.0Y-112.5
X160.0Y-115.0
X160.0Y-117.5
X160.0Y-120.0
X160.0Y-122.5
X162.5Y-110.0
X162.5Y-112.5
X162.5Y-115.0
X162.5Y-117.5
X162.5Y-120.0
X162.5Y-122.5
X165.0Y-110.0
X165.0Y-112.5
X165.0Y-115.0
X165.0Y-117.5
X165.0Y-120.0
X165.0Y-122.5
X175.0Y-110.0
X175.0Y-112.5
X175.0Y-115.0
X175.0Y-117.5
X175.0Y-120.0
X175.0Y-122.5
X177.5Y-110.0
X177.5Y-112.5
X177.5Y-115.0
X177.5Y-117.5
X177.5Y-120.0
X177.5Y-122.5
X180.0Y-92.5
X180.0Y-95.0
X180.0Y-97.5
X180.0Y-110.0
X180.0Y-112.5
X180.0Y-115.0
X180.0Y-117.5
X180.0Y-120.0
X180.0Y-122.5
X182.5Y-92.5
X182.5Y-95.0
X182.5Y-97.5
X187.5Y-82.5
X187.5Y-87.5
X190.0Y-82.5
X190.0Y-87.5
X190.0Y-110.0
X190.0Y-112.5
X190.0Y-115.0
X190.0Y-117.5
X190.0Y-120.0
X190.0Y-122.5
X192.5Y-82.5
X192.5Y-87.5
X192.5Y-110.0
X192.5Y-112.5
X192.5Y-115.0
X192.5Y-117.5
X192.5Y-120.0
X192.5Y-122.5
X195.0Y-82.5
X195.0Y-87.5
X195.0Y-90.0
X195.0Y-92.5
X195.0Y-95.0
X195.0Y-97.5
X195.0Y-110.0
X195.0Y-112.5
X195.0Y-115.0
X195.0Y-117.5
X195.0Y-120.0
X195.0Y-122.5
X197.5Y-82.5
X197.5Y-87.5
X197.5Y-90.0
X197.5Y-92.5
X197.5Y-95.0
X197.5Y-97.5
X200.0Y-82.5
X200.0Y-87.5
X200.0Y-90.0
X202.5Y-82.5
X202.5Y-87.5
X205.0Y-82.5
X205.0Y-87.5
X205.0Y-110.0
X205.0Y-112.5
X205.0Y-115.0
X205.0Y-117.5
X205.0Y-120.0
X205.0Y-122.5
X207.5Y-82.5
X207.5Y-110.0
X207.5Y-112.5
X207.5Y-115.0
X207.5Y-117.5
X207.5Y-120.0
X207.5Y-122.5
X210.0Y-82.5
X210.0Y-85.0
X210.0Y-87.5
X210.0Y-90.0
X210.0Y-92.5
X210.0Y-95.0
X210.0Y-97.5
X210.0Y-110.0
X210.0Y-112.5
X210.0Y-115.0
X210.0Y-117.5
X210.0Y-120.0
X210.0Y-122.5
X212.5Y-82.5
X212.5Y-85.0
X212.5Y-87.5
X212.5Y-90.0
X212.5Y-92.5
X212.5Y-95.0
X212.5Y-97.5
T2
X86.5Y-95.92
X86.5Y-106.08
X87.5Y-92.92
X89.5Y-95.92
X89.5Y-106.08
X92.5Y-92.92
X92.5Y-95.92
X92.5Y-106.08
X95.75Y-101.07
X95.75Y-106.07
X101.5Y-95.92
X101.5Y-106.08
X102.5Y-92.92
X104.5Y-95.92
X104.5Y-106.08
X107.5Y-92.92
X107.5Y-95.92
X107.5Y-106.08
X110.75Y-101.07
X110.75Y-106.07
X116.5Y-95.92
X116.5Y-106.08
X117.5Y-92.92
X119.5Y-95.92
X119.5Y-106.08
X122.5Y-92.92
X122.5Y-95.92
X122.5Y-106.08
X125.75Y-101.095
X125.75Y-106.095
X131.5Y-95.92
X131.5Y-106.08
X132.5Y-92.92
X134.5Y-95.92
X134.5Y-106.08
X137.5Y-92.92
X137.5Y-95.92
X137.5Y-106.08
X140.75Y-101.1
X140.75Y-106.1
X156.5Y-95.92
X156.5Y-106.08
X157.5Y-92.92
X159.5Y-95.92
X159.5Y-106.08
X162.5Y-92.92
X162.5Y-95.92
X162.5Y-106.08
X165.75Y-101.07
X165.75Y-106.07
X171.5Y-95.92
X171.5Y-106.08
X172.5Y-92.92
X174.5Y-95.92
X174.5Y-106.08
X177.5Y-92.92
X177.5Y-95.92
X177.5Y-106.08
X180.75Y-101.07
X180.75Y-106.07
X186.5Y-95.92
X186.5Y-106.08
X187.5Y-92.92
X189.5Y-95.92
X189.5Y-106.08
X192.5Y-92.92
X192.5Y-95.92
X192.5Y-106.08
X195.75Y-101.095
X195.75Y-106.095
X201.5Y-95.92
X201.5Y-106.08
X202.5Y-92.92
X204.5Y-95.92
X204.5Y-106.08
X207.5Y-92.92
X207.5Y-95.92
X207.5Y-106.08
X210.75Y-101.1
X210.75Y-106.1
T3
X86.5Y-109.08
X86.5Y-122.08
X101.5Y-109.08
X101.5Y-122.08
X116.5Y-109.08
X116.5Y-122.08
X131.5Y-109.08
X131.5Y-122.08
X156.5Y-109.08
X156.5Y-122.08
X171.5Y-109.08
X171.5Y-122.08
X186.5Y-109.08
X186.5Y-122.08
X201.5Y-109.08
X201.5Y-122.08
T4
X87.5Y-85.5
X87.5Y-129.5
X92.5Y-85.5
X92.5Y-129.5
X97.5Y-85.5
X97.5Y-129.5
X102.5Y-85.5
X102.5Y-129.5
X107.5Y-85.5
X107.5Y-129.5
X112.5Y-85.5
X112.5Y-129.5
X117.5Y-129.5
X122.5Y-129.5
X127.5Y-129.5
X132.5Y-129.5
X137.5Y-129.5
X142.5Y-129.5
X157.5Y-85.5
X157.5Y-129.5
X162.5Y-85.5
X162.5Y-129.5
X167.5Y-85.5
X167.5Y-129.5
X172.5Y-85.5
X172.5Y-129.5
X177.5Y-85.5
X177.5Y-129.5
X182.5Y-85.5
X182.5Y-129.5
X187.5Y-129.5
X192.5Y-129.5
X197.5Y-129.5
X202.5Y-129.5
X207.5Y-129.5
X212.5Y-129.5
M30
