%TF.GenerationSoftware,KiCad,Pcbnew,8.0.0*%
%TF.CreationDate,2024-04-03T18:38:57+02:00*%
%TF.ProjectId,zf-filter,7a662d66-696c-4746-9572-2e6b69636164,1.0*%
%TF.SameCoordinates,Original*%
%TF.FileFunction,Drillmap*%
%TF.FilePolarity,Positive*%
%FSLAX45Y45*%
G04 Gerber Fmt 4.5, Leading zero omitted, Abs format (unit mm)*
G04 Created by KiCad (PCBNEW 8.0.0) date 2024-04-03 18:38:57*
%MOMM*%
%LPD*%
G01*
G04 APERTURE LIST*
%ADD10C,0.050000*%
%ADD11C,0.200000*%
%ADD12C,0.320000*%
G04 APERTURE END LIST*
D10*
X7500000Y-8000000D02*
X22500000Y-8000000D01*
X22500000Y-13500000D01*
X7500000Y-13500000D01*
X7500000Y-8000000D01*
D11*
D12*
X7840000Y-8340000D02*
X8160000Y-8660000D01*
X8160000Y-8340000D02*
X7840000Y-8660000D01*
X7840000Y-12840000D02*
X8160000Y-13160000D01*
X8160000Y-12840000D02*
X7840000Y-13160000D01*
X14840000Y-8340000D02*
X15160000Y-8660000D01*
X15160000Y-8340000D02*
X14840000Y-8660000D01*
X14840000Y-12840000D02*
X15160000Y-13160000D01*
X15160000Y-12840000D02*
X14840000Y-13160000D01*
X21840000Y-8340000D02*
X22160000Y-8660000D01*
X22160000Y-8340000D02*
X21840000Y-8660000D01*
X21840000Y-12840000D02*
X22160000Y-13160000D01*
X22160000Y-12840000D02*
X21840000Y-13160000D01*
D11*
X7758277Y-13813984D02*
X7758277Y-13613984D01*
X7758277Y-13613984D02*
X7805896Y-13613984D01*
X7805896Y-13613984D02*
X7834467Y-13623508D01*
X7834467Y-13623508D02*
X7853515Y-13642555D01*
X7853515Y-13642555D02*
X7863039Y-13661603D01*
X7863039Y-13661603D02*
X7872562Y-13699698D01*
X7872562Y-13699698D02*
X7872562Y-13728269D01*
X7872562Y-13728269D02*
X7863039Y-13766365D01*
X7863039Y-13766365D02*
X7853515Y-13785412D01*
X7853515Y-13785412D02*
X7834467Y-13804460D01*
X7834467Y-13804460D02*
X7805896Y-13813984D01*
X7805896Y-13813984D02*
X7758277Y-13813984D01*
X7958277Y-13813984D02*
X7958277Y-13680650D01*
X7958277Y-13718746D02*
X7967801Y-13699698D01*
X7967801Y-13699698D02*
X7977324Y-13690174D01*
X7977324Y-13690174D02*
X7996372Y-13680650D01*
X7996372Y-13680650D02*
X8015420Y-13680650D01*
X8082086Y-13813984D02*
X8082086Y-13680650D01*
X8082086Y-13613984D02*
X8072562Y-13623508D01*
X8072562Y-13623508D02*
X8082086Y-13633031D01*
X8082086Y-13633031D02*
X8091610Y-13623508D01*
X8091610Y-13623508D02*
X8082086Y-13613984D01*
X8082086Y-13613984D02*
X8082086Y-13633031D01*
X8205896Y-13813984D02*
X8186848Y-13804460D01*
X8186848Y-13804460D02*
X8177324Y-13785412D01*
X8177324Y-13785412D02*
X8177324Y-13613984D01*
X8310658Y-13813984D02*
X8291610Y-13804460D01*
X8291610Y-13804460D02*
X8282086Y-13785412D01*
X8282086Y-13785412D02*
X8282086Y-13613984D01*
X8539229Y-13813984D02*
X8539229Y-13613984D01*
X8539229Y-13613984D02*
X8605896Y-13756841D01*
X8605896Y-13756841D02*
X8672563Y-13613984D01*
X8672563Y-13613984D02*
X8672563Y-13813984D01*
X8853515Y-13813984D02*
X8853515Y-13709222D01*
X8853515Y-13709222D02*
X8843991Y-13690174D01*
X8843991Y-13690174D02*
X8824944Y-13680650D01*
X8824944Y-13680650D02*
X8786848Y-13680650D01*
X8786848Y-13680650D02*
X8767801Y-13690174D01*
X8853515Y-13804460D02*
X8834467Y-13813984D01*
X8834467Y-13813984D02*
X8786848Y-13813984D01*
X8786848Y-13813984D02*
X8767801Y-13804460D01*
X8767801Y-13804460D02*
X8758277Y-13785412D01*
X8758277Y-13785412D02*
X8758277Y-13766365D01*
X8758277Y-13766365D02*
X8767801Y-13747317D01*
X8767801Y-13747317D02*
X8786848Y-13737793D01*
X8786848Y-13737793D02*
X8834467Y-13737793D01*
X8834467Y-13737793D02*
X8853515Y-13728269D01*
X8948753Y-13680650D02*
X8948753Y-13880650D01*
X8948753Y-13690174D02*
X8967801Y-13680650D01*
X8967801Y-13680650D02*
X9005896Y-13680650D01*
X9005896Y-13680650D02*
X9024944Y-13690174D01*
X9024944Y-13690174D02*
X9034467Y-13699698D01*
X9034467Y-13699698D02*
X9043991Y-13718746D01*
X9043991Y-13718746D02*
X9043991Y-13775888D01*
X9043991Y-13775888D02*
X9034467Y-13794936D01*
X9034467Y-13794936D02*
X9024944Y-13804460D01*
X9024944Y-13804460D02*
X9005896Y-13813984D01*
X9005896Y-13813984D02*
X8967801Y-13813984D01*
X8967801Y-13813984D02*
X8948753Y-13804460D01*
X9129705Y-13794936D02*
X9139229Y-13804460D01*
X9139229Y-13804460D02*
X9129705Y-13813984D01*
X9129705Y-13813984D02*
X9120182Y-13804460D01*
X9120182Y-13804460D02*
X9129705Y-13794936D01*
X9129705Y-13794936D02*
X9129705Y-13813984D01*
X9129705Y-13690174D02*
X9139229Y-13699698D01*
X9139229Y-13699698D02*
X9129705Y-13709222D01*
X9129705Y-13709222D02*
X9120182Y-13699698D01*
X9120182Y-13699698D02*
X9129705Y-13690174D01*
X9129705Y-13690174D02*
X9129705Y-13709222D01*
X7297500Y-14042500D02*
X7497500Y-14242500D01*
X7497500Y-14042500D02*
X7297500Y-14242500D01*
X7739229Y-14033984D02*
X7863039Y-14033984D01*
X7863039Y-14033984D02*
X7796372Y-14110174D01*
X7796372Y-14110174D02*
X7824943Y-14110174D01*
X7824943Y-14110174D02*
X7843991Y-14119698D01*
X7843991Y-14119698D02*
X7853515Y-14129222D01*
X7853515Y-14129222D02*
X7863039Y-14148269D01*
X7863039Y-14148269D02*
X7863039Y-14195888D01*
X7863039Y-14195888D02*
X7853515Y-14214936D01*
X7853515Y-14214936D02*
X7843991Y-14224460D01*
X7843991Y-14224460D02*
X7824943Y-14233984D01*
X7824943Y-14233984D02*
X7767801Y-14233984D01*
X7767801Y-14233984D02*
X7748753Y-14224460D01*
X7748753Y-14224460D02*
X7739229Y-14214936D01*
X7948753Y-14214936D02*
X7958277Y-14224460D01*
X7958277Y-14224460D02*
X7948753Y-14233984D01*
X7948753Y-14233984D02*
X7939229Y-14224460D01*
X7939229Y-14224460D02*
X7948753Y-14214936D01*
X7948753Y-14214936D02*
X7948753Y-14233984D01*
X8034467Y-14053031D02*
X8043991Y-14043508D01*
X8043991Y-14043508D02*
X8063039Y-14033984D01*
X8063039Y-14033984D02*
X8110658Y-14033984D01*
X8110658Y-14033984D02*
X8129705Y-14043508D01*
X8129705Y-14043508D02*
X8139229Y-14053031D01*
X8139229Y-14053031D02*
X8148753Y-14072079D01*
X8148753Y-14072079D02*
X8148753Y-14091127D01*
X8148753Y-14091127D02*
X8139229Y-14119698D01*
X8139229Y-14119698D02*
X8024943Y-14233984D01*
X8024943Y-14233984D02*
X8148753Y-14233984D01*
X8272562Y-14033984D02*
X8291610Y-14033984D01*
X8291610Y-14033984D02*
X8310658Y-14043508D01*
X8310658Y-14043508D02*
X8320182Y-14053031D01*
X8320182Y-14053031D02*
X8329705Y-14072079D01*
X8329705Y-14072079D02*
X8339229Y-14110174D01*
X8339229Y-14110174D02*
X8339229Y-14157793D01*
X8339229Y-14157793D02*
X8329705Y-14195888D01*
X8329705Y-14195888D02*
X8320182Y-14214936D01*
X8320182Y-14214936D02*
X8310658Y-14224460D01*
X8310658Y-14224460D02*
X8291610Y-14233984D01*
X8291610Y-14233984D02*
X8272562Y-14233984D01*
X8272562Y-14233984D02*
X8253515Y-14224460D01*
X8253515Y-14224460D02*
X8243991Y-14214936D01*
X8243991Y-14214936D02*
X8234467Y-14195888D01*
X8234467Y-14195888D02*
X8224943Y-14157793D01*
X8224943Y-14157793D02*
X8224943Y-14110174D01*
X8224943Y-14110174D02*
X8234467Y-14072079D01*
X8234467Y-14072079D02*
X8243991Y-14053031D01*
X8243991Y-14053031D02*
X8253515Y-14043508D01*
X8253515Y-14043508D02*
X8272562Y-14033984D01*
X8463039Y-14033984D02*
X8482086Y-14033984D01*
X8482086Y-14033984D02*
X8501134Y-14043508D01*
X8501134Y-14043508D02*
X8510658Y-14053031D01*
X8510658Y-14053031D02*
X8520182Y-14072079D01*
X8520182Y-14072079D02*
X8529705Y-14110174D01*
X8529705Y-14110174D02*
X8529705Y-14157793D01*
X8529705Y-14157793D02*
X8520182Y-14195888D01*
X8520182Y-14195888D02*
X8510658Y-14214936D01*
X8510658Y-14214936D02*
X8501134Y-14224460D01*
X8501134Y-14224460D02*
X8482086Y-14233984D01*
X8482086Y-14233984D02*
X8463039Y-14233984D01*
X8463039Y-14233984D02*
X8443991Y-14224460D01*
X8443991Y-14224460D02*
X8434467Y-14214936D01*
X8434467Y-14214936D02*
X8424944Y-14195888D01*
X8424944Y-14195888D02*
X8415420Y-14157793D01*
X8415420Y-14157793D02*
X8415420Y-14110174D01*
X8415420Y-14110174D02*
X8424944Y-14072079D01*
X8424944Y-14072079D02*
X8434467Y-14053031D01*
X8434467Y-14053031D02*
X8443991Y-14043508D01*
X8443991Y-14043508D02*
X8463039Y-14033984D01*
X8615420Y-14233984D02*
X8615420Y-14100650D01*
X8615420Y-14119698D02*
X8624944Y-14110174D01*
X8624944Y-14110174D02*
X8643991Y-14100650D01*
X8643991Y-14100650D02*
X8672563Y-14100650D01*
X8672563Y-14100650D02*
X8691610Y-14110174D01*
X8691610Y-14110174D02*
X8701134Y-14129222D01*
X8701134Y-14129222D02*
X8701134Y-14233984D01*
X8701134Y-14129222D02*
X8710658Y-14110174D01*
X8710658Y-14110174D02*
X8729705Y-14100650D01*
X8729705Y-14100650D02*
X8758277Y-14100650D01*
X8758277Y-14100650D02*
X8777325Y-14110174D01*
X8777325Y-14110174D02*
X8786848Y-14129222D01*
X8786848Y-14129222D02*
X8786848Y-14233984D01*
X8882086Y-14233984D02*
X8882086Y-14100650D01*
X8882086Y-14119698D02*
X8891610Y-14110174D01*
X8891610Y-14110174D02*
X8910658Y-14100650D01*
X8910658Y-14100650D02*
X8939229Y-14100650D01*
X8939229Y-14100650D02*
X8958277Y-14110174D01*
X8958277Y-14110174D02*
X8967801Y-14129222D01*
X8967801Y-14129222D02*
X8967801Y-14233984D01*
X8967801Y-14129222D02*
X8977325Y-14110174D01*
X8977325Y-14110174D02*
X8996372Y-14100650D01*
X8996372Y-14100650D02*
X9024944Y-14100650D01*
X9024944Y-14100650D02*
X9043991Y-14110174D01*
X9043991Y-14110174D02*
X9053515Y-14129222D01*
X9053515Y-14129222D02*
X9053515Y-14233984D01*
X9443991Y-14024460D02*
X9272563Y-14281603D01*
X9701134Y-14033984D02*
X9720182Y-14033984D01*
X9720182Y-14033984D02*
X9739229Y-14043508D01*
X9739229Y-14043508D02*
X9748753Y-14053031D01*
X9748753Y-14053031D02*
X9758277Y-14072079D01*
X9758277Y-14072079D02*
X9767801Y-14110174D01*
X9767801Y-14110174D02*
X9767801Y-14157793D01*
X9767801Y-14157793D02*
X9758277Y-14195888D01*
X9758277Y-14195888D02*
X9748753Y-14214936D01*
X9748753Y-14214936D02*
X9739229Y-14224460D01*
X9739229Y-14224460D02*
X9720182Y-14233984D01*
X9720182Y-14233984D02*
X9701134Y-14233984D01*
X9701134Y-14233984D02*
X9682087Y-14224460D01*
X9682087Y-14224460D02*
X9672563Y-14214936D01*
X9672563Y-14214936D02*
X9663039Y-14195888D01*
X9663039Y-14195888D02*
X9653515Y-14157793D01*
X9653515Y-14157793D02*
X9653515Y-14110174D01*
X9653515Y-14110174D02*
X9663039Y-14072079D01*
X9663039Y-14072079D02*
X9672563Y-14053031D01*
X9672563Y-14053031D02*
X9682087Y-14043508D01*
X9682087Y-14043508D02*
X9701134Y-14033984D01*
X9853515Y-14214936D02*
X9863039Y-14224460D01*
X9863039Y-14224460D02*
X9853515Y-14233984D01*
X9853515Y-14233984D02*
X9843991Y-14224460D01*
X9843991Y-14224460D02*
X9853515Y-14214936D01*
X9853515Y-14214936D02*
X9853515Y-14233984D01*
X10053515Y-14233984D02*
X9939229Y-14233984D01*
X9996372Y-14233984D02*
X9996372Y-14033984D01*
X9996372Y-14033984D02*
X9977325Y-14062555D01*
X9977325Y-14062555D02*
X9958277Y-14081603D01*
X9958277Y-14081603D02*
X9939229Y-14091127D01*
X10129706Y-14053031D02*
X10139229Y-14043508D01*
X10139229Y-14043508D02*
X10158277Y-14033984D01*
X10158277Y-14033984D02*
X10205896Y-14033984D01*
X10205896Y-14033984D02*
X10224944Y-14043508D01*
X10224944Y-14043508D02*
X10234468Y-14053031D01*
X10234468Y-14053031D02*
X10243991Y-14072079D01*
X10243991Y-14072079D02*
X10243991Y-14091127D01*
X10243991Y-14091127D02*
X10234468Y-14119698D01*
X10234468Y-14119698D02*
X10120182Y-14233984D01*
X10120182Y-14233984D02*
X10243991Y-14233984D01*
X10415420Y-14033984D02*
X10377325Y-14033984D01*
X10377325Y-14033984D02*
X10358277Y-14043508D01*
X10358277Y-14043508D02*
X10348753Y-14053031D01*
X10348753Y-14053031D02*
X10329706Y-14081603D01*
X10329706Y-14081603D02*
X10320182Y-14119698D01*
X10320182Y-14119698D02*
X10320182Y-14195888D01*
X10320182Y-14195888D02*
X10329706Y-14214936D01*
X10329706Y-14214936D02*
X10339229Y-14224460D01*
X10339229Y-14224460D02*
X10358277Y-14233984D01*
X10358277Y-14233984D02*
X10396372Y-14233984D01*
X10396372Y-14233984D02*
X10415420Y-14224460D01*
X10415420Y-14224460D02*
X10424944Y-14214936D01*
X10424944Y-14214936D02*
X10434468Y-14195888D01*
X10434468Y-14195888D02*
X10434468Y-14148269D01*
X10434468Y-14148269D02*
X10424944Y-14129222D01*
X10424944Y-14129222D02*
X10415420Y-14119698D01*
X10415420Y-14119698D02*
X10396372Y-14110174D01*
X10396372Y-14110174D02*
X10358277Y-14110174D01*
X10358277Y-14110174D02*
X10339229Y-14119698D01*
X10339229Y-14119698D02*
X10329706Y-14129222D01*
X10329706Y-14129222D02*
X10320182Y-14148269D01*
X10558277Y-14033984D02*
X10577325Y-14033984D01*
X10577325Y-14033984D02*
X10596372Y-14043508D01*
X10596372Y-14043508D02*
X10605896Y-14053031D01*
X10605896Y-14053031D02*
X10615420Y-14072079D01*
X10615420Y-14072079D02*
X10624944Y-14110174D01*
X10624944Y-14110174D02*
X10624944Y-14157793D01*
X10624944Y-14157793D02*
X10615420Y-14195888D01*
X10615420Y-14195888D02*
X10605896Y-14214936D01*
X10605896Y-14214936D02*
X10596372Y-14224460D01*
X10596372Y-14224460D02*
X10577325Y-14233984D01*
X10577325Y-14233984D02*
X10558277Y-14233984D01*
X10558277Y-14233984D02*
X10539229Y-14224460D01*
X10539229Y-14224460D02*
X10529706Y-14214936D01*
X10529706Y-14214936D02*
X10520182Y-14195888D01*
X10520182Y-14195888D02*
X10510658Y-14157793D01*
X10510658Y-14157793D02*
X10510658Y-14110174D01*
X10510658Y-14110174D02*
X10520182Y-14072079D01*
X10520182Y-14072079D02*
X10529706Y-14053031D01*
X10529706Y-14053031D02*
X10539229Y-14043508D01*
X10539229Y-14043508D02*
X10558277Y-14033984D01*
X10701134Y-14033984D02*
X10701134Y-14072079D01*
X10777325Y-14033984D02*
X10777325Y-14072079D01*
X11072563Y-14310174D02*
X11063039Y-14300650D01*
X11063039Y-14300650D02*
X11043991Y-14272079D01*
X11043991Y-14272079D02*
X11034468Y-14253031D01*
X11034468Y-14253031D02*
X11024944Y-14224460D01*
X11024944Y-14224460D02*
X11015420Y-14176841D01*
X11015420Y-14176841D02*
X11015420Y-14138746D01*
X11015420Y-14138746D02*
X11024944Y-14091127D01*
X11024944Y-14091127D02*
X11034468Y-14062555D01*
X11034468Y-14062555D02*
X11043991Y-14043508D01*
X11043991Y-14043508D02*
X11063039Y-14014936D01*
X11063039Y-14014936D02*
X11072563Y-14005412D01*
X11234468Y-14033984D02*
X11196372Y-14033984D01*
X11196372Y-14033984D02*
X11177325Y-14043508D01*
X11177325Y-14043508D02*
X11167801Y-14053031D01*
X11167801Y-14053031D02*
X11148753Y-14081603D01*
X11148753Y-14081603D02*
X11139230Y-14119698D01*
X11139230Y-14119698D02*
X11139230Y-14195888D01*
X11139230Y-14195888D02*
X11148753Y-14214936D01*
X11148753Y-14214936D02*
X11158277Y-14224460D01*
X11158277Y-14224460D02*
X11177325Y-14233984D01*
X11177325Y-14233984D02*
X11215420Y-14233984D01*
X11215420Y-14233984D02*
X11234468Y-14224460D01*
X11234468Y-14224460D02*
X11243991Y-14214936D01*
X11243991Y-14214936D02*
X11253515Y-14195888D01*
X11253515Y-14195888D02*
X11253515Y-14148269D01*
X11253515Y-14148269D02*
X11243991Y-14129222D01*
X11243991Y-14129222D02*
X11234468Y-14119698D01*
X11234468Y-14119698D02*
X11215420Y-14110174D01*
X11215420Y-14110174D02*
X11177325Y-14110174D01*
X11177325Y-14110174D02*
X11158277Y-14119698D01*
X11158277Y-14119698D02*
X11148753Y-14129222D01*
X11148753Y-14129222D02*
X11139230Y-14148269D01*
X11491610Y-14233984D02*
X11491610Y-14033984D01*
X11577325Y-14233984D02*
X11577325Y-14129222D01*
X11577325Y-14129222D02*
X11567801Y-14110174D01*
X11567801Y-14110174D02*
X11548753Y-14100650D01*
X11548753Y-14100650D02*
X11520182Y-14100650D01*
X11520182Y-14100650D02*
X11501134Y-14110174D01*
X11501134Y-14110174D02*
X11491610Y-14119698D01*
X11701134Y-14233984D02*
X11682087Y-14224460D01*
X11682087Y-14224460D02*
X11672563Y-14214936D01*
X11672563Y-14214936D02*
X11663039Y-14195888D01*
X11663039Y-14195888D02*
X11663039Y-14138746D01*
X11663039Y-14138746D02*
X11672563Y-14119698D01*
X11672563Y-14119698D02*
X11682087Y-14110174D01*
X11682087Y-14110174D02*
X11701134Y-14100650D01*
X11701134Y-14100650D02*
X11729706Y-14100650D01*
X11729706Y-14100650D02*
X11748753Y-14110174D01*
X11748753Y-14110174D02*
X11758277Y-14119698D01*
X11758277Y-14119698D02*
X11767801Y-14138746D01*
X11767801Y-14138746D02*
X11767801Y-14195888D01*
X11767801Y-14195888D02*
X11758277Y-14214936D01*
X11758277Y-14214936D02*
X11748753Y-14224460D01*
X11748753Y-14224460D02*
X11729706Y-14233984D01*
X11729706Y-14233984D02*
X11701134Y-14233984D01*
X11882087Y-14233984D02*
X11863039Y-14224460D01*
X11863039Y-14224460D02*
X11853515Y-14205412D01*
X11853515Y-14205412D02*
X11853515Y-14033984D01*
X12034468Y-14224460D02*
X12015420Y-14233984D01*
X12015420Y-14233984D02*
X11977325Y-14233984D01*
X11977325Y-14233984D02*
X11958277Y-14224460D01*
X11958277Y-14224460D02*
X11948753Y-14205412D01*
X11948753Y-14205412D02*
X11948753Y-14129222D01*
X11948753Y-14129222D02*
X11958277Y-14110174D01*
X11958277Y-14110174D02*
X11977325Y-14100650D01*
X11977325Y-14100650D02*
X12015420Y-14100650D01*
X12015420Y-14100650D02*
X12034468Y-14110174D01*
X12034468Y-14110174D02*
X12043991Y-14129222D01*
X12043991Y-14129222D02*
X12043991Y-14148269D01*
X12043991Y-14148269D02*
X11948753Y-14167317D01*
X12120182Y-14224460D02*
X12139230Y-14233984D01*
X12139230Y-14233984D02*
X12177325Y-14233984D01*
X12177325Y-14233984D02*
X12196372Y-14224460D01*
X12196372Y-14224460D02*
X12205896Y-14205412D01*
X12205896Y-14205412D02*
X12205896Y-14195888D01*
X12205896Y-14195888D02*
X12196372Y-14176841D01*
X12196372Y-14176841D02*
X12177325Y-14167317D01*
X12177325Y-14167317D02*
X12148753Y-14167317D01*
X12148753Y-14167317D02*
X12129706Y-14157793D01*
X12129706Y-14157793D02*
X12120182Y-14138746D01*
X12120182Y-14138746D02*
X12120182Y-14129222D01*
X12120182Y-14129222D02*
X12129706Y-14110174D01*
X12129706Y-14110174D02*
X12148753Y-14100650D01*
X12148753Y-14100650D02*
X12177325Y-14100650D01*
X12177325Y-14100650D02*
X12196372Y-14110174D01*
X12272563Y-14310174D02*
X12282087Y-14300650D01*
X12282087Y-14300650D02*
X12301134Y-14272079D01*
X12301134Y-14272079D02*
X12310658Y-14253031D01*
X12310658Y-14253031D02*
X12320182Y-14224460D01*
X12320182Y-14224460D02*
X12329706Y-14176841D01*
X12329706Y-14176841D02*
X12329706Y-14138746D01*
X12329706Y-14138746D02*
X12320182Y-14091127D01*
X12320182Y-14091127D02*
X12310658Y-14062555D01*
X12310658Y-14062555D02*
X12301134Y-14043508D01*
X12301134Y-14043508D02*
X12282087Y-14014936D01*
X12282087Y-14014936D02*
X12272563Y-14005412D01*
X12634468Y-14310174D02*
X12624944Y-14300650D01*
X12624944Y-14300650D02*
X12605896Y-14272079D01*
X12605896Y-14272079D02*
X12596372Y-14253031D01*
X12596372Y-14253031D02*
X12586849Y-14224460D01*
X12586849Y-14224460D02*
X12577325Y-14176841D01*
X12577325Y-14176841D02*
X12577325Y-14138746D01*
X12577325Y-14138746D02*
X12586849Y-14091127D01*
X12586849Y-14091127D02*
X12596372Y-14062555D01*
X12596372Y-14062555D02*
X12605896Y-14043508D01*
X12605896Y-14043508D02*
X12624944Y-14014936D01*
X12624944Y-14014936D02*
X12634468Y-14005412D01*
X12710658Y-14100650D02*
X12710658Y-14233984D01*
X12710658Y-14119698D02*
X12720182Y-14110174D01*
X12720182Y-14110174D02*
X12739230Y-14100650D01*
X12739230Y-14100650D02*
X12767801Y-14100650D01*
X12767801Y-14100650D02*
X12786849Y-14110174D01*
X12786849Y-14110174D02*
X12796372Y-14129222D01*
X12796372Y-14129222D02*
X12796372Y-14233984D01*
X12920182Y-14233984D02*
X12901134Y-14224460D01*
X12901134Y-14224460D02*
X12891611Y-14214936D01*
X12891611Y-14214936D02*
X12882087Y-14195888D01*
X12882087Y-14195888D02*
X12882087Y-14138746D01*
X12882087Y-14138746D02*
X12891611Y-14119698D01*
X12891611Y-14119698D02*
X12901134Y-14110174D01*
X12901134Y-14110174D02*
X12920182Y-14100650D01*
X12920182Y-14100650D02*
X12948753Y-14100650D01*
X12948753Y-14100650D02*
X12967801Y-14110174D01*
X12967801Y-14110174D02*
X12977325Y-14119698D01*
X12977325Y-14119698D02*
X12986849Y-14138746D01*
X12986849Y-14138746D02*
X12986849Y-14195888D01*
X12986849Y-14195888D02*
X12977325Y-14214936D01*
X12977325Y-14214936D02*
X12967801Y-14224460D01*
X12967801Y-14224460D02*
X12948753Y-14233984D01*
X12948753Y-14233984D02*
X12920182Y-14233984D01*
X13043992Y-14100650D02*
X13120182Y-14100650D01*
X13072563Y-14033984D02*
X13072563Y-14205412D01*
X13072563Y-14205412D02*
X13082087Y-14224460D01*
X13082087Y-14224460D02*
X13101134Y-14233984D01*
X13101134Y-14233984D02*
X13120182Y-14233984D01*
X13339230Y-14100650D02*
X13339230Y-14300650D01*
X13339230Y-14110174D02*
X13358277Y-14100650D01*
X13358277Y-14100650D02*
X13396373Y-14100650D01*
X13396373Y-14100650D02*
X13415420Y-14110174D01*
X13415420Y-14110174D02*
X13424944Y-14119698D01*
X13424944Y-14119698D02*
X13434468Y-14138746D01*
X13434468Y-14138746D02*
X13434468Y-14195888D01*
X13434468Y-14195888D02*
X13424944Y-14214936D01*
X13424944Y-14214936D02*
X13415420Y-14224460D01*
X13415420Y-14224460D02*
X13396373Y-14233984D01*
X13396373Y-14233984D02*
X13358277Y-14233984D01*
X13358277Y-14233984D02*
X13339230Y-14224460D01*
X13548753Y-14233984D02*
X13529706Y-14224460D01*
X13529706Y-14224460D02*
X13520182Y-14205412D01*
X13520182Y-14205412D02*
X13520182Y-14033984D01*
X13710658Y-14233984D02*
X13710658Y-14129222D01*
X13710658Y-14129222D02*
X13701134Y-14110174D01*
X13701134Y-14110174D02*
X13682087Y-14100650D01*
X13682087Y-14100650D02*
X13643992Y-14100650D01*
X13643992Y-14100650D02*
X13624944Y-14110174D01*
X13710658Y-14224460D02*
X13691611Y-14233984D01*
X13691611Y-14233984D02*
X13643992Y-14233984D01*
X13643992Y-14233984D02*
X13624944Y-14224460D01*
X13624944Y-14224460D02*
X13615420Y-14205412D01*
X13615420Y-14205412D02*
X13615420Y-14186365D01*
X13615420Y-14186365D02*
X13624944Y-14167317D01*
X13624944Y-14167317D02*
X13643992Y-14157793D01*
X13643992Y-14157793D02*
X13691611Y-14157793D01*
X13691611Y-14157793D02*
X13710658Y-14148269D01*
X13777325Y-14100650D02*
X13853515Y-14100650D01*
X13805896Y-14033984D02*
X13805896Y-14205412D01*
X13805896Y-14205412D02*
X13815420Y-14224460D01*
X13815420Y-14224460D02*
X13834468Y-14233984D01*
X13834468Y-14233984D02*
X13853515Y-14233984D01*
X13996373Y-14224460D02*
X13977325Y-14233984D01*
X13977325Y-14233984D02*
X13939230Y-14233984D01*
X13939230Y-14233984D02*
X13920182Y-14224460D01*
X13920182Y-14224460D02*
X13910658Y-14205412D01*
X13910658Y-14205412D02*
X13910658Y-14129222D01*
X13910658Y-14129222D02*
X13920182Y-14110174D01*
X13920182Y-14110174D02*
X13939230Y-14100650D01*
X13939230Y-14100650D02*
X13977325Y-14100650D01*
X13977325Y-14100650D02*
X13996373Y-14110174D01*
X13996373Y-14110174D02*
X14005896Y-14129222D01*
X14005896Y-14129222D02*
X14005896Y-14148269D01*
X14005896Y-14148269D02*
X13910658Y-14167317D01*
X14177325Y-14233984D02*
X14177325Y-14033984D01*
X14177325Y-14224460D02*
X14158277Y-14233984D01*
X14158277Y-14233984D02*
X14120182Y-14233984D01*
X14120182Y-14233984D02*
X14101134Y-14224460D01*
X14101134Y-14224460D02*
X14091611Y-14214936D01*
X14091611Y-14214936D02*
X14082087Y-14195888D01*
X14082087Y-14195888D02*
X14082087Y-14138746D01*
X14082087Y-14138746D02*
X14091611Y-14119698D01*
X14091611Y-14119698D02*
X14101134Y-14110174D01*
X14101134Y-14110174D02*
X14120182Y-14100650D01*
X14120182Y-14100650D02*
X14158277Y-14100650D01*
X14158277Y-14100650D02*
X14177325Y-14110174D01*
X14253515Y-14310174D02*
X14263039Y-14300650D01*
X14263039Y-14300650D02*
X14282087Y-14272079D01*
X14282087Y-14272079D02*
X14291611Y-14253031D01*
X14291611Y-14253031D02*
X14301134Y-14224460D01*
X14301134Y-14224460D02*
X14310658Y-14176841D01*
X14310658Y-14176841D02*
X14310658Y-14138746D01*
X14310658Y-14138746D02*
X14301134Y-14091127D01*
X14301134Y-14091127D02*
X14291611Y-14062555D01*
X14291611Y-14062555D02*
X14282087Y-14043508D01*
X14282087Y-14043508D02*
X14263039Y-14014936D01*
X14263039Y-14014936D02*
X14253515Y-14005412D01*
M02*
